{
.formatVersion = 3;
axes = (
{
name = Weight;
tag = wght;
}
);
classes = (
{
code = "zero.lnum five.lnum seven.lnum eight.lnum a g i ordfeminine periodcentered agrave aacute acircumflex atilde adieresis aring ae amacron abreve aogonek gcircumflex gbreve gdotaccent gcommaaccent Scedilla scedilla Tcedilla tcedilla gcaron aringacute aeacute adblgrave ainvertedbreve gravecomb acutecomb circumflexcomb tildecomb macroncomb brevecomb dotaccentcomb dieresiscomb hookabovecomb ringcomb hungarumlautcomb dblgravecomb breveinvertedcomb commaturnedabovecomb strokeshortcomb tonos Decyr Kacyr Elcyr acyr becyr vecyr zhecyr zecyr icyr ishortcyr kacyr elcyr tsecyr shacyr shchacyr hardcyr softcyr yucyr gjecyr igravecyr abrevecyr adieresiscyr aiecyr adotbelow ahoi acircumflexacute acircumflexgrave acircumflexhoi acircumflextilde acircumflexdotbelow abreveacute abrevegrave abrevehoi abrevetilde abrevedotbelow zero two.lnum.ss05 five six seven eight nine periodcentered.loclCAT caroncomb.case horncomb.case pecyr.loclSRB tecyr.loclSRB gjecyr.loclMKD";
name = aalt;
},
{

glyphs = (
{
glyphname = .notdef;
layers = (
{
layerId = "754C31AE-F388-4929-9E05-D72B02926026";
shapes = (
{
closed = 1;
nodes = (
(132,0,l),
(1267,0,l),
(1267,1440,l),
(132,1440,l)
);
},
{
closed = 1;
nodes = (
(465,274,l),
(465,1166,l),
(934,1166,l),
(934,274,l)
);
}
);
width = 1399;
},
{
layerId = "C851E168-A0F3-4A98-BB70-DDAB26A4D58F";
shapes = (
{
closed = 1;
nodes = (
(153,0,l),
(1180,0,l),
(1180,1440,l),
(153,1440,l)
);
},
{
closed = 1;
nodes = (
(377,191,l),
(377,1250,l),
(955,1250,l),
(955,191,l)
);
}
);
width = 1333;
},
{
layerId = "95DC38C8-633C-4490-9AF5-01E2DA151EE8";
shapes = (
{
closed = 1;
nodes = (
(175,0,l),
(1092,0,l),
(1092,1440,l),
(175,1440,l)
);
},
{
closed = 1;
nodes = (
(290,109,l),
(290,1333,l),
(977,1333,l),
(977,109,l)
);
}
);
width = 1267;
}
);
},
{
glyphname = exclam;
layers = (
{
layerId = "754C31AE-F388-4929-9E05-D72B02926026";
shapes = (
{
closed = 1;
nodes = (
(183,536,l),
(539,536,l),
(601,1440,l),
(119,1440,l)
);
},
{
closed = 1;
nodes = (
(495,-30,o),
(594,57,o),
(594,192,cs),
(594,330,o),
(495,416,o),
(360,416,cs),
(227,416,o),
(126,325,o),
(126,192,cs),
(126,60,o),
(232,-30,o),
(360,-30,cs)
);
}
);
width = 720;
},
{
layerId = "C851E168-A0F3-4A98-BB70-DDAB26A4D58F";
shapes = (
{
closed = 1;
nodes = (
(216,488,l),
(447,488,l),
(487,1440,l),
(173,1440,l)
);
},
{
closed = 1;
nodes = (
(429,-30,o),
(502,35,o),
(502,133,cs),
(502,235,o),
(429,297,o),
(330,297,cs),
(234,297,o),
(158,229,o),
(158,133,cs),
(158,37,o),
(238,-30,o),
(331,-30,cs)
);
}
);
width = 660;
},
{
layerId = "95DC38C8-633C-4490-9AF5-01E2DA151EE8";
shapes = (
{
closed = 1;
nodes = (
(248,440,l),
(354,440,l),
(373,1440,l),
(227,1440,l)
);
},
{
closed = 1;
nodes = (
(362,-30,o),
(410,13,o),
(410,74,cs),
(410,139,o),
(363,178,o),
(300,178,cs),
(240,178,o),
(190,134,o),
(190,74,cs),
(190,13,o),
(242,-30,o),
(301,-30,cs)
);
}
);
width = 600;
}
);
leftKerningGroup = _b2;
rightKerningGroup = _d;
unicode = 33;
},
{
glyphname = numbersign;
layers = (
{
layerId = "754C31AE-F388-4929-9E05-D72B02926026";
shapes = (
{
closed = 1;
nodes = (
(136,32,l),
(408,32,l),
(480,336,l),
(664,334,l),
(592,32,l),
(864,32,l),
(938,334,l),
(1100,334,l),
(1160,592,l),
(1000,592,l),
(1048,802,l),
(1208,802,l),
(1266,1058,l),
(1108,1058,l),
(1182,1368,l),
(910,1368,l),
(836,1058,l),
(650,1058,l),
(724,1368,l),
(452,1368,l),
(378,1058,l),
(216,1058,l),
(156,802,l),
(318,802,l),
(268,592,l),
(108,592,l),
(48,336,l),
(208,336,l)
);
},
{
closed = 1;
nodes = (
(540,592,l),
(588,802,l),
(776,802,l),
(728,592,l)
);
}
);
width = 1314;
},
{
layerId = "C851E168-A0F3-4A98-BB70-DDAB26A4D58F";
shapes = (
{
closed = 1;
nodes = (
(161,45,l),
(347,45,l),
(427,377,l),
(700,376,l),
(620,44,l),
(806,44,l),
(887,376,l),
(1056,376,l),
(1098,555,l),
(930,555,l),
(995,842,l),
(1164,842,l),
(1204,1020,l),
(1037,1020,l),
(1117,1356,l),
(931,1356,l),
(851,1020,l),
(577,1020,l),
(657,1355,l),
(472,1355,l),
(391,1020,l),
(222,1020,l),
(180,843,l),
(350,843,l),
(282,554,l),
(113,554,l),
(72,377,l),
(241,377,l)
);
},
{
closed = 1;
nodes = (
(468,554,l),
(533,843,l),
(809,842,l),
(744,555,l)
);
}
);
width = 1276;
},
{
layerId = "95DC38C8-633C-4490-9AF5-01E2DA151EE8";
shapes = (
{
closed = 1;
nodes = (
(186,58,l),
(286,58,l),
(374,418,l),
(736,418,l),
(648,56,l),
(748,56,l),
(836,418,l),
(1012,418,l),
(1036,518,l),
(860,518,l),
(942,882,l),
(1120,882,l),
(1142,982,l),
(966,982,l),
(1052,1344,l),
(952,1344,l),
(866,982,l),
(504,982,l),
(590,1342,l),
(492,1342,l),
(404,982,l),
(228,982,l),
(204,884,l),
(382,884,l),
(296,516,l),
(118,516,l),
(96,418,l),
(274,418,l)
);
},
{
closed = 1;
nodes = (
(396,516,l),
(478,884,l),
(842,882,l),
(760,518,l)
);
}
);
width = 1238;
}
);
unicode = 35;
},
{
glyphname = dollar;
layers = (
{
layerId = "754C31AE-F388-4929-9E05-D72B02926026";
shapes = (
{
closed = 1;
nodes = (
(904,-30,o),
(1120,129,o),
(1120,418,cs),
(1120,664,o),
(960,798,o),
(757,824,cs),
(631,840,ls),
(530,853,o),
(426,892,o),
(426,1012,cs),
(426,1131,o),
(539,1156,o),
(626,1156,cs),
(741,1156,o),
(857,1111,o),
(934,1017,c),
(1082,1259,l),
(967,1384,o),
(779,1428,o),
(622,1428,cs),
(371,1428,o),
(145,1267,o),
(145,996,cs),
(145,756,o),
(312,611,o),
(511,578,cs),
(631,558,ls),
(730,542,o),
(837,497,o),
(837,382,cs),
(837,263,o),
(707,242,o),
(622,242,cs),
(485,242,o),
(355,301,o),
(262,400,c),
(120,152,l),
(250,26,o),
(451,-30,o),
(622,-30,cs)
);
},
{
closed = 1;
nodes = (
(507,-160,l),
(761,-160,l),
(761,1560,l),
(507,1560,l)
);
}
);
width = 1200;
},
{
layerId = "C851E168-A0F3-4A98-BB70-DDAB26A4D58F";
shapes = (
{
closed = 1;
nodes = (
(882,-30,o),
(1082,115,o),
(1082,389,cs),
(1082,619,o),
(935,732,o),
(747,775,c),
(604,811,ls),
(484,841,o),
(366,888,o),
(366,1031,cs),
(366,1190,o),
(493,1240,o),
(617,1240,cs),
(735,1240,o),
(848,1199,o),
(933,1110,c),
(1038,1279,l),
(929,1388,o),
(768,1429,o),
(624,1429,cs),
(382,1429,o),
(169,1283,o),
(169,1019,cs),
(169,796,o),
(331,678,o),
(511,633,c),
(644,597,ls),
(767,564,o),
(884,512,o),
(884,367,cs),
(884,210,o),
(746,160,o),
(614,160,cs),
(478,160,o),
(354,211,o),
(254,305,c),
(152,130,l),
(274,18,o),
(456,-30,o),
(614,-30,cs)
);
},
{
closed = 1;
nodes = (
(536,-160,l),
(715,-160,l),
(715,1560,l),
(536,1560,l)
);
}
);
width = 1200;
},
{
layerId = "95DC38C8-633C-4490-9AF5-01E2DA151EE8";
shapes = (
{
closed = 1;
nodes = (
(860,-30,o),
(1043,100,o),
(1043,360,cs),
(1043,574,o),
(909,666,o),
(736,726,cs),
(577,781,ls),
(438,829,o),
(305,883,o),
(305,1050,cs),
(305,1248,o),
(447,1324,o),
(608,1324,cs),
(728,1324,o),
(838,1287,o),
(931,1203,c),
(994,1299,l),
(891,1391,o),
(757,1430,o),
(626,1430,cs),
(392,1430,o),
(193,1299,o),
(193,1042,cs),
(193,835,o),
(349,744,o),
(511,687,cs),
(657,636,ls),
(803,585,o),
(930,526,o),
(930,352,cs),
(930,157,o),
(785,78,o),
(606,78,cs),
(470,78,o),
(353,121,o),
(245,209,c),
(183,108,l),
(298,10,o),
(461,-30,o),
(606,-30,cs)
);
},
{
closed = 1;
nodes = (
(564,-160,l),
(669,-160,l),
(669,1560,l),
(564,1560,l)
);
}
);
width = 1200;
}
);
unicode = 36;
},
{
glyphname = percent;
layers = (
{
guides = (
{
position = "{0, 1069.12}";
}
);
layerId = "754C31AE-F388-4929-9E05-D72B02926026";
shapes = (
{
closed = 1;
nodes = (
(497,766,o),
(586,937,o),
(586,1117,cs),
(586,1300,o),
(498,1469,o),
(308,1469,cs),
(119,1469,o),
(31,1300,o),
(31,1117,cs),
(31,937,o),
(120,766,o),
(308,766,cs)
);
},
{
closed = 1;
nodes = (
(254,972,o),
(244,1065,o),
(244,1117,cs),
(244,1215,o),
(276,1264,o),
(308,1264,cs),
(339,1264,o),
(373,1216,o),
(373,1117,cs),
(373,1064,o),
(363,972,o),
(308,972,cs)
);
},
{
closed = 1;
nodes = (
(1113,-27,o),
(1203,144,o),
(1203,326,cs),
(1203,508,o),
(1114,677,o),
(924,677,cs),
(736,677,o),
(647,508,o),
(647,326,cs),
(647,144,o),
(737,-27,o),
(924,-27,cs)
);
},
{
closed = 1;
nodes = (
(871,181,o),
(860,272,o),
(860,326,cs),
(860,423,o),
(893,472,o),
(925,472,cs),
(957,472,o),
(990,424,o),
(990,326,cs),
(990,271,o),
(979,181,o),
(924,181,cs)
);
},
{
closed = 1;
nodes = (
(300,-44,l),
(1096,1382,l),
(929,1480,l),
(132,59,l)
);
}
);
width = 1234;
},
{
guides = (
{
position = "{0, 1069.12}";
}
);
layerId = "C851E168-A0F3-4A98-BB70-DDAB26A4D58F";
shapes = (
{
closed = 1;
nodes = (
(508,766,o),
(587,954,o),
(587,1117,cs),
(587,1284,o),
(509,1469,o),
(323,1469,cs),
(137,1469,o),
(59,1283,o),
(59,1117,cs),
(59,954,o),
(138,766,o),
(323,766,cs)
);
},
{
closed = 1;
nodes = (
(232,909,o),
(207,1034,o),
(207,1117,cs),
(207,1257,o),
(265,1328,o),
(323,1328,cs),
(379,1328,o),
(439,1258,o),
(439,1117,cs),
(439,1038,o),
(416,909,o),
(323,909,cs)
);
},
{
closed = 1;
nodes = (
(1096,-29,o),
(1176,159,o),
(1176,324,cs),
(1176,489,o),
(1097,675,o),
(911,675,cs),
(726,675,o),
(647,488,o),
(647,324,cs),
(647,159,o),
(727,-29,o),
(911,-29,cs)
);
},
{
closed = 1;
nodes = (
(821,115,o),
(796,240,o),
(796,324,cs),
(796,464,o),
(854,534,o),
(911,534,cs),
(968,534,o),
(1027,465,o),
(1027,324,cs),
(1027,244,o),
(1004,115,o),
(911,115,cs)
);
},
{
closed = 1;
nodes = (
(276,-38,l),
(1080,1408,l),
(960,1475,l),
(154,35,l)
);
}
);
width = 1234;
},
{
layerId = "95DC38C8-633C-4490-9AF5-01E2DA151EE8";
shapes = (
{
closed = 1;
nodes = (
(518,766,o),
(588,970,o),
(588,1117,cs),
(588,1268,o),
(519,1469,o),
(337,1469,cs),
(154,1469,o),
(85,1265,o),
(85,1117,cs),
(85,971,o),
(155,766,o),
(337,766,cs)
);
},
{
closed = 1;
nodes = (
(211,845,o),
(170,1002,o),
(170,1117,cs),
(170,1299,o),
(254,1392,o),
(337,1392,cs),
(419,1392,o),
(504,1300,o),
(504,1117,cs),
(504,1012,o),
(469,845,o),
(337,845,cs)
);
},
{
closed = 1;
nodes = (
(1078,-30,o),
(1148,174,o),
(1148,322,cs),
(1148,471,o),
(1079,673,o),
(896,673,cs),
(714,673,o),
(646,469,o),
(646,322,cs),
(646,175,o),
(715,-30,o),
(896,-30,cs)
);
},
{
closed = 1;
nodes = (
(771,49,o),
(730,207,o),
(730,322,cs),
(730,504,o),
(814,595,o),
(896,595,cs),
(980,595,o),
(1064,505,o),
(1064,322,cs),
(1064,215,o),
(1029,49,o),
(896,49,cs)
);
},
{
closed = 1;
nodes = (
(250,-31,l),
(1064,1434,l),
(990,1470,l),
(176,11,l)
);
}
);
width = 1234;
}
);
leftKerningGroup = _percent;
unicode = 37;
},
{
glyphname = ampersand;
layers = (
{
layerId = "754C31AE-F388-4929-9E05-D72B02926026";
shapes = (
{
closed = 1;
nodes = (
(483,-31,o),
(401,-13,o),
(327,27,cs),
(178,105,o),
(90,235,o),
(90,407,cs),
(90,465,o),
(102,513,o),
(123,562,cs),
(173,669,o),
(261,755,o),
(401,820,c),
(604,593,l),
(558,581,o),
(522,554,o),
(497,524,cs),
(471,494,o),
(456,460,o),
(456,424,cs),
(456,387,o),
(470,356,o),
(502,331,c),
(530,306,o),
(567,294,o),
(613,294,cs),
(671,294,o),
(732,320,o),
(781,356,c),
(368,804,l),
(340,836,o),
(316,867,o),
(298,900,c),
(262,961,o),
(245,1018,o),
(245,1084,cs),
(245,1159,o),
(263,1219,o),
(303,1281,c),
(352,1351,o),
(412,1399,o),
(483,1429,cs),
(553,1459,o),
(632,1471,o),
(714,1470,c),
(777,1471,o),
(841,1463,o),
(903,1447,cs),
(964,1432,o),
(1026,1409,o),
(1079,1384,c),
(970,1131,l),
(930,1146,o),
(885,1160,o),
(841,1171,cs),
(797,1182,o),
(755,1187,o),
(714,1184,c),
(665,1185,o),
(626,1175,o),
(602,1151,cs),
(586,1135,o),
(578,1115,o),
(578,1086,cs),
(578,1066,o),
(587,1042,o),
(602,1018,cs),
(618,993,o),
(640,971,o),
(668,948,c),
(1026,586,l),
(1062,630,o),
(1094,676,o),
(1123,729,cs),
(1150,778,o),
(1175,839,o),
(1201,913,c),
(1515,794,l),
(1499,748,o),
(1477,700,o),
(1445,646,cs),
(1384,535,o),
(1311,425,o),
(1236,350,c),
(1552,0,l),
(1104,0,l),
(993,117,l),
(935,72,o),
(872,38,o),
(797,10,cs),
(719,-19,o),
(649,-31,o),
(578,-31,cs)
);
}
);
width = 1602;
},
{
layerId = "C851E168-A0F3-4A98-BB70-DDAB26A4D58F";
shapes = (
{
closed = 1;
nodes = (
(484,-31,o),
(407,-13,o),
(335,24,cs),
(192,99,o),
(107,223,o),
(107,388,cs),
(107,448,o),
(120,500,o),
(146,553,c),
(205,664,o),
(309,751,o),
(467,809,c),
(605,658,l),
(524,637,o),
(462,600,o),
(418,555,cs),
(374,509,o),
(352,455,o),
(352,396,cs),
(352,334,o),
(372,284,o),
(419,245,c),
(463,207,o),
(521,187,o),
(595,187,cs),
(705,187,o),
(803,230,o),
(887,313,c),
(432,795,ls),
(394,836,o),
(361,872,o),
(337,909,c),
(291,977,o),
(271,1038,o),
(271,1114,cs),
(271,1183,o),
(289,1239,o),
(326,1295,c),
(371,1359,o),
(429,1404,o),
(494,1432,cs),
(560,1460,o),
(635,1471,o),
(713,1470,c),
(783,1471,o),
(854,1460,o),
(920,1439,cs),
(987,1420,o),
(1051,1390,o),
(1102,1357,c),
(1014,1181,l),
(974,1206,o),
(922,1228,o),
(868,1246,cs),
(812,1263,o),
(757,1273,o),
(703,1271,c),
(639,1273,o),
(585,1259,o),
(548,1225,cs),
(515,1196,o),
(500,1162,o),
(500,1113,cs),
(500,1078,o),
(512,1042,o),
(533,1007,cs),
(553,974,o),
(588,935,o),
(635,888,cs),
(1044,472,l),
(1084,520,o),
(1118,575,o),
(1152,638,cs),
(1184,700,o),
(1212,771,o),
(1241,855,c),
(1451,772,l),
(1433,721,o),
(1411,668,o),
(1382,614,c),
(1326,502,o),
(1258,397,o),
(1185,316,c),
(1479,0,l),
(1177,0,l),
(1030,154,l),
(966,95,o),
(895,52,o),
(816,20,cs),
(734,-16,o),
(658,-31,o),
(577,-31,cs)
);
}
);
width = 1552;
},
{
layerId = "95DC38C8-633C-4490-9AF5-01E2DA151EE8";
shapes = (
{
closed = 1;
nodes = (
(485,-31,o),
(412,-13,o),
(342,21,c),
(206,91,o),
(123,211,o),
(123,368,cs),
(123,431,o),
(139,485,o),
(169,543,c),
(235,659,o),
(358,747,o),
(531,797,c),
(605,723,l),
(489,693,o),
(401,647,o),
(339,585,cs),
(278,523,o),
(247,450,o),
(247,368,cs),
(247,281,o),
(274,212,o),
(336,158,c),
(394,106,o),
(475,80,o),
(578,80,cs),
(738,80,o),
(873,141,o),
(993,269,c),
(495,785,ls),
(447,836,o),
(405,877,o),
(376,917,c),
(319,992,o),
(298,1058,o),
(298,1145,cs),
(298,1207,o),
(315,1258,o),
(348,1309,cs),
(390,1367,o),
(444,1409,o),
(506,1435,cs),
(567,1461,o),
(637,1471,o),
(711,1470,cs),
(790,1470,o),
(867,1456,o),
(938,1431,cs),
(1008,1406,o),
(1075,1370,o),
(1125,1329,c),
(1056,1232,l),
(1016,1265,o),
(959,1296,o),
(893,1320,cs),
(828,1344,o),
(758,1358,o),
(691,1357,c),
(613,1360,o),
(543,1344,o),
(492,1298,cs),
(444,1256,o),
(421,1207,o),
(421,1141,cs),
(421,1091,o),
(436,1041,o),
(462,997,cs),
(487,953,o),
(536,900,o),
(602,829,c),
(1063,358,l),
(1104,410,o),
(1143,472,o),
(1181,547,cs),
(1217,621,o),
(1249,702,o),
(1281,798,c),
(1386,750,l),
(1366,692,o),
(1346,635,o),
(1318,581,c),
(1268,469,o),
(1206,368,o),
(1135,282,c),
(1406,0,l),
(1250,0,l),
(1067,191,l),
(996,117,o),
(918,66,o),
(835,28,cs),
(748,-13,o),
(666,-31,o),
(576,-31,cs)
);
}
);
width = 1503;
}
);
rightKerningGroup = _x;
unicode = 38;
},
{
glyphname = quotesingle;
layers = (
{
layerId = "754C31AE-F388-4929-9E05-D72B02926026";
shapes = (
{
closed = 1;
nodes = (
(122,722,l),
(410,722,l),
(452,1440,l),
(81,1440,l)
);
}
);
width = 531;
},
{
layerId = "C851E168-A0F3-4A98-BB70-DDAB26A4D58F";
shapes = (
{
closed = 1;
nodes = (
(147,871,l),
(337,871,l),
(363,1440,l),
(121,1440,l)
);
}
);
width = 481;
},
{
layerId = "95DC38C8-633C-4490-9AF5-01E2DA151EE8";
shapes = (
{
closed = 1;
nodes = (
(171,1020,l),
(263,1020,l),
(274,1440,l),
(160,1440,l)
);
}
);
width = 432;
}
);
leftKerningGroup = _tonos2;
rightKerningGroup = _tonos;
unicode = 39;
},
{
glyphname = parenleft;
layers = (
{
layerId = "754C31AE-F388-4929-9E05-D72B02926026";
shapes = (
{
closed = 1;
nodes = (
(662,-118,l),
(590,3,o),
(538,128,o),
(505,269,c),
(469,410,o),
(450,551,o),
(450,696,cs),
(450,841,o),
(467,979,o),
(503,1119,cs),
(539,1256,o),
(590,1382,o),
(662,1498,c),
(348,1610,l),
(235,1414,o),
(164,1214,o),
(128,1006,cs),
(109,901,o),
(100,800,o),
(100,692,cs),
(100,532,o),
(121,380,o),
(162,224,cs),
(203,67,o),
(264,-81,o),
(348,-230,c)
);
}
);
width = 732;
},
{
layerId = "C851E168-A0F3-4A98-BB70-DDAB26A4D58F";
shapes = (
{
closed = 1;
nodes = (
(592,-153,l),
(518,-30,o),
(465,100,o),
(430,248,c),
(392,397,o),
(373,544,o),
(373,696,cs),
(373,849,o),
(391,996,o),
(428,1142,cs),
(466,1285,o),
(518,1417,o),
(592,1533,c),
(395,1610,l),
(282,1423,o),
(211,1223,o),
(175,1012,cs),
(156,905,o),
(147,802,o),
(147,692,cs),
(147,530,o),
(168,376,o),
(209,218,cs),
(250,59,o),
(311,-88,o),
(395,-230,c)
);
}
);
width = 699;
},
{
layerId = "95DC38C8-633C-4490-9AF5-01E2DA151EE8";
shapes = (
{
closed = 1;
nodes = (
(522,-188,l),
(446,-63,o),
(391,71,o),
(354,227,cs),
(315,383,o),
(296,536,o),
(296,696,cs),
(296,857,o),
(314,1012,o),
(353,1164,cs),
(393,1313,o),
(446,1451,o),
(522,1568,c),
(442,1610,l),
(329,1431,o),
(258,1232,o),
(222,1017,cs),
(203,908,o),
(194,804,o),
(194,692,cs),
(194,527,o),
(215,371,o),
(256,211,cs),
(297,50,o),
(358,-94,o),
(442,-230,c)
);
}
);
width = 666;
}
);
rightKerningGroup = _parenleft;
unicode = 40;
},
{
glyphname = parenright;
layers = (
{
layerId = "754C31AE-F388-4929-9E05-D72B02926026";
shapes = (
{
closed = 1;
nodes = (
(70,1498,l),
(142,1381,o),
(193,1255,o),
(229,1111,cs),
(265,970,o),
(282,829,o),
(282,684,cs),
(282,539,o),
(265,400,o),
(229,263,c),
(196,123,o),
(143,-1,o),
(70,-118,c),
(384,-230,l),
(497,-31,o),
(568,166,o),
(604,375,cs),
(623,479,o),
(632,583,o),
(632,688,cs),
(632,848,o),
(611,1000,o),
(570,1157,cs),
(529,1314,o),
(468,1461,o),
(384,1610,c)
);
}
);
width = 732;
},
{
layerId = "C851E168-A0F3-4A98-BB70-DDAB26A4D58F";
shapes = (
{
closed = 1;
nodes = (
(107,1533,l),
(181,1414,o),
(234,1283,o),
(272,1132,cs),
(309,984,o),
(326,837,o),
(326,684,cs),
(326,531,o),
(309,384,o),
(271,241,c),
(236,95,o),
(182,-35,o),
(107,-153,c),
(304,-230,l),
(417,-40,o),
(488,157,o),
(524,370,cs),
(543,476,o),
(552,582,o),
(552,688,cs),
(552,851,o),
(531,1005,o),
(490,1163,cs),
(449,1322,o),
(388,1468,o),
(304,1610,c)
);
}
);
width = 699;
},
{
layerId = "95DC38C8-633C-4490-9AF5-01E2DA151EE8";
shapes = (
{
closed = 1;
nodes = (
(144,1568,l),
(220,1447,o),
(274,1310,o),
(314,1153,cs),
(353,997,o),
(370,844,o),
(370,684,cs),
(370,523,o),
(352,367,o),
(313,218,cs),
(276,66,o),
(221,-68,o),
(144,-188,c),
(224,-230,l),
(337,-49,o),
(408,148,o),
(444,365,cs),
(463,473,o),
(472,580,o),
(472,688,cs),
(472,853,o),
(451,1009,o),
(410,1169,cs),
(369,1330,o),
(308,1474,o),
(224,1610,c)
);
}
);
width = 666;
}
);
leftKerningGroup = _parenright;
unicode = 41;
},
{
glyphname = asterisk;
layers = (
{
layerId = "754C31AE-F388-4929-9E05-D72B02926026";
shapes = (
{
closed = 1;
nodes = (
(467,409,l),
(611,660,l),
(755,409,l),
(1070,625,l),
(878,839,l),
(1158,907,l),
(1039,1269,l),
(773,1154,l),
(806,1440,l),
(420,1440,l),
(453,1154,l),
(187,1269,l),
(68,907,l),
(348,839,l),
(156,625,l)
);
}
);
width = 1226;
},
{
layerId = "C851E168-A0F3-4A98-BB70-DDAB26A4D58F";
shapes = (
{
closed = 1;
nodes = (
(414,563,l),
(576,821,l),
(735,564,l),
(940,705,l),
(745,938,l),
(1039,1014,l),
(961,1251,l),
(679,1139,l),
(700,1440,l),
(450,1440,l),
(473,1136,l),
(191,1250,l),
(113,1013,l),
(407,936,l),
(214,705,l)
);
}
);
width = 1150;
},
{
layerId = "95DC38C8-633C-4490-9AF5-01E2DA151EE8";
shapes = (
{
closed = 1;
nodes = (
(362,716,l),
(541,981,l),
(716,718,l),
(810,784,l),
(611,1037,l),
(919,1121,l),
(882,1232,l),
(584,1123,l),
(594,1440,l),
(481,1440,l),
(494,1119,l),
(195,1230,l),
(158,1119,l),
(467,1033,l),
(272,784,l)
);
}
);
width = 1074;
}
);
leftKerningGroup = _degree2;
rightKerningGroup = _degree;
unicode = 42;
},
{
glyphname = plus;
layers = (
{
layerId = "754C31AE-F388-4929-9E05-D72B02926026";
shapes = (
{
closed = 1;
nodes = (
(508,110,l),
(788,110,l),
(788,536,l),
(1228,536,l),
(1228,804,l),
(788,804,l),
(788,1230,l),
(508,1230,l),
(508,804,l),
(68,804,l),
(68,536,l),
(508,536,l)
);
}
);
width = 1296;
},
{
layerId = "C851E168-A0F3-4A98-BB70-DDAB26A4D58F";
shapes = (
{
closed = 1;
nodes = (
(553,165,l),
(743,165,l),
(743,576,l),
(1172,576,l),
(1172,758,l),
(743,758,l),
(743,1169,l),
(553,1169,l),
(553,758,l),
(124,758,l),
(124,576,l),
(553,576,l)
);
}
);
width = 1296;
},
{
layerId = "95DC38C8-633C-4490-9AF5-01E2DA151EE8";
shapes = (
{
closed = 1;
nodes = (
(598,220,l),
(698,220,l),
(698,616,l),
(1116,616,l),
(1116,712,l),
(698,712,l),
(698,1108,l),
(598,1108,l),
(598,712,l),
(180,712,l),
(180,616,l),
(598,616,l)
);
}
);
width = 1296;
}
);
leftKerningGroup = _plus2;
rightKerningGroup = _plus;
unicode = 43;
},
{
glyphname = hyphen;
layers = (
{
layerId = "754C31AE-F388-4929-9E05-D72B02926026";
shapes = (
{
closed = 1;
nodes = (
(90,392,l),
(710,392,l),
(710,742,l),
(90,742,l)
);
}
);
width = 800;
},
{
layerId = "C851E168-A0F3-4A98-BB70-DDAB26A4D58F";
shapes = (
{
closed = 1;
nodes = (
(113,452,l),
(669,452,l),
(669,675,l),
(113,675,l)
);
}
);
width = 782;
},
{
layerId = "95DC38C8-633C-4490-9AF5-01E2DA151EE8";
shapes = (
{
closed = 1;
nodes = (
(136,512,l),
(628,512,l),
(628,608,l),
(136,608,l)
);
}
);
width = 764;
}
);
leftKerningGroup = _hyphen2;
rightKerningGroup = _hyphen;
unicode = 45;
},
{
glyphname = slash;
layers = (
{
layerId = "754C31AE-F388-4929-9E05-D72B02926026";
shapes = (
{
closed = 1;
nodes = (
(292,-230,l),
(978,1484,l),
(656,1610,l),
(-30,-104,l)
);
}
);
width = 948;
},
{
layerId = "C851E168-A0F3-4A98-BB70-DDAB26A4D58F";
shapes = (
{
closed = 1;
nodes = (
(206,-230,l),
(925,1527,l),
(714,1610,l),
(-5,-147,l)
);
}
);
width = 920;
},
{
layerId = "95DC38C8-633C-4490-9AF5-01E2DA151EE8";
shapes = (
{
closed = 1;
nodes = (
(120,-230,l),
(872,1570,l),
(772,1610,l),
(20,-190,l)
);
}
);
width = 892;
}
);
unicode = 47;
},
{
glyphname = zero;
layers = (
{
layerId = "754C31AE-F388-4929-9E05-D72B02926026";
shapes = (
{
closed = 1;
nodes = (
(1009,-31,o),
(1196,332,o),
(1196,720,cs),
(1196,1108,o),
(1012,1470,o),
(617,1470,cs),
(224,1470,o),
(38,1107,o),
(38,720,cs),
(38,333,o),
(225,-31,o),
(617,-31,cs)
);
},
{
closed = 1;
nodes = (
(438,321,o),
(403,571,o),
(403,720,cs),
(403,987,o),
(510,1124,o),
(617,1125,cs),
(724,1126,o),
(831,992,o),
(831,720,cs),
(831,570,o),
(800,321,o),
(617,321,cs)
);
}
);
width = 1234;
},
{
layerId = "C851E168-A0F3-4A98-BB70-DDAB26A4D58F";
shapes = (
{
closed = 1;
nodes = (
(1004,-31,o),
(1171,368,o),
(1171,720,cs),
(1171,1073,o),
(1006,1470,o),
(617,1470,cs),
(229,1470,o),
(64,1072,o),
(64,720,cs),
(64,369,o),
(230,-31,o),
(617,-31,cs)
);
},
{
closed = 1;
nodes = (
(376,203,o),
(308,510,o),
(308,720,cs),
(308,1066,o),
(463,1242,o),
(617,1242,c),
(771,1243,o),
(925,1070,o),
(925,720,cs),
(925,520,o),
(868,203,o),
(617,203,cs)
);
}
);
width = 1234;
},
{
layerId = "95DC38C8-633C-4490-9AF5-01E2DA151EE8";
shapes = (
{
closed = 1;
nodes = (
(999,-31,o),
(1145,403,o),
(1145,720,cs),
(1145,1037,o),
(1000,1470,o),
(617,1470,cs),
(234,1470,o),
(89,1036,o),
(89,720,cs),
(89,404,o),
(235,-31,o),
(617,-31,cs)
);
},
{
closed = 1;
nodes = (
(314,84,o),
(214,449,o),
(214,720,cs),
(214,1144,o),
(415,1359,o),
(617,1359,cs),
(818,1359,o),
(1020,1147,o),
(1020,720,cs),
(1020,471,o),
(934,84,o),
(617,84,cs)
);
}
);
width = 1234;
}
);
leftKerningGroup = _plus2;
rightKerningGroup = _plus;
unicode = 48;
},
{
glyphname = one;
layers = (
{
layerId = "754C31AE-F388-4929-9E05-D72B02926026";
shapes = (
{
closed = 1;
nodes = (
(128,0,l),
(1180,0,l),
(1180,368,l),
(852,368,l),
(852,1440,l),
(810,1440,l),
(125,1194,l),
(227,868,l),
(496,969,l),
(496,368,l),
(128,368,l)
);
}
);
width = 1234;
},
{
layerId = "C851E168-A0F3-4A98-BB70-DDAB26A4D58F";
shapes = (
{
closed = 1;
nodes = (
(164,0,l),
(1140,0,l),
(1140,240,l),
(790,240,l),
(790,1440,l),
(747,1440,l),
(163,1218,l),
(231,1004,l),
(554,1133,l),
(554,240,l),
(164,240,l)
);
}
);
width = 1234;
},
{
layerId = "95DC38C8-633C-4490-9AF5-01E2DA151EE8";
shapes = (
{
closed = 1;
nodes = (
(200,0,l),
(1099,0,l),
(1099,111,l),
(727,111,l),
(727,1440,l),
(682,1440,l),
(200,1241,l),
(234,1140,l),
(613,1298,l),
(613,111,l),
(200,111,l)
);
}
);
width = 1234;
}
);
leftKerningGroup = _plus2;
rightKerningGroup = _plus;
unicode = 49;
},
{
glyphname = two;
layers = (
{
layerId = "754C31AE-F388-4929-9E05-D72B02926026";
shapes = (
{
closed = 1;
nodes = (
(723,1151,o),
(767,1095,o),
(767,992,cs),
(767,965,o),
(757,934,o),
(739,902,cs),
(631,698,o),
(236,395,o),
(100,297,c),
(100,0,l),
(1136,0,l),
(1136,329,l),
(668,329,l),
(828,428,o),
(1026,609,o),
(1108,804,cs),
(1133,862,o),
(1147,922,o),
(1147,981,cs),
(1147,1281,o),
(943,1470,o),
(617,1470,cs),
(353,1470,o),
(116,1286,o),
(46,1031,c),
(357,870,l),
(394,972,o),
(493,1151,o),
(617,1151,cs)
);
}
);
width = 1234;
},
{
layerId = "C851E168-A0F3-4A98-BB70-DDAB26A4D58F";
shapes = (
{
closed = 1;
nodes = (
(776,1259,o),
(859,1183,o),
(859,1047,cs),
(859,1011,o),
(851,972,o),
(838,934,cs),
(750,689,o),
(304,332,o),
(114,196,c),
(114,0,l),
(1098,0,l),
(1098,221,l),
(502,221,l),
(694,355,o),
(989,623,o),
(1079,876,cs),
(1098,928,o),
(1110,980,o),
(1110,1030,cs),
(1110,1307,o),
(928,1470,o),
(616,1470,cs),
(380,1470,o),
(160,1313,o),
(91,1086,c),
(304,984,l),
(346,1114,o),
(472,1259,o),
(616,1259,cs)
);
}
);
width = 1234;
},
{
layerId = "95DC38C8-633C-4490-9AF5-01E2DA151EE8";
shapes = (
{
closed = 1;
nodes = (
(830,1368,o),
(952,1272,o),
(952,1101,cs),
(952,1057,o),
(946,1012,o),
(935,968,cs),
(869,681,o),
(372,269,o),
(129,95,c),
(129,0,l),
(1060,0,l),
(1060,113,l),
(335,113,l),
(560,281,o),
(954,637,o),
(1051,949,cs),
(1065,994,o),
(1072,1038,o),
(1072,1080,cs),
(1072,1333,o),
(913,1470,o),
(615,1470,cs),
(408,1470,o),
(204,1341,o),
(137,1140,c),
(251,1099,l),
(299,1257,o),
(450,1368,o),
(615,1368,cs)
);
}
);
width = 1234;
}
);
leftKerningGroup = _two.tnum2;
rightKerningGroup = _two.tnum;
unicode = 50;
},
{
glyphname = three;
layers = (
{
layerId = "754C31AE-F388-4929-9E05-D72B02926026";
shapes = (
{
closed = 1;
nodes = (
(889,-31,o),
(1143,140,o),
(1143,430,cs),
(1143,626,o),
(1019,850,o),
(795,852,cs),
(793,852,o),
(791,852,o),
(789,852,c),
(1081,1134,l),
(1081,1440,l),
(138,1440,l),
(138,1109,l),
(638,1109,l),
(314,849,l),
(421,596,l),
(473,611,o),
(531,617,o),
(581,617,cs),
(685,617,o),
(778,572,o),
(778,463,cs),
(778,356,o),
(660,313,o),
(566,313,cs),
(431,313,o),
(304,361,o),
(231,453,c),
(114,139,l),
(213,24,o),
(446,-31,o),
(592,-31,cs)
);
}
);
width = 1234;
},
{
layerId = "C851E168-A0F3-4A98-BB70-DDAB26A4D58F";
shapes = (
{
closed = 1;
nodes = (
(890,-31,o),
(1105,168,o),
(1105,424,cs),
(1105,655,o),
(919,847,o),
(680,849,cs),
(665,849,o),
(652,846,o),
(638,846,c),
(1039,1235,l),
(1039,1440,l),
(139,1440,l),
(139,1219,l),
(741,1219,l),
(318,832,l),
(394,661,l),
(447,676,o),
(504,681,o),
(556,681,cs),
(717,681,o),
(863,614,o),
(863,441,cs),
(863,273,o),
(714,199,o),
(561,199,cs),
(424,199,o),
(292,244,o),
(207,326,c),
(123,117,l),
(229,17,o),
(434,-31,o),
(577,-31,cs)
);
}
);
width = 1234;
},
{
layerId = "95DC38C8-633C-4490-9AF5-01E2DA151EE8";
shapes = (
{
closed = 1;
nodes = (
(891,-31,o),
(1066,194,o),
(1066,417,cs),
(1066,684,o),
(820,845,o),
(564,845,cs),
(538,845,o),
(512,841,o),
(486,841,c),
(996,1336,l),
(996,1440,l),
(139,1440,l),
(139,1329,l),
(843,1329,l),
(321,816,l),
(366,727,l),
(422,739,o),
(477,745,o),
(532,745,cs),
(748,745,o),
(947,656,o),
(947,420,cs),
(947,189,o),
(766,84,o),
(554,84,cs),
(416,84,o),
(280,125,o),
(182,200,c),
(132,96,l),
(246,11,o),
(422,-31,o),
(561,-31,cs)
);
}
);
width = 1234;
}
);
leftKerningGroup = _plus2;
rightKerningGroup = _plus;
unicode = 51;
},
{
glyphname = four;
layers = (
{
layerId = "754C31AE-F388-4929-9E05-D72B02926026";
shapes = (
{
closed = 1;
nodes = (
(692,0,l),
(1012,0,l),
(1012,253,l),
(1183,253,l),
(1183,580,l),
(1012,580,l),
(1012,835,l),
(692,835,l),
(692,580,l),
(459,580,l),
(838,1440,l),
(456,1440,l),
(58,543,l),
(58,253,l),
(692,253,l)
);
}
);
width = 1234;
},
{
layerId = "C851E168-A0F3-4A98-BB70-DDAB26A4D58F";
shapes = (
{
closed = 1;
nodes = (
(757,0,l),
(971,0,l),
(971,287,l),
(1177,287,l),
(1177,506,l),
(971,506,l),
(971,813,l),
(757,813,l),
(757,506,l),
(346,506,l),
(810,1440,l),
(555,1440,l),
(81,483,l),
(81,287,l),
(757,287,l)
);
}
);
width = 1234;
},
{
layerId = "95DC38C8-633C-4490-9AF5-01E2DA151EE8";
shapes = (
{
closed = 1;
nodes = (
(822,0,l),
(929,0,l),
(929,321,l),
(1170,321,l),
(1170,432,l),
(929,432,l),
(929,790,l),
(822,790,l),
(822,432,l),
(231,432,l),
(782,1440,l),
(654,1440,l),
(105,424,l),
(105,321,l),
(822,321,l)
);
}
);
width = 1234;
}
);
leftKerningGroup = _plus2;
rightKerningGroup = _plus;
unicode = 52;
},
{
glyphname = five;
layers = (
{
layerId = "754C31AE-F388-4929-9E05-D72B02926026";
shapes = (
{
closed = 1;
nodes = (
(857,-31,o),
(1108,122,o),
(1108,450,cs),
(1108,769,o),
(892,924,o),
(615,924,cs),
(579,924,o),
(546,922,o),
(512,916,c),
(506,916,l),
(530,1084,l),
(1076,1084,l),
(1076,1436,l),
(262,1440,l),
(189,759,l),
(350,570,l),
(416,604,o),
(481,615,o),
(540,615,cs),
(637,615,o),
(747,587,o),
(747,471,cs),
(747,344,o),
(650,313,o),
(544,313,cs),
(411,313,o),
(295,349,o),
(209,444,c),
(101,129,l),
(223,16,o),
(406,-31,o),
(566,-31,cs)
);
}
);
width = 1234;
},
{
layerId = "C851E168-A0F3-4A98-BB70-DDAB26A4D58F";
shapes = (
{
closed = 1;
nodes = (
(856,-31,o),
(1091,130,o),
(1091,445,cs),
(1091,750,o),
(877,903,o),
(614,903,cs),
(554,903,o),
(498,895,o),
(435,874,c),
(428,874,l),
(467,1208,l),
(1057,1208,l),
(1057,1440,l),
(290,1440,l),
(218,759,l),
(323,641,l),
(404,680,o),
(484,695,o),
(557,695,cs),
(709,695,o),
(852,626,o),
(852,456,cs),
(852,273,o),
(717,199,o),
(557,199,cs),
(427,199,o),
(300,239,o),
(210,325,c),
(131,114,l),
(246,14,o),
(425,-31,o),
(571,-31,cs)
);
}
);
width = 1234;
},
{
layerId = "95DC38C8-633C-4490-9AF5-01E2DA151EE8";
shapes = (
{
closed = 1;
nodes = (
(854,-31,o),
(1075,137,o),
(1075,440,cs),
(1075,729,o),
(863,882,o),
(612,882,cs),
(530,882,o),
(448,867,o),
(357,831,c),
(350,831,l),
(403,1333,l),
(1039,1333,l),
(1039,1440,l),
(318,1440,l),
(247,759,l),
(295,711,l),
(393,756,o),
(488,775,o),
(574,775,cs),
(781,775,o),
(955,664,o),
(955,440,cs),
(955,201,o),
(783,84,o),
(570,84,cs),
(441,84,o),
(305,129,o),
(210,205,c),
(160,99,l),
(268,11,o),
(442,-31,o),
(576,-31,cs)
);
}
);
width = 1234;
}
);
leftKerningGroup = _plus2;
rightKerningGroup = _plus;
unicode = 53;
},
{
glyphname = six;
layers = (
{
layerId = "754C31AE-F388-4929-9E05-D72B02926026";
shapes = (
{
closed = 1;
nodes = (
(956,-31,o),
(1166,197,o),
(1166,477,cs),
(1166,750,o),
(990,949,o),
(724,949,cs),
(632,949,o),
(560,925,o),
(500,884,c),
(571,1053,o),
(768,1150,o),
(1059,1150,c),
(989,1470,l),
(410,1470,o),
(67,1070,o),
(67,595,cs),
(67,205,o),
(300,-31,o),
(625,-31,cs)
);
},
{
closed = 1;
nodes = (
(535,296,o),
(467,368,o),
(467,467,cs),
(467,558,o),
(528,637,o),
(625,637,cs),
(717,637,o),
(784,565,o),
(784,467,cs),
(784,368,o),
(717,296,o),
(625,296,cs)
);
}
);
width = 1234;
},
{
layerId = "C851E168-A0F3-4A98-BB70-DDAB26A4D58F";
shapes = (
{
closed = 1;
nodes = (
(947,-31,o),
(1155,190,o),
(1155,469,cs),
(1155,742,o),
(964,934,o),
(698,934,cs),
(562,934,o),
(448,875,o),
(374,781,c),
(429,1078,o),
(676,1255,o),
(1037,1255,c),
(992,1470,l),
(445,1470,o),
(97,1089,o),
(97,595,cs),
(97,197,o),
(320,-31,o),
(635,-31,cs)
);
},
{
closed = 1;
nodes = (
(481,191,o),
(370,302,o),
(370,455,cs),
(370,602,o),
(483,719,o),
(635,719,cs),
(785,719,o),
(902,605,o),
(902,455,cs),
(902,302,o),
(791,191,o),
(635,191,cs)
);
}
);
width = 1234;
},
{
layerId = "95DC38C8-633C-4490-9AF5-01E2DA151EE8";
shapes = (
{
closed = 1;
nodes = (
(938,-31,o),
(1145,183,o),
(1145,461,cs),
(1145,733,o),
(938,920,o),
(671,920,cs),
(491,920,o),
(334,825,o),
(249,676,c),
(285,1104,o),
(584,1359,o),
(1015,1359,c),
(995,1470,l),
(479,1470,o),
(125,1108,o),
(125,595,cs),
(125,191,o),
(339,-31,o),
(646,-31,cs)
);
},
{
closed = 1;
nodes = (
(428,87,o),
(273,235,o),
(273,444,cs),
(273,647,o),
(437,802,o),
(646,802,cs),
(854,802,o),
(1018,647,o),
(1018,444,cs),
(1018,235,o),
(864,87,o),
(646,87,cs)
);
}
);
width = 1234;
}
);
leftKerningGroup = _plus2;
rightKerningGroup = _plus;
unicode = 54;
},
{
glyphname = seven;
layers = (
{
layerId = "754C31AE-F388-4929-9E05-D72B02926026";
shapes = (
{
closed = 1;
nodes = (
(189,0,l),
(602,0,l),
(1129,1154,l),
(1129,1440,l),
(127,1440,l),
(127,1072,l),
(692,1072,l)
);
}
);
width = 1234;
},
{
layerId = "C851E168-A0F3-4A98-BB70-DDAB26A4D58F";
shapes = (
{
closed = 1;
nodes = (
(242,0,l),
(511,0,l),
(1088,1246,l),
(1088,1440,l),
(169,1440,l),
(169,1200,l),
(807,1200,l)
);
}
);
width = 1234;
},
{
layerId = "95DC38C8-633C-4490-9AF5-01E2DA151EE8";
shapes = (
{
closed = 1;
nodes = (
(294,0,l),
(420,0,l),
(1047,1337,l),
(1047,1440,l),
(210,1440,l),
(210,1329,l),
(922,1329,l)
);
}
);
width = 1234;
}
);
leftKerningGroup = _plus2;
rightKerningGroup = _plus;
unicode = 55;
},
{
glyphname = eight;
layers = (
{
layerId = "754C31AE-F388-4929-9E05-D72B02926026";
shapes = (
{
closed = 1;
nodes = (
(869,-31,o),
(1154,111,o),
(1154,401,cs),
(1154,558,o),
(1069,697,o),
(921,761,c),
(1040,820,o),
(1107,929,o),
(1107,1069,cs),
(1107,1335,o),
(861,1470,o),
(617,1470,cs),
(369,1470,o),
(131,1328,o),
(131,1069,cs),
(131,940,o),
(197,820,o),
(317,761,c),
(170,699,o),
(79,570,o),
(79,401,cs),
(79,104,o),
(337,-31,o),
(608,-31,cs)
);
},
{
closed = 1;
nodes = (
(513,284,o),
(438,357,o),
(438,451,cs),
(438,555,o),
(520,615,o),
(617,615,cs),
(721,615,o),
(796,557,o),
(796,450,cs),
(796,354,o),
(719,284,o),
(617,284,cs)
);
},
{
closed = 1;
nodes = (
(536,917,o),
(464,975,o),
(464,1061,cs),
(464,1144,o),
(533,1201,o),
(619,1201,cs),
(702,1201,o),
(774,1150,o),
(774,1061,cs),
(774,971,o),
(702,917,o),
(619,917,cs)
);
}
);
width = 1234;
},
{
layerId = "C851E168-A0F3-4A98-BB70-DDAB26A4D58F";
shapes = (
{
closed = 1;
nodes = (
(873,-31,o),
(1123,122,o),
(1123,401,cs),
(1123,566,o),
(1031,695,o),
(877,759,c),
(1003,814,o),
(1078,929,o),
(1078,1074,cs),
(1078,1330,o),
(857,1470,o),
(618,1470,cs),
(381,1470,o),
(160,1330,o),
(160,1074,cs),
(160,934,o),
(236,814,o),
(362,759,c),
(209,698,o),
(112,577,o),
(112,401,cs),
(112,113,o),
(358,-31,o),
(613,-31,cs)
);
},
{
closed = 1;
nodes = (
(472,184,o),
(351,271,o),
(351,421,cs),
(351,574,o),
(467,657,o),
(617,657,cs),
(765,657,o),
(883,579,o),
(883,420,cs),
(883,268,o),
(759,184,o),
(617,184,cs)
);
},
{
closed = 1;
nodes = (
(500,866,o),
(384,934,o),
(384,1068,cs),
(384,1201,o),
(494,1278,o),
(619,1278,cs),
(744,1278,o),
(854,1205,o),
(854,1068,cs),
(854,935,o),
(744,866,o),
(619,866,cs)
);
}
);
width = 1234;
},
{
layerId = "95DC38C8-633C-4490-9AF5-01E2DA151EE8";
shapes = (
{
closed = 1;
nodes = (
(876,-31,o),
(1090,133,o),
(1090,401,cs),
(1090,575,o),
(993,693,o),
(833,757,c),
(966,807,o),
(1049,929,o),
(1049,1079,cs),
(1049,1324,o),
(853,1470,o),
(618,1470,cs),
(394,1470,o),
(189,1332,o),
(189,1079,cs),
(189,929,o),
(274,807,o),
(406,757,c),
(248,697,o),
(144,583,o),
(144,401,cs),
(144,122,o),
(378,-31,o),
(617,-31,cs)
);
},
{
closed = 1;
nodes = (
(431,84,o),
(263,186,o),
(263,391,cs),
(263,592,o),
(413,699,o),
(617,699,cs),
(809,699,o),
(970,600,o),
(970,391,cs),
(970,182,o),
(799,84,o),
(617,84,cs)
);
},
{
closed = 1;
nodes = (
(463,814,o),
(304,894,o),
(304,1074,cs),
(304,1257,o),
(456,1355,o),
(619,1355,cs),
(786,1355,o),
(933,1259,o),
(933,1074,cs),
(933,900,o),
(785,814,o),
(619,814,cs)
);
}
);
width = 1234;
}
);
leftKerningGroup = _plus2;
rightKerningGroup = _plus;
unicode = 56;
},
{
glyphname = nine;
layers = (
{
layerId = "754C31AE-F388-4929-9E05-D72B02926026";
shapes = (
{
closed = 1;
nodes = (
(242,-31,l),
(813,-31,o),
(1158,377,o),
(1158,862,cs),
(1158,1239,o),
(929,1470,o),
(610,1470,cs),
(284,1470,o),
(79,1255,o),
(79,987,cs),
(79,713,o),
(250,515,o),
(511,515,cs),
(597,515,o),
(667,540,o),
(725,580,c),
(654,395,o),
(462,289,o),
(172,289,c)
);
},
{
closed = 1;
nodes = (
(522,827,o),
(461,893,o),
(461,986,cs),
(461,1075,o),
(522,1143,o),
(609,1143,cs),
(694,1143,o),
(758,1076,o),
(758,986,cs),
(758,900,o),
(699,827,o),
(609,827,cs)
);
}
);
width = 1234;
},
{
layerId = "C851E168-A0F3-4A98-BB70-DDAB26A4D58F";
shapes = (
{
closed = 1;
nodes = (
(241,-31,l),
(797,-31,o),
(1129,374,o),
(1129,862,cs),
(1129,1247,o),
(910,1470,o),
(600,1470,cs),
(294,1470,o),
(90,1261,o),
(90,994,cs),
(90,723,o),
(278,529,o),
(538,529,cs),
(669,529,o),
(780,588,o),
(850,683,c),
(800,403,o),
(582,185,o),
(195,185,c)
);
},
{
closed = 1;
nodes = (
(454,744,o),
(344,852,o),
(344,996,cs),
(344,1142,o),
(450,1248,o),
(599,1248,cs),
(747,1248,o),
(854,1142,o),
(854,996,cs),
(854,856,o),
(745,744,o),
(599,744,cs)
);
}
);
width = 1234;
},
{
layerId = "95DC38C8-633C-4490-9AF5-01E2DA151EE8";
shapes = (
{
closed = 1;
nodes = (
(240,-31,l),
(781,-31,o),
(1099,370,o),
(1099,860,cs),
(1099,1253,o),
(889,1470,o),
(590,1470,cs),
(303,1470,o),
(101,1266,o),
(101,1001,cs),
(101,730,o),
(305,542,o),
(563,542,cs),
(740,542,o),
(893,636,o),
(976,785,c),
(947,409,o),
(701,80,o),
(219,80,c)
);
},
{
closed = 1;
nodes = (
(387,660,o),
(228,810,o),
(228,1006,cs),
(228,1208,o),
(378,1352,o),
(589,1352,cs),
(800,1352,o),
(951,1208,o),
(951,1006,cs),
(951,811,o),
(792,660,o),
(589,660,cs)
);
}
);
width = 1234;
}
);
leftKerningGroup = _plus2;
rightKerningGroup = _plus;
unicode = 57;
},
{
glyphname = less;
layers = (
{
layerId = "754C31AE-F388-4929-9E05-D72B02926026";
shapes = (
{
closed = 1;
nodes = (
(1134,1186,l),
(68,764,l),
(68,494,l),
(1136,72,l),
(1236,328,l),
(488,630,l),
(1236,930,l)
);
}
);
width = 1296;
},
{
layerId = "C851E168-A0F3-4A98-BB70-DDAB26A4D58F";
shapes = (
{
closed = 1;
nodes = (
(1110,1135,l),
(124,739,l),
(124,558,l),
(1111,160,l),
(1182,339,l),
(411,649,l),
(1182,956,l)
);
}
);
width = 1296;
},
{
layerId = "95DC38C8-633C-4490-9AF5-01E2DA151EE8";
shapes = (
{
closed = 1;
nodes = (
(1086,1084,l),
(180,714,l),
(180,622,l),
(1086,248,l),
(1128,350,l),
(334,668,l),
(1128,982,l)
);
}
);
width = 1296;
}
);
leftKerningGroup = _plus2;
rightKerningGroup = _plus;
unicode = 60;
},
{
glyphname = equal;
layers = (
{
layerId = "754C31AE-F388-4929-9E05-D72B02926026";
shapes = (
{
closed = 1;
nodes = (
(68,782,l),
(1228,782,l),
(1228,1050,l),
(68,1050,l)
);
},
{
closed = 1;
nodes = (
(68,290,l),
(1228,290,l),
(1228,558,l),
(68,558,l)
);
}
);
width = 1296;
},
{
layerId = "C851E168-A0F3-4A98-BB70-DDAB26A4D58F";
shapes = (
{
closed = 1;
nodes = (
(124,778,l),
(1172,778,l),
(1172,960,l),
(124,960,l)
);
},
{
closed = 1;
nodes = (
(124,370,l),
(1172,370,l),
(1172,552,l),
(124,552,l)
);
}
);
width = 1296;
},
{
layerId = "95DC38C8-633C-4490-9AF5-01E2DA151EE8";
shapes = (
{
closed = 1;
nodes = (
(180,774,l),
(1116,774,l),
(1116,870,l),
(180,870,l)
);
},
{
closed = 1;
nodes = (
(180,450,l),
(1116,450,l),
(1116,546,l),
(180,546,l)
);
}
);
width = 1296;
}
);
leftKerningGroup = _plus2;
rightKerningGroup = _plus;
unicode = 61;
},
{
glyphname = greater;
layers = (
{
layerId = "754C31AE-F388-4929-9E05-D72B02926026";
shapes = (
{
closed = 1;
nodes = (
(162,72,l),
(1228,494,l),
(1228,764,l),
(160,1186,l),
(60,930,l),
(808,628,l),
(60,328,l)
);
}
);
width = 1296;
},
{
layerId = "C851E168-A0F3-4A98-BB70-DDAB26A4D58F";
shapes = (
{
closed = 1;
nodes = (
(186,160,l),
(1172,556,l),
(1172,737,l),
(185,1135,l),
(114,956,l),
(885,646,l),
(114,339,l)
);
}
);
width = 1296;
},
{
layerId = "95DC38C8-633C-4490-9AF5-01E2DA151EE8";
shapes = (
{
closed = 1;
nodes = (
(210,248,l),
(1116,618,l),
(1116,710,l),
(210,1084,l),
(168,982,l),
(962,664,l),
(168,350,l)
);
}
);
width = 1296;
}
);
leftKerningGroup = _plus2;
rightKerningGroup = _plus;
unicode = 62;
},
{
glyphname = question;
layers = (
{
guides = (
{
position = "{0, 1400}";
}
);
layerId = "754C31AE-F388-4929-9E05-D72B02926026";
shapes = (
{
closed = 1;
nodes = (
(677,553,l),
(598,612,o),
(582,639,o),
(582,673,cs),
(582,696,o),
(585,717,o),
(600,727,cs),
(712,801,ls),
(821,873,o),
(978,929,o),
(978,1113,cs),
(978,1360,o),
(704,1470,o),
(500,1470,cs),
(379,1470,o),
(133,1431,o),
(60,1354,c),
(134,1030,l),
(218,1073,o),
(286,1104,o),
(385,1104,cs),
(441,1104,o),
(492,1094,o),
(492,1033,cs),
(492,1003,o),
(483,978,o),
(461,963,cs),
(383,909,ls),
(313,860,o),
(227,815,o),
(227,699,cs),
(227,629,o),
(257,576,o),
(412,495,c)
);
},
{
closed = 1;
nodes = (
(596,-30,o),
(700,61,o),
(700,195,cs),
(700,328,o),
(598,416,o),
(465,416,cs),
(335,416,o),
(232,331,o),
(232,195,cs),
(232,58,o),
(335,-30,o),
(464,-30,cs)
);
}
);
width = 1052;
},
{
guides = (
{
position = "{0, 1400}";
}
);
layerId = "C851E168-A0F3-4A98-BB70-DDAB26A4D58F";
shapes = (
{
closed = 1;
nodes = (
(598,490,l),
(531,541,o),
(484,582,o),
(484,638,cs),
(484,670,o),
(500,694,o),
(545,723,cs),
(653,792,ls),
(801,887,o),
(919,971,o),
(919,1128,cs),
(919,1365,o),
(668,1470,o),
(455,1470,cs),
(334,1470,o),
(157,1436,o),
(69,1356,c),
(130,1157,l),
(211,1218,o),
(303,1245,o),
(405,1245,cs),
(518,1245,o),
(613,1210,o),
(613,1087,cs),
(613,1032,o),
(569,983,o),
(502,940,cs),
(417,885,ls),
(312,817,o),
(240,757,o),
(240,657,cs),
(240,565,o),
(305,503,o),
(414,443,c)
);
},
{
closed = 1;
nodes = (
(529,-30,o),
(602,33,o),
(602,127,cs),
(602,221,o),
(530,282,o),
(437,282,cs),
(346,282,o),
(274,222,o),
(274,128,cs),
(274,33,o),
(347,-30,o),
(438,-30,cs)
);
}
);
width = 995;
},
{
layerId = "95DC38C8-633C-4490-9AF5-01E2DA151EE8";
shapes = (
{
closed = 1;
nodes = (
(496,410,l),
(445,449,o),
(358,508,o),
(358,592,cs),
(358,636,o),
(390,672,o),
(475,725,cs),
(576,788,ls),
(776,913,o),
(860,1016,o),
(860,1139,cs),
(860,1368,o),
(640,1470,o),
(420,1470,cs),
(299,1470,o),
(175,1439,o),
(76,1358,c),
(126,1262,l),
(205,1337,o),
(317,1360,o),
(420,1360,cs),
(577,1360,o),
(736,1300,o),
(736,1129,cs),
(736,1042,o),
(681,969,o),
(554,893,cs),
(461,837,ls),
(310,746,o),
(256,682,o),
(256,604,cs),
(256,482,o),
(366,410,o),
(416,377,c)
);
},
{
closed = 1;
nodes = (
(477,-30,o),
(526,11,o),
(526,74,cs),
(526,137,o),
(477,178,o),
(416,178,cs),
(355,178,o),
(306,137,o),
(306,76,cs),
(306,14,o),
(357,-30,o),
(418,-30,cs)
);
}
);
width = 950;
}
);
unicode = 63;
},
{
glyphname = at;
layers = (
{
layerId = "754C31AE-F388-4929-9E05-D72B02926026";
shapes = (
{
closed = 1;
nodes = (
(996,-234,o),
(1123,-208,o),
(1248,-156,cs),
(1308,-131,o),
(1365,-100,o),
(1418,-64,c),
(1338,116,l),
(1246,48,o),
(1142,2,o),
(1029,-21,cs),
(969,-34,o),
(913,-40,o),
(852,-40,cs),
(739,-40,o),
(640,-17,o),
(552,26,cs),
(464,70,o),
(399,129,o),
(351,209,c),
(302,286,o),
(278,376,o),
(278,480,cs),
(278,648,o),
(338,787,o),
(446,891,cs),
(554,996,o),
(696,1054,o),
(868,1054,cs),
(977,1054,o),
(1068,1035,o),
(1152,994,cs),
(1232,954,o),
(1295,898,o),
(1342,826,cs),
(1387,754,o),
(1410,673,o),
(1410,576,cs),
(1410,476,o),
(1388,407,o),
(1345,374,c),
(1321,354,o),
(1296,346,o),
(1264,346,cs),
(1235,346,o),
(1213,354,o),
(1197,374,cs),
(1184,391,o),
(1175,415,o),
(1178,450,c),
(1200,840,l),
(1014,840,l),
(1012,788,l),
(948,841,o),
(882,866,o),
(802,866,cs),
(730,866,o),
(671,851,o),
(615,818,cs),
(559,785,o),
(519,741,o),
(488,685,cs),
(456,629,o),
(440,564,o),
(440,492,cs),
(440,359,o),
(500,257,o),
(600,197,c),
(652,169,o),
(706,154,o),
(774,154,cs),
(875,154,o),
(946,186,o),
(1018,262,c),
(1062,193,o),
(1140,154,o),
(1244,154,cs),
(1313,154,o),
(1375,172,o),
(1432,211,c),
(1492,250,o),
(1535,300,o),
(1568,364,cs),
(1601,429,o),
(1618,499,o),
(1618,576,cs),
(1618,709,o),
(1589,823,o),
(1525,924,cs),
(1460,1024,o),
(1375,1102,o),
(1262,1159,cs),
(1149,1215,o),
(1023,1242,o),
(874,1242,cs),
(642,1242,o),
(444,1165,o),
(299,1028,cs),
(154,891,o),
(70,706,o),
(70,486,cs),
(70,345,o),
(102,220,o),
(170,112,cs),
(239,4,o),
(327,-82,o),
(447,-142,c),
(567,-206,o),
(700,-234,o),
(856,-234,cs)
);
},
{
closed = 1;
nodes = (
(732,366,o),
(688,414,o),
(688,490,cs),
(688,539,o),
(701,579,o),
(728,608,c),
(752,637,o),
(785,652,o),
(828,652,cs),
(900,652,o),
(942,609,o),
(942,528,cs),
(942,479,o),
(929,440,o),
(905,411,c),
(878,382,o),
(843,366,o),
(800,366,cs)
);
}
);
width = 1688;
},
{
layerId = "C851E168-A0F3-4A98-BB70-DDAB26A4D58F";
shapes = (
{
closed = 1;
nodes = (
(1001,-234,o),
(1134,-208,o),
(1257,-158,cs),
(1317,-134,o),
(1369,-104,o),
(1415,-71,c),
(1355,59,l),
(1275,-5,o),
(1168,-51,o),
(1049,-75,c),
(986,-89,o),
(928,-94,o),
(865,-94,cs),
(742,-94,o),
(635,-69,o),
(539,-21,c),
(445,29,o),
(374,95,o),
(322,184,c),
(267,270,o),
(242,369,o),
(242,485,cs),
(242,665,o),
(308,816,o),
(424,928,cs),
(541,1043,o),
(693,1105,o),
(877,1105,cs),
(996,1105,o),
(1094,1084,o),
(1185,1038,cs),
(1273,994,o),
(1340,931,o),
(1391,851,c),
(1440,771,o),
(1465,681,o),
(1465,574,cs),
(1465,454,o),
(1432,364,o),
(1375,318,c),
(1345,292,o),
(1313,280,o),
(1275,280,cs),
(1233,280,o),
(1205,291,o),
(1187,316,cs),
(1172,338,o),
(1163,373,o),
(1166,422,cs),
(1189,852,l),
(1046,852,l),
(1043,780,l),
(979,847,o),
(908,878,o),
(817,878,cs),
(749,878,o),
(690,862,o),
(635,827,cs),
(581,793,o),
(540,747,o),
(509,688,c),
(476,630,o),
(460,564,o),
(460,490,cs),
(460,355,o),
(519,251,o),
(615,188,c),
(665,160,o),
(716,143,o),
(780,143,cs),
(895,143,o),
(982,187,o),
(1044,273,c),
(1074,192,o),
(1146,143,o),
(1258,143,cs),
(1325,143,o),
(1384,161,o),
(1438,200,cs),
(1494,239,o),
(1537,289,o),
(1568,355,cs),
(1600,422,o),
(1616,494,o),
(1616,575,cs),
(1616,708,o),
(1586,821,o),
(1524,924,c),
(1459,1024,o),
(1374,1102,o),
(1263,1159,cs),
(1153,1215,o),
(1027,1242,o),
(880,1242,cs),
(653,1242,o),
(459,1165,o),
(316,1028,cs),
(173,891,o),
(91,705,o),
(91,485,cs),
(91,343,o),
(122,219,o),
(188,111,cs),
(255,3,o),
(342,-83,o),
(458,-143,cs),
(575,-205,o),
(707,-234,o),
(859,-234,cs)
);
},
{
closed = 1;
nodes = (
(697,297,o),
(636,366,o),
(636,487,cs),
(636,560,o),
(655,618,o),
(691,660,c),
(725,703,o),
(773,723,o),
(834,723,cs),
(943,723,o),
(1001,659,o),
(1001,535,cs),
(1001,461,o),
(984,404,o),
(950,362,cs),
(914,319,o),
(865,297,o),
(803,297,cs)
);
}
);
width = 1707;
},
{
layerId = "95DC38C8-633C-4490-9AF5-01E2DA151EE8";
shapes = (
{
closed = 1;
nodes = (
(1006,-234,o),
(1144,-207,o),
(1265,-159,cs),
(1325,-136,o),
(1372,-107,o),
(1412,-78,c),
(1372,2,l),
(1304,-58,o),
(1193,-104,o),
(1068,-128,c),
(1003,-143,o),
(943,-148,o),
(878,-148,cs),
(745,-148,o),
(630,-120,o),
(526,-68,c),
(425,-12,o),
(348,61,o),
(292,158,c),
(232,254,o),
(206,361,o),
(206,490,cs),
(206,682,o),
(277,844,o),
(402,965,cs),
(527,1089,o),
(690,1156,o),
(886,1156,cs),
(1014,1156,o),
(1120,1133,o),
(1217,1082,cs),
(1313,1033,o),
(1384,964,o),
(1440,876,c),
(1493,788,o),
(1520,689,o),
(1520,572,cs),
(1520,431,o),
(1476,321,o),
(1404,261,c),
(1368,229,o),
(1330,214,o),
(1286,214,cs),
(1230,214,o),
(1197,228,o),
(1177,257,c),
(1160,285,o),
(1151,330,o),
(1154,394,cs),
(1178,864,l),
(1078,864,l),
(1074,772,l),
(1010,853,o),
(933,890,o),
(832,890,cs),
(767,890,o),
(708,873,o),
(655,836,cs),
(602,800,o),
(560,752,o),
(529,691,c),
(496,631,o),
(480,564,o),
(480,488,cs),
(480,351,o),
(538,244,o),
(630,179,c),
(678,150,o),
(726,132,o),
(786,132,cs),
(914,132,o),
(1018,188,o),
(1070,284,c),
(1085,191,o),
(1151,132,o),
(1272,132,cs),
(1336,132,o),
(1392,150,o),
(1444,189,cs),
(1496,228,o),
(1539,278,o),
(1568,346,cs),
(1599,415,o),
(1614,489,o),
(1614,574,cs),
(1614,707,o),
(1583,819,o),
(1522,923,c),
(1458,1023,o),
(1373,1101,o),
(1264,1158,cs),
(1156,1214,o),
(1031,1242,o),
(886,1242,cs),
(663,1242,o),
(474,1164,o),
(333,1027,cs),
(192,890,o),
(112,704,o),
(112,484,cs),
(112,340,o),
(142,217,o),
(206,109,cs),
(271,1,o),
(356,-83,o),
(469,-143,cs),
(582,-204,o),
(713,-234,o),
(862,-234,cs)
);
},
{
closed = 1;
nodes = (
(661,228,o),
(584,317,o),
(584,484,cs),
(584,581,o),
(608,656,o),
(653,712,cs),
(697,768,o),
(760,794,o),
(840,794,cs),
(985,794,o),
(1060,709,o),
(1060,542,cs),
(1060,442,o),
(1038,368,o),
(994,312,cs),
(949,256,o),
(886,228,o),
(806,228,cs)
);
}
);
width = 1726;
}
);
rightKerningGroup = _at;
unicode = 64;
},
{
glyphname = A;
layers = (
{
layerId = "754C31AE-F388-4929-9E05-D72B02926026";
shapes = (
{
closed = 1;
nodes = (
(0,0,l),
(457,0,l),
(537,257,l),
(991,257,l),
(1072,0,l),
(1541,0,l),
(1018,1440,l),
(525,1440,l)
);
},
{
closed = 1;
nodes = (
(625,601,l),
(765,1012,l),
(901,601,l)
);
}
);
width = 1541;
},
{
layerId = "C851E168-A0F3-4A98-BB70-DDAB26A4D58F";
shapes = (
{
closed = 1;
nodes = (
(19,0,l),
(312,0,l),
(430,326,l),
(1009,326,l),
(1131,0,l),
(1433,0,l),
(869,1440,l),
(571,1440,l)
);
},
{
closed = 1;
nodes = (
(496,553,l),
(715,1138,l),
(941,553,l)
);
}
);
width = 1451;
},
{
layerId = "95DC38C8-633C-4490-9AF5-01E2DA151EE8";
shapes = (
{
closed = 1;
nodes = (
(37,0,l),
(167,0,l),
(323,395,l),
(1026,395,l),
(1191,0,l),
(1325,0,l),
(720,1440,l),
(617,1440,l)
);
},
{
closed = 1;
nodes = (
(366,506,l),
(664,1263,l),
(981,506,l)
);
}
);
width = 1362;
}
);
leftKerningGroup = _A2;
rightKerningGroup = _A;
unicode = 65;
},
{
glyphname = B;
layers = (
{
layerId = "754C31AE-F388-4929-9E05-D72B02926026";
shapes = (
{
closed = 1;
nodes = (
(160,0,l),
(767,0,ls),
(999,0,o),
(1163,71,o),
(1254,203,c),
(1298,269,o),
(1321,344,o),
(1321,434,cs),
(1321,520,o),
(1299,591,o),
(1255,657,c),
(1208,723,o),
(1150,768,o),
(1072,796,c),
(1110,816,o),
(1143,839,o),
(1170,867,cs),
(1198,895,o),
(1221,923,o),
(1236,959,c),
(1250,995,o),
(1259,1032,o),
(1259,1074,cs),
(1259,1197,o),
(1215,1287,o),
(1124,1348,cs),
(1034,1410,o),
(917,1440,o),
(761,1440,cs),
(160,1440,l)
);
},
{
closed = 1;
nodes = (
(576,298,l),
(576,590,l),
(732,590,ls),
(832,590,o),
(887,535,o),
(887,444,cs),
(887,350,o),
(830,298,o),
(712,298,cs)
);
},
{
closed = 1;
nodes = (
(576,866,l),
(576,1142,l),
(701,1142,ls),
(804,1142,o),
(858,1092,o),
(858,1006,cs),
(858,947,o),
(834,904,o),
(789,882,c),
(767,871,o),
(739,866,o),
(708,866,cs)
);
}
);
width = 1393;
},
{
layerId = "C851E168-A0F3-4A98-BB70-DDAB26A4D58F";
shapes = (
{
closed = 1;
nodes = (
(183,0,l),
(718,0,ls),
(929,0,o),
(1078,73,o),
(1160,196,c),
(1200,261,o),
(1221,328,o),
(1221,410,cs),
(1221,503,o),
(1197,580,o),
(1147,644,cs),
(1094,710,o),
(1032,753,o),
(951,777,c),
(990,792,o),
(1025,816,o),
(1058,846,cs),
(1091,876,o),
(1118,909,o),
(1139,949,c),
(1157,990,o),
(1167,1031,o),
(1167,1076,cs),
(1167,1198,o),
(1125,1287,o),
(1039,1348,cs),
(952,1410,o),
(843,1440,o),
(698,1440,cs),
(183,1440,l)
);
},
{
closed = 1;
nodes = (
(450,205,l),
(450,640,l),
(677,640,ls),
(859,640,o),
(944,563,o),
(944,421,cs),
(944,276,o),
(859,205,o),
(676,205,cs)
);
},
{
closed = 1;
nodes = (
(450,833,l),
(450,1235,l),
(655,1235,ls),
(820,1235,o),
(907,1167,o),
(907,1041,cs),
(907,953,o),
(866,891,o),
(791,858,cs),
(755,841,o),
(711,833,o),
(659,833,cs)
);
}
);
width = 1324;
},
{
layerId = "95DC38C8-633C-4490-9AF5-01E2DA151EE8";
shapes = (
{
closed = 1;
nodes = (
(206,0,l),
(669,0,ls),
(858,0,o),
(993,74,o),
(1067,190,c),
(1103,252,o),
(1121,313,o),
(1121,387,cs),
(1121,485,o),
(1095,568,o),
(1038,630,cs),
(979,696,o),
(913,736,o),
(831,757,c),
(871,768,o),
(907,792,o),
(945,825,cs),
(983,858,o),
(1014,896,o),
(1040,940,c),
(1063,985,o),
(1076,1030,o),
(1076,1078,cs),
(1076,1198,o),
(1036,1287,o),
(953,1348,cs),
(871,1410,o),
(768,1440,o),
(636,1440,cs),
(206,1440,l)
);
},
{
closed = 1;
nodes = (
(325,111,l),
(325,689,l),
(621,689,ls),
(885,689,o),
(1002,589,o),
(1002,397,cs),
(1002,201,o),
(888,111,o),
(640,111,cs)
);
},
{
closed = 1;
nodes = (
(325,800,l),
(325,1329,l),
(609,1329,ls),
(834,1329,o),
(957,1241,o),
(957,1076,cs),
(957,960,o),
(897,877,o),
(793,833,cs),
(743,811,o),
(681,800,o),
(611,800,cs)
);
}
);
width = 1255;
}
);
leftKerningGroup = _B2;
rightKerningGroup = _B;
unicode = 66;
},
{
glyphname = C;
layers = (
{
layerId = "754C31AE-F388-4929-9E05-D72B02926026";
shapes = (
{
closed = 1;
nodes = (
(970,-31,o),
(1080,-13,o),
(1175,19,cs),
(1271,52,o),
(1349,93,o),
(1415,142,c),
(1225,489,l),
(1114,411,o),
(992,374,o),
(872,374,cs),
(719,374,o),
(609,432,o),
(551,536,cs),
(523,586,o),
(508,646,o),
(508,720,cs),
(508,827,o),
(540,911,o),
(602,972,cs),
(664,1034,o),
(751,1065,o),
(868,1065,cs),
(1000,1065,o),
(1106,1027,o),
(1180,944,c),
(1384,1285,l),
(1314,1344,o),
(1239,1390,o),
(1156,1423,c),
(1074,1453,o),
(969,1470,o),
(841,1470,cs),
(616,1470,o),
(429,1397,o),
(289,1260,cs),
(149,1124,o),
(72,941,o),
(72,713,cs),
(72,560,o),
(104,430,o),
(171,319,c),
(236,204,o),
(323,122,o),
(439,60,cs),
(555,-2,o),
(686,-31,o),
(835,-31,cs)
);
}
);
width = 1445;
},
{
layerId = "C851E168-A0F3-4A98-BB70-DDAB26A4D58F";
shapes = (
{
closed = 1;
nodes = (
(960,-31,o),
(1059,-15,o),
(1149,13,cs),
(1241,44,o),
(1317,84,o),
(1387,138,c),
(1263,363,l),
(1146,270,o),
(1016,229,o),
(873,229,cs),
(667,229,o),
(515,308,o),
(434,457,cs),
(395,529,o),
(373,616,o),
(373,721,cs),
(373,874,o),
(419,994,o),
(507,1080,c),
(591,1167,o),
(711,1211,o),
(864,1211,cs),
(1008,1211,o),
(1126,1173,o),
(1212,1088,c),
(1349,1307,l),
(1287,1359,o),
(1217,1399,o),
(1137,1429,c),
(1056,1456,o),
(959,1470,o),
(845,1470,cs),
(625,1470,o),
(442,1397,o),
(305,1260,cs),
(170,1122,o),
(94,942,o),
(94,718,cs),
(94,565,o),
(124,437,o),
(189,324,c),
(253,208,o),
(337,126,o),
(450,62,c),
(564,0,o),
(693,-31,o),
(842,-31,cs)
);
}
);
width = 1438;
},
{
layerId = "95DC38C8-633C-4490-9AF5-01E2DA151EE8";
shapes = (
{
closed = 1;
nodes = (
(949,-31,o),
(1037,-16,o),
(1124,8,c),
(1210,36,o),
(1285,76,o),
(1359,134,c),
(1301,236,l),
(1177,130,o),
(1038,84,o),
(874,84,cs),
(615,84,o),
(420,184,o),
(317,378,cs),
(266,473,o),
(238,585,o),
(238,722,cs),
(238,920,o),
(299,1076,o),
(410,1187,cs),
(518,1298,o),
(670,1357,o),
(859,1357,cs),
(1017,1357,o),
(1145,1319,o),
(1244,1232,c),
(1314,1328,l),
(1260,1373,o),
(1195,1408,o),
(1116,1434,c),
(1037,1458,o),
(948,1470,o),
(849,1470,cs),
(634,1470,o),
(454,1396,o),
(322,1259,cs),
(189,1119,o),
(115,943,o),
(115,722,cs),
(115,570,o),
(144,443,o),
(207,328,cs),
(268,212,o),
(351,130,o),
(462,64,c),
(574,2,o),
(700,-31,o),
(849,-31,cs)
);
}
);
width = 1431;
}
);
leftKerningGroup = _C2;
rightKerningGroup = _C;
unicode = 67;
},
{
glyphname = D;
layers = (
{
layerId = "754C31AE-F388-4929-9E05-D72B02926026";
shapes = (
{
closed = 1;
nodes = (
(160,0,l),
(683,0,ls),
(917,0,o),
(1104,71,o),
(1240,200,cs),
(1377,327,o),
(1450,502,o),
(1450,720,cs),
(1450,865,o),
(1420,989,o),
(1355,1096,cs),
(1289,1204,o),
(1203,1288,o),
(1087,1349,cs),
(968,1411,o),
(836,1440,o),
(683,1440,cs),
(160,1440,l)
);
},
{
closed = 1;
nodes = (
(576,387,l),
(576,1053,l),
(673,1053,ls),
(809,1053,o),
(913,1007,o),
(972,908,c),
(1000,858,o),
(1014,798,o),
(1014,720,cs),
(1014,608,o),
(981,527,o),
(919,469,c),
(858,414,o),
(777,387,o),
(673,387,cs)
);
}
);
width = 1522;
},
{
layerId = "C851E168-A0F3-4A98-BB70-DDAB26A4D58F";
shapes = (
{
closed = 1;
nodes = (
(183,0,l),
(648,0,ls),
(869,0,o),
(1048,74,o),
(1181,203,cs),
(1313,330,o),
(1385,505,o),
(1385,719,cs),
(1385,862,o),
(1356,987,o),
(1292,1094,cs),
(1228,1202,o),
(1145,1287,o),
(1034,1348,cs),
(919,1410,o),
(793,1440,o),
(648,1440,cs),
(183,1440,l)
);
},
{
closed = 1;
nodes = (
(450,249,l),
(450,1191,l),
(623,1191,ls),
(820,1191,o),
(966,1117,o),
(1047,975,c),
(1086,902,o),
(1106,821,o),
(1106,719,cs),
(1106,571,o),
(1059,457,o),
(973,374,cs),
(887,293,o),
(771,249,o),
(623,249,cs)
);
}
);
width = 1479;
},
{
layerId = "95DC38C8-633C-4490-9AF5-01E2DA151EE8";
shapes = (
{
closed = 1;
nodes = (
(206,0,l),
(613,0,ls),
(820,0,o),
(993,76,o),
(1121,205,cs),
(1250,333,o),
(1321,508,o),
(1321,718,cs),
(1321,859,o),
(1291,984,o),
(1229,1092,cs),
(1167,1200,o),
(1086,1286,o),
(979,1347,cs),
(871,1409,o),
(750,1440,o),
(613,1440,cs),
(206,1440,l)
);
},
{
closed = 1;
nodes = (
(325,111,l),
(325,1329,l),
(574,1329,ls),
(829,1329,o),
(1017,1226,o),
(1121,1041,c),
(1171,946,o),
(1197,842,o),
(1197,718,cs),
(1197,533,o),
(1138,386,o),
(1026,279,cs),
(915,171,o),
(766,111,o),
(574,111,cs)
);
}
);
width = 1436;
}
);
leftKerningGroup = _B2;
rightKerningGroup = _D;
unicode = 68;
},
{
glyphname = E;
layers = (
{
layerId = "754C31AE-F388-4929-9E05-D72B02926026";
shapes = (
{
closed = 1;
nodes = (
(160,0,l),
(1236,0,l),
(1236,362,l),
(576,362,l),
(576,568,l),
(1111,568,l),
(1111,895,l),
(576,895,l),
(576,1082,l),
(1228,1082,l),
(1228,1440,l),
(160,1440,l)
);
}
);
width = 1343;
},
{
layerId = "C851E168-A0F3-4A98-BB70-DDAB26A4D58F";
shapes = (
{
closed = 1;
nodes = (
(183,0,l),
(1148,0,l),
(1148,237,l),
(450,237,l),
(450,638,l),
(1041,638,l),
(1041,857,l),
(450,857,l),
(450,1205,l),
(1141,1205,l),
(1141,1440,l),
(183,1440,l)
);
}
);
width = 1278;
},
{
layerId = "95DC38C8-633C-4490-9AF5-01E2DA151EE8";
shapes = (
{
closed = 1;
nodes = (
(206,0,l),
(1059,0,l),
(1059,111,l),
(325,111,l),
(325,708,l),
(971,708,l),
(971,819,l),
(325,819,l),
(325,1329,l),
(1053,1329,l),
(1053,1440,l),
(206,1440,l)
);
}
);
width = 1214;
}
);
leftKerningGroup = _B2;
rightKerningGroup = _E;
unicode = 69;
},
{
glyphname = F;
layers = (
{
layerId = "754C31AE-F388-4929-9E05-D72B02926026";
shapes = (
{
closed = 1;
nodes = (
(160,0,l),
(576,0,l),
(576,479,l),
(1084,479,l),
(1084,841,l),
(576,841,l),
(576,1061,l),
(1148,1061,l),
(1148,1440,l),
(160,1440,l)
);
}
);
width = 1251;
},
{
layerId = "C851E168-A0F3-4A98-BB70-DDAB26A4D58F";
shapes = (
{
closed = 1;
nodes = (
(183,0,l),
(450,0,l),
(450,583,l),
(1030,583,l),
(1030,820,l),
(450,820,l),
(450,1195,l),
(1092,1195,l),
(1092,1440,l),
(183,1440,l)
);
}
);
width = 1207;
},
{
layerId = "95DC38C8-633C-4490-9AF5-01E2DA151EE8";
shapes = (
{
closed = 1;
nodes = (
(206,0,l),
(325,0,l),
(325,687,l),
(975,687,l),
(975,798,l),
(325,798,l),
(325,1329,l),
(1037,1329,l),
(1037,1440,l),
(206,1440,l)
);
}
);
width = 1164;
}
);
leftKerningGroup = _B2;
rightKerningGroup = _F;
unicode = 70;
},
{
glyphname = G;
layers = (
{
layerId = "754C31AE-F388-4929-9E05-D72B02926026";
shapes = (
{
closed = 1;
nodes = (
(946,-31,o),
(1001,-26,o),
(1067,-16,cs),
(1130,-8,o),
(1191,7,o),
(1253,24,c),
(1315,43,o),
(1369,63,o),
(1415,86,c),
(1415,861,l),
(781,861,l),
(781,537,l),
(1055,537,l),
(1055,343,l),
(1009,335,o),
(959,327,o),
(915,327,cs),
(766,327,o),
(635,381,o),
(557,498,cs),
(519,555,o),
(500,628,o),
(500,715,cs),
(500,839,o),
(537,930,o),
(607,996,cs),
(676,1063,o),
(778,1098,o),
(907,1098,cs),
(1031,1098,o),
(1131,1069,o),
(1225,1007,c),
(1396,1327,l),
(1272,1406,o),
(1150,1443,o),
(1034,1459,cs),
(977,1466,o),
(926,1470,o),
(874,1470,cs),
(652,1470,o),
(458,1402,o),
(309,1270,cs),
(157,1137,o),
(72,955,o),
(72,720,cs),
(72,482,o),
(164,297,o),
(318,169,cs),
(470,37,o),
(666,-31,o),
(888,-31,cs)
);
}
);
width = 1554;
},
{
layerId = "C851E168-A0F3-4A98-BB70-DDAB26A4D58F";
shapes = (
{
closed = 1;
nodes = (
(951,-31,o),
(1002,-26,o),
(1065,-16,cs),
(1125,-7,o),
(1183,9,o),
(1241,26,c),
(1298,46,o),
(1349,66,o),
(1386,90,c),
(1386,783,l),
(802,783,l),
(802,565,l),
(1148,565,l),
(1148,249,l),
(1097,226,o),
(1013,204,o),
(914,204,cs),
(702,204,o),
(536,283,o),
(440,437,cs),
(393,514,o),
(369,607,o),
(369,718,cs),
(369,879,o),
(419,1001,o),
(510,1090,cs),
(600,1179,o),
(730,1226,o),
(890,1226,cs),
(1019,1226,o),
(1137,1195,o),
(1240,1129,c),
(1354,1337,l),
(1255,1406,o),
(1147,1441,o),
(1037,1458,cs),
(983,1466,o),
(932,1470,o),
(879,1470,cs),
(653,1470,o),
(464,1400,o),
(321,1265,cs),
(175,1132,o),
(94,949,o),
(94,718,cs),
(94,486,o),
(180,303,o),
(329,173,c),
(475,39,o),
(671,-31,o),
(899,-31,cs)
);
}
);
width = 1548;
},
{
layerId = "95DC38C8-633C-4490-9AF5-01E2DA151EE8";
shapes = (
{
closed = 1;
nodes = (
(955,-31,o),
(1003,-25,o),
(1062,-15,cs),
(1119,-6,o),
(1175,10,o),
(1228,28,c),
(1282,48,o),
(1327,69,o),
(1357,95,c),
(1357,705,l),
(822,705,l),
(822,594,l),
(1242,594,l),
(1242,154,l),
(1184,117,o),
(1066,80,o),
(913,80,cs),
(638,80,o),
(435,184,o),
(323,376,cs),
(265,472,o),
(238,584,o),
(238,720,cs),
(238,918,o),
(302,1072,o),
(413,1183,cs),
(524,1295,o),
(681,1355,o),
(874,1355,cs),
(1006,1355,o),
(1143,1320,o),
(1254,1250,c),
(1312,1348,l),
(1238,1406,o),
(1144,1439,o),
(1040,1457,cs),
(988,1466,o),
(938,1470,o),
(884,1470,cs),
(654,1470,o),
(468,1397,o),
(331,1261,cs),
(191,1126,o),
(115,943,o),
(115,715,cs),
(115,490,o),
(195,308,o),
(339,176,c),
(480,40,o),
(675,-31,o),
(911,-31,cs)
);
}
);
width = 1542;
}
);
leftKerningGroup = _C2;
rightKerningGroup = _G;
unicode = 71;
},
{
glyphname = H;
layers = (
{
layerId = "754C31AE-F388-4929-9E05-D72B02926026";
shapes = (
{
closed = 1;
nodes = (
(160,0,l),
(576,0,l),
(576,553,l),
(1057,553,l),
(1057,0,l),
(1473,0,l),
(1473,1440,l),
(1057,1440,l),
(1057,932,l),
(576,932,l),
(576,1440,l),
(160,1440,l)
);
}
);
width = 1633;
},
{
layerId = "C851E168-A0F3-4A98-BB70-DDAB26A4D58F";
shapes = (
{
closed = 1;
nodes = (
(183,0,l),
(450,0,l),
(450,636,l),
(1105,636,l),
(1105,0,l),
(1372,0,l),
(1372,1440,l),
(1105,1440,l),
(1105,880,l),
(450,880,l),
(450,1440,l),
(183,1440,l)
);
}
);
width = 1555;
},
{
layerId = "95DC38C8-633C-4490-9AF5-01E2DA151EE8";
shapes = (
{
closed = 1;
nodes = (
(206,0,l),
(325,0,l),
(325,718,l),
(1152,718,l),
(1152,0,l),
(1271,0,l),
(1271,1440,l),
(1152,1440,l),
(1152,829,l),
(325,829,l),
(325,1440,l),
(206,1440,l)
);
}
);
width = 1477;
}
);
leftKerningGroup = _B2;
rightKerningGroup = _H;
unicode = 72;
},
{
glyphname = I;
layers = (
{
layerId = "754C31AE-F388-4929-9E05-D72B02926026";
shapes = (
{
closed = 1;
nodes = (
(160,0,l),
(576,0,l),
(576,1440,l),
(160,1440,l)
);
}
);
width = 736;
},
{
layerId = "C851E168-A0F3-4A98-BB70-DDAB26A4D58F";
shapes = (
{
closed = 1;
nodes = (
(183,0,l),
(450,0,l),
(450,1440,l),
(183,1440,l)
);
}
);
width = 634;
},
{
layerId = "95DC38C8-633C-4490-9AF5-01E2DA151EE8";
shapes = (
{
closed = 1;
nodes = (
(206,0,l),
(325,0,l),
(325,1440,l),
(206,1440,l)
);
}
);
width = 531;
}
);
leftKerningGroup = _B2;
rightKerningGroup = _H;
unicode = 73;
},
{
glyphname = J;
layers = (
{
layerId = "754C31AE-F388-4929-9E05-D72B02926026";
shapes = (
{
closed = 1;
nodes = (
(666,-31,o),
(825,55,o),
(911,207,cs),
(952,281,o),
(973,362,o),
(973,461,cs),
(973,1440,l),
(557,1440,l),
(557,553,ls),
(557,413,o),
(488,348,o),
(376,348,cs),
(298,348,o),
(217,376,o),
(117,430,c),
(1,97,l),
(112,19,o),
(258,-31,o),
(436,-31,cs)
);
}
);
width = 1131;
},
{
layerId = "C851E168-A0F3-4A98-BB70-DDAB26A4D58F";
shapes = (
{
closed = 1;
nodes = (
(600,-31,o),
(743,45,o),
(819,183,cs),
(855,251,o),
(873,326,o),
(873,417,cs),
(873,1440,l),
(606,1440,l),
(606,465,ls),
(606,290,o),
(516,214,o),
(356,214,cs),
(276,214,o),
(195,242,o),
(110,289,c),
(28,71,l),
(131,7,o),
(251,-31,o),
(391,-31,cs)
);
}
);
width = 1054;
},
{
layerId = "95DC38C8-633C-4490-9AF5-01E2DA151EE8";
shapes = (
{
closed = 1;
nodes = (
(532,-31,o),
(659,35,o),
(725,158,cs),
(757,220,o),
(773,289,o),
(773,372,cs),
(773,1440,l),
(654,1440,l),
(654,376,ls),
(654,167,o),
(545,80,o),
(335,80,cs),
(252,80,o),
(174,106,o),
(103,148,c),
(53,45,l),
(148,-5,o),
(243,-31,o),
(346,-31,cs)
);
}
);
width = 977;
}
);
leftKerningGroup = _J2;
rightKerningGroup = _J;
unicode = 74;
},
{
glyphname = K;
layers = (
{
layerId = "754C31AE-F388-4929-9E05-D72B02926026";
shapes = (
{
closed = 1;
nodes = (
(160,0,l),
(576,0,l),
(576,321,l),
(703,459,l),
(1043,0,l),
(1576,0,l),
(977,771,l),
(1514,1440,l),
(994,1440,l),
(576,907,l),
(576,1440,l),
(160,1440,l)
);
}
);
width = 1565;
},
{
layerId = "C851E168-A0F3-4A98-BB70-DDAB26A4D58F";
shapes = (
{
closed = 1;
nodes = (
(183,0,l),
(450,0,l),
(450,363,l),
(637,581,l),
(1073,0,l),
(1417,0,l),
(813,785,l),
(1341,1440,l),
(1010,1440,l),
(450,744,l),
(450,1440,l),
(183,1440,l)
);
}
);
width = 1458;
},
{
layerId = "95DC38C8-633C-4490-9AF5-01E2DA151EE8";
shapes = (
{
closed = 1;
nodes = (
(206,0,l),
(325,0,l),
(325,405,l),
(570,703,l),
(1103,0,l),
(1259,0,l),
(648,798,l),
(1168,1440,l),
(1026,1440,l),
(325,580,l),
(325,1440,l),
(206,1440,l)
);
}
);
width = 1351;
}
);
leftKerningGroup = _B2;
rightKerningGroup = _K;
unicode = 75;
},
{
glyphname = L;
layers = (
{
layerId = "754C31AE-F388-4929-9E05-D72B02926026";
shapes = (
{
closed = 1;
nodes = (
(160,0,l),
(1121,0,l),
(1121,378,l),
(576,378,l),
(576,1440,l),
(160,1440,l)
);
}
);
width = 1183;
},
{
layerId = "C851E168-A0F3-4A98-BB70-DDAB26A4D58F";
shapes = (
{
closed = 1;
nodes = (
(183,0,l),
(1061,0,l),
(1061,245,l),
(450,245,l),
(450,1440,l),
(183,1440,l)
);
}
);
width = 1133;
},
{
layerId = "95DC38C8-633C-4490-9AF5-01E2DA151EE8";
shapes = (
{
closed = 1;
nodes = (
(206,0,l),
(1002,0,l),
(1002,111,l),
(325,111,l),
(325,1440,l),
(206,1440,l)
);
}
);
width = 1084;
}
);
leftKerningGroup = _B2;
rightKerningGroup = _L;
unicode = 76;
},
{
color = (255, 153, 153, 255);
glyphname = M;
layers = (
{
layerId = "754C31AE-F388-4929-9E05-D72B02926026";
shapes = (
{
closed = 1;
nodes = (
(113,0,l),
(514,0,l),
(528,744,l),
(844,0,l),
(1053,0,l),
(1369,744,l),
(1383,0,l),
(1782,0,l),
(1731,1440,l),
(1338,1440,l),
(957,558,l),
(573,1440,l),
(176,1440,l)
);
}
);
width = 1895;
},
{
layerId = "C851E168-A0F3-4A98-BB70-DDAB26A4D58F";
shapes = (
{
closed = 1;
nodes = (
(116,0,l),
(373,0,l),
(406,1016,l),
(833,0,l),
(1002,0,l),
(1433,1016,l),
(1466,0,l),
(1722,0,l),
(1665,1440,l),
(1395,1440,l),
(922,362,l),
(450,1440,l),
(180,1440,l)
);
}
);
width = 1838;
},
{
layerId = "95DC38C8-633C-4490-9AF5-01E2DA151EE8";
shapes = (
{
closed = 1;
nodes = (
(119,0,l),
(232,0,l),
(284,1288,l),
(822,0,l),
(950,0,l),
(1496,1288,l),
(1548,0,l),
(1661,0,l),
(1598,1440,l),
(1451,1440,l),
(886,165,l),
(327,1440,l),
(183,1440,l)
);
}
);
width = 1780;
}
);
leftKerningGroup = _B2;
rightKerningGroup = _H;
unicode = 77;
},
{
glyphname = N;
layers = (
{
layerId = "754C31AE-F388-4929-9E05-D72B02926026";
shapes = (
{
closed = 1;
nodes = (
(160,0,l),
(562,0,l),
(562,786,l),
(1066,0,l),
(1481,0,l),
(1481,1440,l),
(1080,1440,l),
(1080,666,l),
(576,1440,l),
(160,1440,l)
);
}
);
width = 1641;
},
{
layerId = "C851E168-A0F3-4A98-BB70-DDAB26A4D58F";
shapes = (
{
closed = 1;
nodes = (
(183,0,l),
(443,0,l),
(443,1004,l),
(1125,0,l),
(1384,0,l),
(1384,1440,l),
(1124,1440,l),
(1124,448,l),
(442,1440,l),
(183,1440,l)
);
}
);
width = 1567;
},
{
layerId = "95DC38C8-633C-4490-9AF5-01E2DA151EE8";
shapes = (
{
closed = 1;
nodes = (
(206,0,l),
(325,0,l),
(325,1222,l),
(1185,0,l),
(1288,0,l),
(1288,1440,l),
(1168,1440,l),
(1168,230,l),
(309,1440,l),
(206,1440,l)
);
}
);
width = 1493;
}
);
leftKerningGroup = _B2;
rightKerningGroup = _H;
unicode = 78;
},
{
glyphname = O;
layers = (
{
layerId = "754C31AE-F388-4929-9E05-D72B02926026";
shapes = (
{
closed = 1;
nodes = (
(1075,-31,o),
(1262,48,o),
(1403,185,cs),
(1544,322,o),
(1622,505,o),
(1622,720,cs),
(1622,932,o),
(1544,1115,o),
(1403,1252,cs),
(1262,1389,o),
(1075,1470,o),
(848,1470,cs),
(619,1470,o),
(432,1392,o),
(291,1255,cs),
(150,1118,o),
(72,937,o),
(72,720,cs),
(72,505,o),
(150,322,o),
(291,185,cs),
(432,48,o),
(619,-31,o),
(848,-31,cs)
);
},
{
closed = 1;
nodes = (
(780,358,o),
(722,372,o),
(671,402,cs),
(621,432,o),
(580,473,o),
(552,527,cs),
(523,582,o),
(508,646,o),
(508,720,cs),
(508,831,o),
(541,921,o),
(603,984,c),
(665,1050,o),
(747,1081,o),
(847,1081,cs),
(914,1081,o),
(974,1067,o),
(1024,1037,cs),
(1074,1007,o),
(1114,966,o),
(1143,912,cs),
(1173,857,o),
(1186,794,o),
(1186,720,cs),
(1186,609,o),
(1154,518,o),
(1093,455,cs),
(1030,394,o),
(947,358,o),
(847,358,cs)
);
}
);
width = 1694;
},
{
layerId = "C851E168-A0F3-4A98-BB70-DDAB26A4D58F";
shapes = (
{
closed = 1;
nodes = (
(1075,-31,o),
(1258,48,o),
(1398,185,cs),
(1537,322,o),
(1615,505,o),
(1615,720,cs),
(1615,932,o),
(1537,1115,o),
(1398,1252,cs),
(1258,1389,o),
(1075,1470,o),
(855,1470,cs),
(633,1470,o),
(450,1392,o),
(311,1255,cs),
(173,1118,o),
(94,937,o),
(94,720,cs),
(94,505,o),
(173,322,o),
(311,185,cs),
(450,48,o),
(633,-31,o),
(855,-31,cs)
);
},
{
closed = 1;
nodes = (
(763,221,o),
(683,242,o),
(610,283,cs),
(538,324,o),
(480,381,o),
(438,456,cs),
(395,531,o),
(373,619,o),
(373,720,cs),
(373,873,o),
(424,995,o),
(513,1082,cs),
(601,1172,o),
(717,1218,o),
(854,1218,cs),
(946,1218,o),
(1028,1198,o),
(1100,1156,cs),
(1173,1115,o),
(1228,1058,o),
(1272,983,cs),
(1316,908,o),
(1335,821,o),
(1335,720,cs),
(1335,568,o),
(1287,444,o),
(1199,357,cs),
(1109,270,o),
(992,221,o),
(854,221,cs)
);
}
);
width = 1709;
},
{
layerId = "95DC38C8-633C-4490-9AF5-01E2DA151EE8";
shapes = (
{
closed = 1;
nodes = (
(1075,-31,o),
(1253,48,o),
(1393,185,cs),
(1530,322,o),
(1608,505,o),
(1608,720,cs),
(1608,932,o),
(1530,1115,o),
(1393,1252,cs),
(1253,1389,o),
(1075,1470,o),
(861,1470,cs),
(648,1470,o),
(468,1392,o),
(331,1255,cs),
(194,1118,o),
(115,937,o),
(115,720,cs),
(115,505,o),
(194,322,o),
(331,185,cs),
(468,48,o),
(648,-31,o),
(861,-31,cs)
);
},
{
closed = 1;
nodes = (
(745,84,o),
(642,111,o),
(548,163,cs),
(453,216,o),
(380,290,o),
(323,385,cs),
(265,481,o),
(238,591,o),
(238,720,cs),
(238,914,o),
(305,1069,o),
(421,1181,cs),
(537,1293,o),
(686,1355,o),
(861,1355,cs),
(978,1355,o),
(1081,1328,o),
(1176,1276,cs),
(1271,1223,o),
(1343,1149,o),
(1400,1054,cs),
(1459,958,o),
(1484,848,o),
(1484,720,cs),
(1484,527,o),
(1419,370,o),
(1304,258,cs),
(1187,147,o),
(1037,84,o),
(861,84,cs)
);
}
);
width = 1723;
}
);
leftKerningGroup = _C2;
rightKerningGroup = _D;
unicode = 79;
},
{
glyphname = P;
layers = (
{
layerId = "754C31AE-F388-4929-9E05-D72B02926026";
shapes = (
{
closed = 1;
nodes = (
(160,0,l),
(576,0,l),
(576,444,l),
(765,444,ls),
(1015,444,o),
(1190,521,o),
(1282,674,cs),
(1328,748,o),
(1349,835,o),
(1349,942,cs),
(1349,1155,o),
(1246,1303,o),
(1072,1382,cs),
(984,1420,o),
(888,1440,o),
(775,1440,cs),
(160,1440,l)
);
},
{
closed = 1;
nodes = (
(576,788,l),
(576,1086,l),
(751,1086,ls),
(804,1086,o),
(850,1077,o),
(883,1055,c),
(917,1032,o),
(934,994,o),
(934,936,cs),
(934,825,o),
(865,788,o),
(749,788,cs)
);
}
);
width = 1391;
},
{
layerId = "C851E168-A0F3-4A98-BB70-DDAB26A4D58F";
shapes = (
{
closed = 1;
nodes = (
(183,0,l),
(450,0,l),
(450,533,l),
(717,533,ls),
(949,533,o),
(1109,603,o),
(1194,741,cs),
(1236,808,o),
(1256,889,o),
(1256,985,cs),
(1256,1179,o),
(1161,1314,o),
(1001,1387,c),
(919,1422,o),
(829,1440,o),
(723,1440,cs),
(183,1440,l)
);
},
{
closed = 1;
nodes = (
(450,760,l),
(450,1207,l),
(718,1207,ls),
(800,1207,o),
(866,1190,o),
(916,1152,c),
(966,1111,o),
(988,1056,o),
(988,980,cs),
(988,830,o),
(890,760,o),
(716,760,cs)
);
}
);
width = 1323;
},
{
layerId = "95DC38C8-633C-4490-9AF5-01E2DA151EE8";
shapes = (
{
closed = 1;
nodes = (
(206,0,l),
(325,0,l),
(325,621,l),
(669,621,ls),
(882,621,o),
(1027,683,o),
(1106,806,cs),
(1144,868,o),
(1162,941,o),
(1162,1028,cs),
(1162,1202,o),
(1077,1325,o),
(929,1392,c),
(854,1423,o),
(770,1440,o),
(671,1440,cs),
(206,1440,l)
);
},
{
closed = 1;
nodes = (
(325,732,l),
(325,1329,l),
(685,1329,ls),
(796,1329,o),
(882,1302,o),
(948,1248,c),
(1014,1190,o),
(1043,1119,o),
(1043,1024,cs),
(1043,834,o),
(913,732,o),
(683,732,cs)
);
}
);
width = 1255;
}
);
leftKerningGroup = _B2;
rightKerningGroup = _P;
unicode = 80;
},
{
glyphname = Q;
layers = (
{
layerId = "754C31AE-F388-4929-9E05-D72B02926026";
shapes = (
{
closed = 1;
nodes = (
(1044,93,l),
(1127,-33,o),
(1316,-157,o),
(1513,-217,c),
(1694,131,l),
(1527,185,o),
(1366,288,o),
(1248,417,c)
);
},
{
closed = 1;
nodes = (
(1075,-31,o),
(1262,48,o),
(1403,185,cs),
(1544,322,o),
(1622,505,o),
(1622,720,cs),
(1622,932,o),
(1544,1115,o),
(1403,1252,cs),
(1262,1389,o),
(1075,1470,o),
(848,1470,cs),
(619,1470,o),
(432,1392,o),
(291,1255,cs),
(150,1118,o),
(72,937,o),
(72,720,cs),
(72,505,o),
(150,322,o),
(291,185,cs),
(432,48,o),
(619,-31,o),
(848,-31,cs)
);
},
{
closed = 1;
nodes = (
(780,358,o),
(722,372,o),
(671,402,cs),
(621,432,o),
(580,473,o),
(552,527,cs),
(523,582,o),
(508,646,o),
(508,720,cs),
(508,831,o),
(541,921,o),
(603,984,c),
(665,1050,o),
(747,1081,o),
(847,1081,cs),
(914,1081,o),
(974,1067,o),
(1024,1037,cs),
(1074,1007,o),
(1114,966,o),
(1143,912,cs),
(1173,857,o),
(1186,794,o),
(1186,720,cs),
(1186,609,o),
(1154,518,o),
(1093,455,cs),
(1030,394,o),
(947,358,o),
(847,358,cs)
);
}
);
width = 1694;
},
{
layerId = "C851E168-A0F3-4A98-BB70-DDAB26A4D58F";
shapes = (
{
closed = 1;
nodes = (
(1078,84,l),
(1182,-41,o),
(1345,-145,o),
(1541,-212,c),
(1659,14,l),
(1474,75,o),
(1330,166,o),
(1219,287,c)
);
},
{
closed = 1;
nodes = (
(1075,-31,o),
(1258,48,o),
(1398,185,cs),
(1537,322,o),
(1615,505,o),
(1615,720,cs),
(1615,932,o),
(1537,1115,o),
(1398,1252,cs),
(1258,1389,o),
(1075,1470,o),
(855,1470,cs),
(633,1470,o),
(450,1392,o),
(311,1255,cs),
(173,1118,o),
(94,937,o),
(94,720,cs),
(94,505,o),
(173,322,o),
(311,185,cs),
(450,48,o),
(633,-31,o),
(855,-31,cs)
);
},
{
closed = 1;
nodes = (
(763,221,o),
(683,242,o),
(610,283,cs),
(538,324,o),
(480,381,o),
(438,456,cs),
(395,531,o),
(373,619,o),
(373,720,cs),
(373,873,o),
(424,995,o),
(513,1082,c),
(601,1172,o),
(717,1218,o),
(854,1218,cs),
(946,1218,o),
(1028,1198,o),
(1100,1156,cs),
(1173,1115,o),
(1228,1058,o),
(1272,983,cs),
(1316,908,o),
(1335,821,o),
(1335,720,cs),
(1335,568,o),
(1287,444,o),
(1199,357,cs),
(1109,270,o),
(992,221,o),
(854,221,cs)
);
}
);
width = 1709;
},
{
layerId = "95DC38C8-633C-4490-9AF5-01E2DA151EE8";
shapes = (
{
closed = 1;
nodes = (
(1111,75,l),
(1238,-48,o),
(1373,-132,o),
(1569,-206,c),
(1624,-103,l),
(1422,-35,o),
(1293,42,o),
(1189,155,c)
);
},
{
closed = 1;
nodes = (
(1075,-31,o),
(1253,48,o),
(1393,185,cs),
(1530,322,o),
(1608,505,o),
(1608,720,cs),
(1608,932,o),
(1530,1115,o),
(1393,1252,cs),
(1253,1389,o),
(1075,1470,o),
(861,1470,cs),
(648,1470,o),
(468,1392,o),
(331,1255,cs),
(194,1118,o),
(115,937,o),
(115,720,cs),
(115,505,o),
(194,322,o),
(331,185,cs),
(468,48,o),
(648,-31,o),
(861,-31,cs)
);
},
{
closed = 1;
nodes = (
(745,84,o),
(642,111,o),
(548,163,cs),
(453,216,o),
(380,290,o),
(323,385,cs),
(265,481,o),
(238,591,o),
(238,720,cs),
(238,914,o),
(305,1069,o),
(421,1181,cs),
(537,1293,o),
(686,1355,o),
(861,1355,cs),
(978,1355,o),
(1081,1328,o),
(1176,1276,cs),
(1271,1223,o),
(1343,1149,o),
(1400,1054,cs),
(1459,958,o),
(1484,848,o),
(1484,720,cs),
(1484,527,o),
(1419,370,o),
(1304,258,cs),
(1187,147,o),
(1037,84,o),
(861,84,cs)
);
}
);
width = 1723;
}
);
leftKerningGroup = _C2;
unicode = 81;
},
{
glyphname = R;
layers = (
{
layerId = "754C31AE-F388-4929-9E05-D72B02926026";
shapes = (
{
closed = 1;
nodes = (
(160,0,l),
(576,0,l),
(576,496,l),
(656,496,l),
(926,0,l),
(1415,0,l),
(1059,588,l),
(1159,629,o),
(1246,700,o),
(1295,807,cs),
(1319,861,o),
(1331,922,o),
(1331,991,cs),
(1331,1186,o),
(1236,1319,o),
(1068,1388,c),
(981,1422,o),
(887,1440,o),
(771,1440,cs),
(160,1440,l)
);
},
{
closed = 1;
nodes = (
(576,823,l),
(576,1103,l),
(730,1103,ls),
(788,1103,o),
(831,1093,o),
(864,1073,c),
(894,1052,o),
(911,1015,o),
(911,963,cs),
(911,910,o),
(894,875,o),
(864,855,c),
(830,833,o),
(786,823,o),
(728,823,cs)
);
}
);
width = 1450;
},
{
layerId = "C851E168-A0F3-4A98-BB70-DDAB26A4D58F";
shapes = (
{
closed = 1;
nodes = (
(183,0,l),
(450,0,l),
(450,564,l),
(623,564,l),
(996,0,l),
(1316,0,l),
(898,611,l),
(1037,640,o),
(1142,712,o),
(1201,821,c),
(1229,876,o),
(1243,937,o),
(1243,1009,cs),
(1243,1191,o),
(1159,1320,o),
(1009,1390,c),
(931,1422,o),
(845,1440,o),
(741,1440,cs),
(183,1440,l)
);
},
{
closed = 1;
nodes = (
(450,783,l),
(450,1216,l),
(715,1216,ls),
(802,1216,o),
(866,1198,o),
(910,1159,c),
(951,1120,o),
(974,1067,o),
(974,995,cs),
(974,925,o),
(949,873,o),
(904,838,cs),
(854,800,o),
(789,783,o),
(701,783,cs)
);
}
);
width = 1385;
},
{
layerId = "95DC38C8-633C-4490-9AF5-01E2DA151EE8";
shapes = (
{
closed = 1;
nodes = (
(206,0,l),
(325,0,l),
(325,631,l),
(590,631,l),
(1066,0,l),
(1218,0,l),
(736,634,l),
(913,650,o),
(1037,722,o),
(1107,834,c),
(1140,892,o),
(1156,952,o),
(1156,1026,cs),
(1156,1195,o),
(1082,1320,o),
(949,1390,c),
(879,1422,o),
(804,1440,o),
(710,1440,cs),
(206,1440,l)
);
},
{
closed = 1;
nodes = (
(325,743,l),
(325,1329,l),
(699,1329,ls),
(816,1329,o),
(901,1303,o),
(955,1246,cs),
(1009,1188,o),
(1037,1117,o),
(1037,1026,cs),
(1037,939,o),
(1005,871,o),
(943,821,cs),
(877,767,o),
(791,743,o),
(675,743,cs)
);
}
);
width = 1321;
}
);
leftKerningGroup = _B2;
rightKerningGroup = _R;
unicode = 82;
},
{
glyphname = S;
layers = (
{
layerId = "754C31AE-F388-4929-9E05-D72B02926026";
shapes = (
{
closed = 1;
nodes = (
(929,-31,o),
(1109,57,o),
(1208,201,cs),
(1257,276,o),
(1281,357,o),
(1281,452,cs),
(1281,560,o),
(1249,644,o),
(1178,713,c),
(1108,779,o),
(1001,836,o),
(841,882,cs),
(736,913,ls),
(638,943,o),
(585,960,o),
(559,982,c),
(548,994,o),
(541,1006,o),
(541,1024,cs),
(541,1062,o),
(572,1092,o),
(626,1111,c),
(654,1119,o),
(684,1123,o),
(720,1123,cs),
(811,1123,o),
(904,1098,o),
(982,1054,cs),
(1019,1033,o),
(1052,1007,o),
(1073,979,c),
(1274,1278,l),
(1212,1336,o),
(1133,1383,o),
(1034,1419,c),
(931,1452,o),
(823,1468,o),
(707,1468,cs),
(546,1468,o),
(406,1422,o),
(303,1335,c),
(200,1252,o),
(140,1138,o),
(140,1005,cs),
(140,903,o),
(174,815,o),
(241,737,c),
(307,662,o),
(418,601,o),
(576,559,cs),
(683,530,l),
(757,513,o),
(808,492,o),
(836,476,c),
(864,456,o),
(876,433,o),
(876,405,cs),
(876,377,o),
(859,355,o),
(823,339,cs),
(787,324,o),
(741,315,o),
(687,315,cs),
(588,315,o),
(476,344,o),
(380,394,cs),
(334,418,o),
(295,446,o),
(267,479,c),
(76,173,l),
(151,107,o),
(244,57,o),
(352,23,cs),
(460,-13,o),
(571,-31,o),
(687,-31,cs)
);
}
);
width = 1334;
},
{
layerId = "C851E168-A0F3-4A98-BB70-DDAB26A4D58F";
shapes = (
{
closed = 1;
nodes = (
(895,-31,o),
(1059,49,o),
(1147,182,c),
(1190,250,o),
(1211,324,o),
(1211,411,cs),
(1211,515,o),
(1181,594,o),
(1116,660,c),
(1053,722,o),
(957,773,o),
(815,814,cs),
(669,857,ls),
(537,897,o),
(466,931,o),
(434,975,c),
(419,997,o),
(410,1022,o),
(410,1052,cs),
(410,1133,o),
(457,1188,o),
(541,1221,c),
(582,1236,o),
(627,1242,o),
(681,1242,cs),
(774,1242,o),
(865,1220,o),
(946,1180,cs),
(983,1162,o),
(1019,1139,o),
(1045,1110,c),
(1180,1308,l),
(1123,1356,o),
(1055,1396,o),
(968,1427,c),
(880,1455,o),
(787,1469,o),
(686,1469,cs),
(533,1469,o),
(403,1429,o),
(306,1350,c),
(210,1274,o),
(154,1169,o),
(154,1038,cs),
(154,942,o),
(186,861,o),
(249,793,cs),
(311,727,o),
(412,672,o),
(553,632,cs),
(693,592,l),
(794,565,o),
(862,535,o),
(899,504,c),
(937,471,o),
(953,431,o),
(953,383,cs),
(953,324,o),
(928,279,o),
(875,247,cs),
(821,215,o),
(751,197,o),
(664,197,cs),
(561,197,o),
(456,223,o),
(363,267,cs),
(319,289,o),
(278,315,o),
(245,344,c),
(117,142,l),
(184,86,o),
(266,43,o),
(363,15,c),
(461,-15,o),
(560,-31,o),
(663,-31,cs)
);
}
);
width = 1301;
},
{
layerId = "95DC38C8-633C-4490-9AF5-01E2DA151EE8";
shapes = (
{
closed = 1;
nodes = (
(861,-31,o),
(1007,41,o),
(1086,161,c),
(1124,223,o),
(1141,291,o),
(1141,370,cs),
(1141,469,o),
(1113,544,o),
(1055,605,cs),
(997,664,o),
(913,710,o),
(790,746,cs),
(602,802,ls),
(435,852,o),
(346,902,o),
(308,967,c),
(291,1000,o),
(280,1037,o),
(280,1079,cs),
(280,1204,o),
(343,1285,o),
(454,1330,cs),
(509,1352,o),
(571,1361,o),
(641,1361,cs),
(736,1361,o),
(825,1343,o),
(909,1307,cs),
(947,1290,o),
(986,1270,o),
(1018,1242,c),
(1086,1336,l),
(1033,1374,o),
(976,1408,o),
(902,1434,c),
(828,1458,o),
(750,1470,o),
(664,1470,cs),
(519,1470,o),
(399,1435,o),
(308,1364,cs),
(218,1294,o),
(169,1199,o),
(169,1071,cs),
(169,981,o),
(198,907,o),
(257,848,cs),
(316,791,o),
(406,742,o),
(530,705,cs),
(703,654,ls),
(831,618,o),
(916,576,o),
(962,530,cs),
(1008,484,o),
(1030,428,o),
(1030,362,cs),
(1030,270,o),
(996,201,o),
(925,153,cs),
(854,105,o),
(761,80,o),
(641,80,cs),
(535,80,o),
(437,102,o),
(345,140,c),
(303,159,o),
(260,182,o),
(222,210,c),
(157,111,l),
(216,65,o),
(288,29,o),
(374,7,c),
(461,-17,o),
(549,-31,o),
(639,-31,cs)
);
}
);
width = 1269;
}
);
leftKerningGroup = _S2;
rightKerningGroup = _S;
unicode = 83;
},
{
glyphname = T;
layers = (
{
layerId = "754C31AE-F388-4929-9E05-D72B02926026";
shapes = (
{
closed = 1;
nodes = (
(401,0,l),
(819,0,l),
(819,1061,l),
(1189,1061,l),
(1189,1440,l),
(31,1440,l),
(31,1061,l),
(401,1061,l)
);
}
);
width = 1220;
},
{
layerId = "C851E168-A0F3-4A98-BB70-DDAB26A4D58F";
shapes = (
{
closed = 1;
nodes = (
(449,0,l),
(718,0,l),
(718,1195,l),
(1116,1195,l),
(1116,1440,l),
(51,1440,l),
(51,1195,l),
(449,1195,l)
);
}
);
width = 1167;
},
{
layerId = "95DC38C8-633C-4490-9AF5-01E2DA151EE8";
shapes = (
{
closed = 1;
nodes = (
(498,0,l),
(617,0,l),
(617,1329,l),
(1043,1329,l),
(1043,1440,l),
(72,1440,l),
(72,1329,l),
(498,1329,l)
);
}
);
width = 1115;
}
);
leftKerningGroup = _T2;
rightKerningGroup = _T;
unicode = 84;
},
{
glyphname = U;
layers = (
{
layerId = "754C31AE-F388-4929-9E05-D72B02926026";
shapes = (
{
closed = 1;
nodes = (
(935,-31,o),
(1050,-5,o),
(1146,52,c),
(1240,106,o),
(1312,180,o),
(1361,279,cs),
(1409,377,o),
(1434,484,o),
(1434,613,cs),
(1434,1440,l),
(1016,1440,l),
(1016,590,ls),
(1016,511,o),
(998,456,o),
(958,416,cs),
(921,378,o),
(864,358,o),
(794,358,cs),
(720,358,o),
(667,378,o),
(627,416,c),
(587,456,o),
(570,512,o),
(570,590,cs),
(570,1440,l),
(154,1440,l),
(154,613,ls),
(154,484,o),
(179,375,o),
(227,277,cs),
(276,178,o),
(347,108,o),
(442,50,c),
(538,-4,o),
(653,-31,o),
(794,-31,cs)
);
}
);
width = 1586;
},
{
layerId = "C851E168-A0F3-4A98-BB70-DDAB26A4D58F";
shapes = (
{
closed = 1;
nodes = (
(902,-31,o),
(1008,-6,o),
(1097,50,c),
(1186,102,o),
(1252,173,o),
(1296,265,cs),
(1340,358,o),
(1363,457,o),
(1363,572,cs),
(1363,1440,l),
(1094,1440,l),
(1094,569,ls),
(1094,450,o),
(1066,367,o),
(1006,308,cs),
(948,250,o),
(868,221,o),
(769,221,cs),
(666,221,o),
(589,250,o),
(530,308,c),
(471,367,o),
(443,452,o),
(443,569,cs),
(443,1440,l),
(176,1440,l),
(176,572,ls),
(176,457,o),
(199,356,o),
(243,263,cs),
(287,171,o),
(352,104,o),
(440,48,c),
(530,-5,o),
(637,-31,o),
(769,-31,cs)
);
}
);
width = 1536;
},
{
layerId = "95DC38C8-633C-4490-9AF5-01E2DA151EE8";
shapes = (
{
closed = 1;
nodes = (
(868,-31,o),
(966,-6,o),
(1048,47,c),
(1130,97,o),
(1190,165,o),
(1230,251,cs),
(1270,337,o),
(1291,428,o),
(1291,531,cs),
(1291,1440,l),
(1171,1440,l),
(1171,547,ls),
(1171,390,o),
(1133,279,o),
(1054,200,cs),
(976,121,o),
(872,84,o),
(744,84,cs),
(612,84,o),
(511,121,o),
(432,200,cs),
(354,279,o),
(316,390,o),
(316,547,cs),
(316,1440,l),
(196,1440,l),
(196,531,ls),
(196,428,o),
(217,336,o),
(257,250,cs),
(297,164,o),
(356,99,o),
(438,46,cs),
(521,-6,o),
(619,-31,o),
(744,-31,cs)
);
}
);
width = 1485;
}
);
leftKerningGroup = _U;
rightKerningGroup = _J;
unicode = 85;
},
{
glyphname = V;
layers = (
{
layerId = "754C31AE-F388-4929-9E05-D72B02926026";
shapes = (
{
closed = 1;
nodes = (
(498,0,l),
(981,0,l),
(1500,1440,l),
(1039,1440,l),
(745,518,l),
(450,1440,l),
(-19,1440,l)
);
}
);
width = 1481;
},
{
layerId = "C851E168-A0F3-4A98-BB70-DDAB26A4D58F";
shapes = (
{
closed = 1;
nodes = (
(552,0,l),
(845,0,l),
(1380,1440,l),
(1085,1440,l),
(702,350,l),
(308,1440,l),
(6,1440,l)
);
}
);
width = 1386;
},
{
layerId = "95DC38C8-633C-4490-9AF5-01E2DA151EE8";
shapes = (
{
closed = 1;
nodes = (
(607,0,l),
(710,0,l),
(1261,1440,l),
(1131,1440,l),
(660,181,l),
(165,1440,l),
(31,1440,l)
);
}
);
width = 1292;
}
);
leftKerningGroup = _V2;
rightKerningGroup = _V;
unicode = 86;
},
{
glyphname = W;
layers = (
{
layerId = "754C31AE-F388-4929-9E05-D72B02926026";
shapes = (
{
closed = 1;
nodes = (
(461,0,l),
(854,0,l),
(1080,829,l),
(1306,0,l),
(1703,0,l),
(2143,1440,l),
(1726,1440,l),
(1520,636,l),
(1292,1440,l),
(882,1440,l),
(654,636,l),
(448,1440,l),
(21,1440,l)
);
}
);
width = 2164;
},
{
layerId = "C851E168-A0F3-4A98-BB70-DDAB26A4D58F";
shapes = (
{
closed = 1;
nodes = (
(478,0,l),
(751,0,l),
(1056,1041,l),
(1359,0,l),
(1633,0,l),
(2067,1440,l),
(1796,1440,l),
(1504,384,l),
(1196,1440,l),
(923,1440,l),
(614,383,l),
(322,1440,l),
(43,1440,l)
);
}
);
width = 2110;
},
{
layerId = "95DC38C8-633C-4490-9AF5-01E2DA151EE8";
shapes = (
{
closed = 1;
nodes = (
(496,0,l),
(648,0,l),
(1033,1253,l),
(1411,0,l),
(1563,0,l),
(1991,1440,l),
(1866,1440,l),
(1487,132,l),
(1100,1440,l),
(963,1440,l),
(574,130,l),
(195,1440,l),
(66,1440,l)
);
}
);
width = 2057;
}
);
leftKerningGroup = _V2;
rightKerningGroup = _V;
unicode = 87;
},
{
glyphname = X;
layers = (
{
layerId = "754C31AE-F388-4929-9E05-D72B02926026";
shapes = (
{
closed = 1;
nodes = (
(14,0,l),
(508,0,l),
(726,413,l),
(944,0,l),
(1450,0,l),
(1026,724,l),
(1444,1440,l),
(954,1440,l),
(743,1049,l),
(531,1440,l),
(29,1440,l),
(446,730,l)
);
}
);
width = 1465;
},
{
layerId = "C851E168-A0F3-4A98-BB70-DDAB26A4D58F";
shapes = (
{
closed = 1;
nodes = (
(47,0,l),
(361,0,l),
(688,536,l),
(1026,0,l),
(1349,0,l),
(881,730,l),
(1337,1440,l),
(1025,1440,l),
(699,936,l),
(391,1440,l),
(70,1440,l),
(507,736,l)
);
}
);
width = 1397;
},
{
layerId = "95DC38C8-633C-4490-9AF5-01E2DA151EE8";
shapes = (
{
closed = 1;
nodes = (
(80,0,l),
(214,0,l),
(650,658,l),
(1109,0,l),
(1249,0,l),
(736,736,l),
(1230,1440,l),
(1096,1440,l),
(656,823,l),
(251,1440,l),
(111,1440,l),
(568,743,l)
);
}
);
width = 1329;
}
);
leftKerningGroup = _X2;
rightKerningGroup = _X;
unicode = 88;
},
{
glyphname = Y;
layers = (
{
layerId = "754C31AE-F388-4929-9E05-D72B02926026";
shapes = (
{
closed = 1;
nodes = (
(481,0,l),
(899,0,l),
(899,584,l),
(1401,1440,l),
(950,1440,l),
(697,985,l),
(442,1440,l),
(-21,1440,l),
(481,588,l)
);
}
);
width = 1380;
},
{
layerId = "C851E168-A0F3-4A98-BB70-DDAB26A4D58F";
shapes = (
{
closed = 1;
nodes = (
(514,0,l),
(783,0,l),
(783,613,l),
(1290,1440,l),
(995,1440,l),
(654,872,l),
(311,1440,l),
(7,1440,l),
(514,615,l)
);
}
);
width = 1297;
},
{
layerId = "95DC38C8-633C-4490-9AF5-01E2DA151EE8";
shapes = (
{
closed = 1;
nodes = (
(547,0,l),
(666,0,l),
(666,642,l),
(1179,1440,l),
(1039,1440,l),
(611,759,l),
(179,1440,l),
(35,1440,l),
(547,642,l)
);
}
);
width = 1214;
}
);
leftKerningGroup = _Y2;
rightKerningGroup = _Y;
unicode = 89;
},
{
glyphname = Z;
layers = (
{
layerId = "754C31AE-F388-4929-9E05-D72B02926026";
shapes = (
{
closed = 1;
nodes = (
(72,0,l),
(1156,0,l),
(1156,378,l),
(580,378,l),
(1152,1096,l),
(1152,1440,l),
(97,1440,l),
(97,1061,l),
(648,1061,l),
(72,346,l)
);
}
);
width = 1224;
},
{
layerId = "C851E168-A0F3-4A98-BB70-DDAB26A4D58F";
shapes = (
{
closed = 1;
nodes = (
(91,0,l),
(1124,0,l),
(1124,245,l),
(417,245,l),
(1118,1218,l),
(1118,1440,l),
(114,1440,l),
(114,1195,l),
(795,1195,l),
(91,223,l)
);
}
);
width = 1206;
},
{
layerId = "95DC38C8-633C-4490-9AF5-01E2DA151EE8";
shapes = (
{
closed = 1;
nodes = (
(109,0,l),
(1092,0,l),
(1092,111,l),
(253,111,l),
(1084,1339,l),
(1084,1440,l),
(132,1440,l),
(132,1329,l),
(942,1329,l),
(109,101,l)
);
}
);
width = 1189;
}
);
leftKerningGroup = _Z2;
rightKerningGroup = _Z;
unicode = 90;
},
{
glyphname = bracketleft;
layers = (
{
layerId = "754C31AE-F388-4929-9E05-D72B02926026";
shapes = (
{
closed = 1;
nodes = (
(150,-220,l),
(666,-220,l),
(666,46,l),
(466,46,l),
(466,1334,l),
(666,1334,l),
(666,1600,l),
(150,1600,l)
);
}
);
width = 732;
},
{
layerId = "C851E168-A0F3-4A98-BB70-DDAB26A4D58F";
shapes = (
{
closed = 1;
nodes = (
(187,-220,l),
(599,-220,l),
(599,-39,l),
(395,-39,l),
(395,1419,l),
(599,1419,l),
(599,1600,l),
(187,1600,l)
);
}
);
width = 699;
},
{
layerId = "95DC38C8-633C-4490-9AF5-01E2DA151EE8";
shapes = (
{
closed = 1;
nodes = (
(224,-220,l),
(532,-220,l),
(532,-124,l),
(324,-124,l),
(324,1504,l),
(532,1504,l),
(532,1600,l),
(224,1600,l)
);
}
);
width = 666;
}
);
leftKerningGroup = _bar2;
rightKerningGroup = _parenleft;
unicode = 91;
},
{
glyphname = backslash;
layers = (
{
layerId = "754C31AE-F388-4929-9E05-D72B02926026";
shapes = (
{
closed = 1;
nodes = (
(656,-230,l),
(978,-104,l),
(292,1610,l),
(-30,1484,l)
);
}
);
width = 948;
},
{
layerId = "C851E168-A0F3-4A98-BB70-DDAB26A4D58F";
shapes = (
{
closed = 1;
nodes = (
(714,-230,l),
(925,-147,l),
(206,1610,l),
(-5,1527,l)
);
}
);
width = 920;
},
{
layerId = "95DC38C8-633C-4490-9AF5-01E2DA151EE8";
shapes = (
{
closed = 1;
nodes = (
(772,-230,l),
(872,-190,l),
(120,1610,l),
(20,1570,l)
);
}
);
width = 892;
}
);
unicode = 92;
},
{
glyphname = bracketright;
layers = (
{
layerId = "754C31AE-F388-4929-9E05-D72B02926026";
shapes = (
{
closed = 1;
nodes = (
(582,-220,l),
(582,1600,l),
(66,1600,l),
(66,1334,l),
(266,1334,l),
(266,46,l),
(66,46,l),
(66,-220,l)
);
}
);
width = 732;
},
{
layerId = "C851E168-A0F3-4A98-BB70-DDAB26A4D58F";
shapes = (
{
closed = 1;
nodes = (
(512,-220,l),
(512,1600,l),
(100,1600,l),
(100,1419,l),
(304,1419,l),
(304,-39,l),
(100,-39,l),
(100,-220,l)
);
}
);
width = 699;
},
{
layerId = "95DC38C8-633C-4490-9AF5-01E2DA151EE8";
shapes = (
{
closed = 1;
nodes = (
(442,-220,l),
(442,1600,l),
(134,1600,l),
(134,1504,l),
(342,1504,l),
(342,-124,l),
(134,-124,l),
(134,-220,l)
);
}
);
width = 666;
}
);
leftKerningGroup = _parenright;
rightKerningGroup = _bar;
unicode = 93;
},
{
glyphname = asciicircum;
layers = (
{
layerId = "754C31AE-F388-4929-9E05-D72B02926026";
shapes = (
{
closed = 1;
nodes = (
(134,804,l),
(477,804,l),
(666,1166,l),
(856,804,l),
(1199,804,l),
(854,1440,l),
(479,1440,l)
);
}
);
width = 1333;
},
{
layerId = "C851E168-A0F3-4A98-BB70-DDAB26A4D58F";
shapes = (
{
closed = 1;
nodes = (
(180,839,l),
(417,839,l),
(666,1257,l),
(916,839,l),
(1153,839,l),
(793,1440,l),
(540,1440,l)
);
}
);
width = 1333;
},
{
layerId = "95DC38C8-633C-4490-9AF5-01E2DA151EE8";
shapes = (
{
closed = 1;
nodes = (
(226,874,l),
(356,874,l),
(666,1347,l),
(977,874,l),
(1107,874,l),
(732,1440,l),
(601,1440,l)
);
}
);
width = 1333;
}
);
leftKerningGroup = _plus2;
rightKerningGroup = _plus;
unicode = 94;
},
{
glyphname = underscore;
layers = (
{
layerId = "754C31AE-F388-4929-9E05-D72B02926026";
shapes = (
{
closed = 1;
nodes = (
(20,-408,l),
(1120,-408,l),
(1120,-92,l),
(20,-92,l)
);
}
);
width = 1140;
},
{
layerId = "C851E168-A0F3-4A98-BB70-DDAB26A4D58F";
shapes = (
{
closed = 1;
nodes = (
(25,-345,l),
(1075,-345,l),
(1075,-141,l),
(25,-141,l)
);
}
);
width = 1100;
},
{
layerId = "95DC38C8-633C-4490-9AF5-01E2DA151EE8";
shapes = (
{
closed = 1;
nodes = (
(30,-282,l),
(1030,-282,l),
(1030,-190,l),
(30,-190,l)
);
}
);
width = 1060;
}
);
unicode = 95;
},
{
glyphname = a;
layers = (
{
layerId = "754C31AE-F388-4929-9E05-D72B02926026";
shapes = (
{
closed = 1;
nodes = (
(571,-30,o),
(721,25,o),
(800,156,c),
(733,156,l),
(733,156,ls),
(733,7,o),
(931,-28,o),
(1073,-28,cs),
(1098,-28,o),
(1120,-25,o),
(1145,-18,c),
(1173,236,l),
(1171,236,o),
(1169,236,o),
(1167,236,cs),
(1094,236,o),
(1089,293,o),
(1089,356,cs),
(1089,610,ls),
(1089,938,o),
(864,1070,o),
(571,1070,cs),
(412,1070,o),
(245,1029,o),
(106,944,c),
(205,678,l),
(285,739,o),
(392,770,o),
(501,770,cs),
(622,770,o),
(709,733,o),
(709,604,cs),
(709,402,ls),
(709,296,o),
(632,250,o),
(537,250,cs),
(465,250,o),
(419,275,o),
(419,332,cs),
(419,418,o),
(536,430,o),
(602,430,cs),
(650,430,o),
(705,423,o),
(763,410,c),
(761,648,l),
(705,653,o),
(653,655,o),
(604,655,cs),
(375,655,o),
(57,599,o),
(57,308,cs),
(57,91,o),
(222,-30,o),
(423,-30,cs)
);
}
);
width = 1204;
},
{
layerId = "C851E168-A0F3-4A98-BB70-DDAB26A4D58F";
shapes = (
{
closed = 1;
nodes = (
(607,-30,o),
(755,31,o),
(830,158,c),
(789,195,l),
(789,176,ls),
(789,27,o),
(934,-29,o),
(1075,-29,cs),
(1089,-29,o),
(1101,-28,o),
(1115,-24,c),
(1137,162,l),
(1135,162,o),
(1132,162,o),
(1130,162,cs),
(1035,162,o),
(1028,237,o),
(1028,317,cs),
(1028,648,ls),
(1028,951,o),
(827,1070,o),
(555,1070,cs),
(418,1070,o),
(268,1037,o),
(137,949,c),
(209,762,l),
(303,832,o),
(409,862,o),
(519,862,cs),
(668,862,o),
(777,801,o),
(777,645,cs),
(777,391,ls),
(777,239,o),
(646,168,o),
(512,168,cs),
(395,168,o),
(325,217,o),
(325,313,cs),
(325,446,o),
(495,472,o),
(627,472,cs),
(702,472,o),
(777,463,o),
(832,453,c),
(828,626,l),
(768,633,o),
(700,637,o),
(629,637,cs),
(389,637,o),
(83,581,o),
(83,300,cs),
(83,80,o),
(246,-30,o),
(447,-30,cs)
);
}
);
width = 1170;
},
{
layerId = "95DC38C8-633C-4490-9AF5-01E2DA151EE8";
shapes = (
{
closed = 1;
nodes = (
(643,-30,o),
(789,36,o),
(860,160,c),
(844,234,l),
(844,195,ls),
(844,46,o),
(936,-30,o),
(1076,-30,cs),
(1079,-30,o),
(1082,-30,o),
(1085,-30,c),
(1101,87,l),
(1098,87,o),
(1095,87,o),
(1093,87,cs),
(975,87,o),
(966,180,o),
(966,277,cs),
(966,685,ls),
(966,964,o),
(790,1070,o),
(539,1070,cs),
(424,1070,o),
(291,1044,o),
(167,953,c),
(212,845,l),
(321,924,o),
(425,953,o),
(537,953,cs),
(714,953,o),
(845,869,o),
(845,685,cs),
(845,379,ls),
(845,182,o),
(659,86,o),
(486,86,cs),
(325,86,o),
(230,159,o),
(230,294,cs),
(230,474,o),
(454,514,o),
(651,514,cs),
(753,514,o),
(848,503,o),
(901,496,c),
(895,604,l),
(831,612,o),
(746,619,o),
(654,619,cs),
(403,619,o),
(108,562,o),
(108,292,cs),
(108,68,o),
(269,-30,o),
(470,-30,cs)
);
}
);
width = 1136;
}
);
leftKerningGroup = _a2;
rightKerningGroup = _a;
unicode = 97;
},
{
glyphname = b;
layers = (
{
layerId = "754C31AE-F388-4929-9E05-D72B02926026";
shapes = (
{
closed = 1;
nodes = (
(949,-30,o),
(1072,22,o),
(1168,119,cs),
(1260,215,o),
(1314,349,o),
(1314,520,cs),
(1314,628,o),
(1294,718,o),
(1247,803,c),
(1203,887,o),
(1143,950,o),
(1063,999,c),
(982,1046,o),
(896,1070,o),
(792,1070,cs),
(720,1070,o),
(658,1058,o),
(597,1030,cs),
(536,1003,o),
(482,961,o),
(434,900,c),
(526,808,l),
(526,1440,l),
(128,1440,l),
(128,0,l),
(468,0,l),
(468,282,l),
(414,192,l),
(449,103,o),
(525,35,o),
(630,-2,c),
(681,-22,o),
(736,-30,o),
(800,-30,cs)
);
},
{
closed = 1;
nodes = (
(650,310,o),
(589,344,o),
(554,409,c),
(534,440,o),
(526,477,o),
(526,520,cs),
(526,608,o),
(563,672,o),
(624,705,cs),
(656,722,o),
(687,730,o),
(726,730,cs),
(803,730,o),
(866,697,o),
(901,632,c),
(918,603,o),
(926,563,o),
(926,520,cs),
(926,432,o),
(889,371,o),
(828,336,cs),
(799,319,o),
(765,310,o),
(726,310,cs)
);
}
);
width = 1364;
},
{
layerId = "C851E168-A0F3-4A98-BB70-DDAB26A4D58F";
shapes = (
{
closed = 1;
nodes = (
(926,-30,o),
(1052,25,o),
(1148,126,cs),
(1242,224,o),
(1293,359,o),
(1293,520,cs),
(1293,626,o),
(1273,715,o),
(1227,800,cs),
(1183,884,o),
(1122,949,o),
(1043,999,c),
(961,1047,o),
(875,1070,o),
(769,1070,cs),
(677,1070,o),
(602,1054,o),
(532,1016,cs),
(464,978,o),
(408,928,o),
(360,861,c),
(416,802,l),
(416,1440,l),
(156,1440,l),
(156,0,l),
(387,0,l),
(387,264,l),
(350,206,l),
(399,113,o),
(479,40,o),
(590,-1,cs),
(644,-22,o),
(704,-30,o),
(773,-30,cs)
);
},
{
closed = 1;
nodes = (
(605,198,o),
(512,250,o),
(458,350,c),
(429,398,o),
(416,453,o),
(416,520,cs),
(416,655,o),
(472,753,o),
(566,804,cs),
(614,830,o),
(664,842,o),
(725,842,cs),
(846,842,o),
(941,792,o),
(996,692,cs),
(1022,645,o),
(1034,587,o),
(1034,520,cs),
(1034,386,o),
(980,292,o),
(884,238,c),
(839,211,o),
(786,198,o),
(725,198,cs)
);
}
);
width = 1361;
},
{
layerId = "95DC38C8-633C-4490-9AF5-01E2DA151EE8";
shapes = (
{
closed = 1;
nodes = (
(902,-30,o),
(1032,28,o),
(1128,132,cs),
(1223,233,o),
(1272,368,o),
(1272,520,cs),
(1272,624,o),
(1252,711,o),
(1206,797,cs),
(1162,880,o),
(1101,947,o),
(1023,999,c),
(940,1048,o),
(854,1070,o),
(745,1070,cs),
(633,1070,o),
(545,1050,o),
(467,1001,c),
(392,952,o),
(333,895,o),
(286,821,c),
(305,795,l),
(305,1440,l),
(184,1440,l),
(184,0,l),
(305,0,l),
(305,245,l),
(286,219,l),
(348,122,o),
(432,44,o),
(549,1,c),
(606,-22,o),
(672,-30,o),
(745,-30,cs)
);
},
{
closed = 1;
nodes = (
(559,86,o),
(434,156,o),
(361,290,c),
(323,355,o),
(305,429,o),
(305,520,cs),
(305,701,o),
(380,833,o),
(507,902,cs),
(572,938,o),
(641,953,o),
(724,953,cs),
(889,953,o),
(1016,886,o),
(1090,752,cs),
(1126,687,o),
(1142,611,o),
(1142,520,cs),
(1142,339,o),
(1070,212,o),
(940,139,cs),
(879,103,o),
(807,86,o),
(724,86,cs)
);
}
);
width = 1358;
}
);
leftKerningGroup = _b2;
rightKerningGroup = _b;
unicode = 98;
},
{
glyphname = c;
layers = (
{
layerId = "754C31AE-F388-4929-9E05-D72B02926026";
shapes = (
{
closed = 1;
nodes = (
(712,-30,o),
(790,-18,o),
(870,10,c),
(950,34,o),
(1018,69,o),
(1078,114,c),
(926,416,l),
(887,381,o),
(849,355,o),
(806,336,c),
(763,320,o),
(721,310,o),
(674,310,cs),
(602,310,o),
(546,329,o),
(506,366,c),
(463,403,o),
(444,455,o),
(444,520,cs),
(444,609,o),
(481,672,o),
(549,707,c),
(585,722,o),
(624,730,o),
(672,730,cs),
(756,730,o),
(832,702,o),
(900,638,c),
(1070,932,l),
(957,1025,o),
(815,1070,o),
(644,1070,cs),
(473,1070,o),
(330,1013,o),
(222,913,cs),
(113,813,o),
(50,677,o),
(50,520,cs),
(50,416,o),
(76,324,o),
(128,240,cs),
(179,155,o),
(247,90,o),
(335,43,cs),
(423,-5,o),
(519,-30,o),
(632,-30,cs)
);
}
);
width = 1106;
},
{
layerId = "C851E168-A0F3-4A98-BB70-DDAB26A4D58F";
shapes = (
{
closed = 1;
nodes = (
(713,-30,o),
(783,-21,o),
(853,7,c),
(923,30,o),
(984,62,o),
(1041,105,c),
(924,302,l),
(891,271,o),
(854,246,o),
(807,226,c),
(761,208,o),
(714,198,o),
(662,198,cs),
(559,198,o),
(480,226,o),
(421,284,cs),
(360,341,o),
(331,421,o),
(331,521,cs),
(331,658,o),
(386,754,o),
(485,807,c),
(536,830,o),
(593,842,o),
(662,842,cs),
(754,842,o),
(838,815,o),
(903,757,c),
(1025,954,l),
(923,1035,o),
(802,1070,o),
(653,1070,cs),
(484,1070,o),
(342,1016,o),
(236,916,cs),
(129,816,o),
(69,679,o),
(69,520,cs),
(69,416,o),
(93,322,o),
(144,239,c),
(193,153,o),
(259,89,o),
(345,42,cs),
(431,-7,o),
(527,-30,o),
(638,-30,cs)
);
}
);
width = 1090;
},
{
layerId = "95DC38C8-633C-4490-9AF5-01E2DA151EE8";
shapes = (
{
closed = 1;
nodes = (
(713,-30,o),
(775,-23,o),
(835,3,c),
(896,25,o),
(950,55,o),
(1003,95,c),
(921,188,l),
(894,161,o),
(859,136,o),
(808,115,c),
(759,96,o),
(706,86,o),
(650,86,cs),
(516,86,o),
(413,123,o),
(335,201,cs),
(256,279,o),
(217,387,o),
(217,522,cs),
(217,707,o),
(290,835,o),
(421,906,c),
(487,937,o),
(561,953,o),
(652,953,cs),
(752,953,o),
(844,927,o),
(906,875,c),
(979,975,l),
(888,1045,o),
(788,1070,o),
(661,1070,cs),
(495,1070,o),
(354,1018,o),
(250,919,cs),
(145,819,o),
(87,681,o),
(87,520,cs),
(87,415,o),
(110,320,o),
(159,237,c),
(206,151,o),
(271,88,o),
(354,41,c),
(438,-8,o),
(534,-30,o),
(643,-30,cs)
);
}
);
width = 1074;
}
);
leftKerningGroup = _c2;
rightKerningGroup = _c;
unicode = 99;
},
{
glyphname = d;
layers = (
{
layerId = "754C31AE-F388-4929-9E05-D72B02926026";
shapes = (
{
closed = 1;
nodes = (
(657,-30,o),
(738,-9,o),
(810,31,c),
(878,72,o),
(926,124,o),
(950,192,c),
(896,282,l),
(896,0,l),
(1236,0,l),
(1236,1440,l),
(836,1440,l),
(836,808,l),
(930,900,l),
(882,961,o),
(829,1003,o),
(769,1030,cs),
(708,1058,o),
(644,1070,o),
(572,1070,cs),
(419,1070,o),
(293,1014,o),
(197,914,c),
(105,814,o),
(50,680,o),
(50,520,cs),
(50,407,o),
(72,311,o),
(119,227,c),
(163,143,o),
(222,82,o),
(302,38,c),
(382,-9,o),
(467,-30,o),
(564,-30,cs)
);
},
{
closed = 1;
nodes = (
(562,310,o),
(501,344,o),
(466,409,c),
(446,440,o),
(438,477,o),
(438,520,cs),
(438,608,o),
(475,672,o),
(536,705,cs),
(568,722,o),
(599,730,o),
(638,730,cs),
(715,730,o),
(778,697,o),
(813,632,c),
(830,603,o),
(838,563,o),
(838,520,cs),
(838,432,o),
(801,371,o),
(740,336,cs),
(711,319,o),
(677,310,o),
(638,310,cs)
);
}
);
width = 1364;
},
{
layerId = "C851E168-A0F3-4A98-BB70-DDAB26A4D58F";
shapes = (
{
closed = 1;
nodes = (
(694,-30,o),
(783,-9,o),
(854,34,cs),
(923,76,o),
(977,130,o),
(1011,197,c),
(975,256,l),
(975,0,l),
(1205,0,l),
(1205,1440,l),
(945,1440,l),
(945,806,l),
(1001,865,l),
(954,932,o),
(898,981,o),
(831,1018,cs),
(763,1055,o),
(685,1070,o),
(593,1070,cs),
(438,1070,o),
(311,1015,o),
(215,913,c),
(123,811,o),
(69,677,o),
(69,520,cs),
(69,414,o),
(90,319,o),
(137,236,c),
(180,152,o),
(241,89,o),
(320,41,cs),
(401,-9,o),
(488,-30,o),
(589,-30,cs)
);
},
{
closed = 1;
nodes = (
(516,198,o),
(424,250,o),
(369,350,c),
(340,398,o),
(328,453,o),
(328,520,cs),
(328,655,o),
(383,753,o),
(477,804,cs),
(526,830,o),
(576,842,o),
(637,842,cs),
(758,842,o),
(853,792,o),
(907,692,c),
(934,645,o),
(946,587,o),
(946,520,cs),
(946,386,o),
(891,292,o),
(796,238,cs),
(751,211,o),
(698,198,o),
(637,198,cs)
);
}
);
width = 1361;
},
{
layerId = "95DC38C8-633C-4490-9AF5-01E2DA151EE8";
shapes = (
{
closed = 1;
nodes = (
(731,-30,o),
(828,-9,o),
(898,36,cs),
(967,80,o),
(1028,136,o),
(1072,201,c),
(1053,230,l),
(1053,0,l),
(1174,0,l),
(1174,1440,l),
(1053,1440,l),
(1053,804,l),
(1072,830,l),
(1026,903,o),
(966,959,o),
(893,1005,cs),
(818,1052,o),
(726,1070,o),
(613,1070,cs),
(456,1070,o),
(328,1015,o),
(233,911,cs),
(141,807,o),
(87,673,o),
(87,520,cs),
(87,420,o),
(107,327,o),
(154,244,c),
(197,161,o),
(259,95,o),
(338,44,cs),
(420,-8,o),
(508,-30,o),
(613,-30,cs)
);
},
{
closed = 1;
nodes = (
(470,86,o),
(346,156,o),
(272,290,c),
(234,355,o),
(217,429,o),
(217,520,cs),
(217,701,o),
(291,833,o),
(418,902,cs),
(483,938,o),
(552,953,o),
(635,953,cs),
(801,953,o),
(927,886,o),
(1001,752,cs),
(1037,687,o),
(1053,611,o),
(1053,520,cs),
(1053,339,o),
(981,212,o),
(851,139,cs),
(790,103,o),
(718,86,o),
(635,86,cs)
);
}
);
width = 1358;
}
);
leftKerningGroup = _c2;
rightKerningGroup = _d;
unicode = 100;
},
{
glyphname = e;
layers = (
{
layerId = "754C31AE-F388-4929-9E05-D72B02926026";
shapes = (
{
closed = 1;
nodes = (
(740,-30,o),
(866,-5,o),
(971,34,c),
(1027,53,o),
(1066,77,o),
(1097,98,c),
(980,362,l),
(927,331,o),
(874,308,o),
(818,293,cs),
(762,278,o),
(704,270,o),
(640,270,cs),
(552,270,o),
(483,296,o),
(443,336,cs),
(423,357,o),
(412,383,o),
(408,408,c),
(1158,408,l),
(1197,601,o),
(1160,758,o),
(1063,882,cs),
(967,1003,o),
(821,1070,o),
(628,1070,cs),
(456,1070,o),
(318,1015,o),
(213,918,c),
(109,818,o),
(50,683,o),
(50,522,cs),
(50,299,o),
(148,132,o),
(327,40,c),
(415,-8,o),
(515,-30,o),
(632,-30,cs)
);
},
{
closed = 1;
nodes = (
(434,668,l),
(437,705,o),
(455,733,o),
(491,757,cs),
(524,780,o),
(565,790,o),
(616,790,cs),
(667,790,o),
(707,780,o),
(736,757,cs),
(768,733,o),
(783,705,o),
(782,668,c)
);
}
);
width = 1223;
},
{
layerId = "C851E168-A0F3-4A98-BB70-DDAB26A4D58F";
shapes = (
{
closed = 1;
nodes = (
(735,-30,o),
(846,-10,o),
(942,29,c),
(994,49,o),
(1032,74,o),
(1065,98,c),
(971,281,l),
(926,248,o),
(876,222,o),
(820,204,cs),
(765,186,o),
(708,178,o),
(647,178,cs),
(510,178,o),
(409,228,o),
(354,311,c),
(329,354,o),
(315,404,o),
(315,458,c),
(1131,458,l),
(1158,637,o),
(1120,782,o),
(1028,897,cs),
(939,1009,o),
(803,1070,o),
(624,1070,cs),
(462,1070,o),
(329,1015,o),
(226,917,c),
(127,815,o),
(69,680,o),
(69,519,cs),
(69,298,o),
(166,131,o),
(340,39,c),
(426,-9,o),
(523,-30,o),
(636,-30,cs)
);
},
{
closed = 1;
nodes = (
(330,644,l),
(337,717,o),
(366,770,o),
(421,813,cs),
(473,855,o),
(538,872,o),
(618,872,cs),
(700,872,o),
(762,855,o),
(807,813,cs),
(854,770,o),
(877,717,o),
(878,644,c)
);
}
);
width = 1208;
},
{
layerId = "95DC38C8-633C-4490-9AF5-01E2DA151EE8";
shapes = (
{
closed = 1;
nodes = (
(730,-30,o),
(825,-15,o),
(913,24,cs),
(960,44,o),
(998,70,o),
(1033,97,c),
(962,199,l),
(924,164,o),
(877,135,o),
(822,115,cs),
(767,94,o),
(711,86,o),
(654,86,cs),
(468,86,o),
(335,159,o),
(265,286,c),
(234,351,o),
(218,424,o),
(221,507,c),
(1103,507,l),
(1119,672,o),
(1080,806,o),
(993,911,cs),
(910,1015,o),
(784,1070,o),
(620,1070,cs),
(467,1070,o),
(339,1015,o),
(239,915,c),
(144,811,o),
(87,677,o),
(87,516,cs),
(87,296,o),
(184,129,o),
(353,38,c),
(437,-10,o),
(531,-30,o),
(639,-30,cs)
);
},
{
closed = 1;
nodes = (
(225,620,l),
(237,728,o),
(277,807,o),
(351,869,cs),
(421,929,o),
(510,953,o),
(620,953,cs),
(733,953,o),
(817,929,o),
(877,869,cs),
(939,807,o),
(970,728,o),
(973,620,c)
);
}
);
width = 1193;
}
);
leftKerningGroup = _c2;
rightKerningGroup = _b;
unicode = 101;
},
{
glyphname = f;
layers = (
{
layerId = "754C31AE-F388-4929-9E05-D72B02926026";
shapes = (
{
closed = 1;
nodes = (
(204,0,l),
(604,0,l),
(604,728,l),
(846,728,l),
(846,1040,l),
(604,1040,l),
(604,1064,ls),
(604,1089,o),
(612,1108,o),
(632,1123,c),
(649,1138,o),
(673,1144,o),
(706,1144,cs),
(738,1144,o),
(773,1139,o),
(810,1116,c),
(864,1416,l),
(780,1457,o),
(700,1470,o),
(616,1470,cs),
(480,1470,o),
(382,1437,o),
(310,1365,cs),
(238,1293,o),
(204,1203,o),
(204,1086,cs)
);
},
{
closed = 1;
nodes = (
(40,728,l),
(236,728,l),
(236,1040,l),
(40,1040,l)
);
}
);
width = 884;
},
{
layerId = "C851E168-A0F3-4A98-BB70-DDAB26A4D58F";
shapes = (
{
closed = 1;
nodes = (
(242,0,l),
(497,0,l),
(497,832,l),
(753,832,l),
(753,1040,l),
(497,1040,l),
(497,1127,ls),
(497,1172,o),
(509,1204,o),
(535,1224,cs),
(559,1244,o),
(588,1253,o),
(628,1253,cs),
(662,1253,o),
(698,1247,o),
(736,1225,c),
(779,1424,l),
(722,1455,o),
(658,1470,o),
(582,1470,cs),
(474,1470,o),
(393,1442,o),
(332,1381,cs),
(272,1321,o),
(242,1242,o),
(242,1139,cs)
);
},
{
closed = 1;
nodes = (
(50,832,l),
(271,832,l),
(271,1040,l),
(50,1040,l)
);
}
);
width = 799;
},
{
layerId = "95DC38C8-633C-4490-9AF5-01E2DA151EE8";
shapes = (
{
closed = 1;
nodes = (
(280,0,l),
(390,0,l),
(390,936,l),
(660,936,l),
(660,1040,l),
(390,1040,l),
(390,1190,ls),
(390,1255,o),
(405,1300,o),
(437,1325,cs),
(468,1350,o),
(503,1362,o),
(550,1362,cs),
(585,1362,o),
(622,1354,o),
(662,1334,c),
(694,1432,l),
(663,1453,o),
(616,1470,o),
(548,1470,cs),
(467,1470,o),
(403,1446,o),
(354,1397,cs),
(306,1348,o),
(280,1280,o),
(280,1192,cs)
);
},
{
closed = 1;
nodes = (
(60,936,l),
(306,936,l),
(306,1040,l),
(60,1040,l)
);
}
);
width = 714;
}
);
leftKerningGroup = _f2;
rightKerningGroup = _f;
unicode = 102;
},
{
glyphname = g;
layers = (
{
layerId = "754C31AE-F388-4929-9E05-D72B02926026";
shapes = (
{
closed = 1;
nodes = (
(726,-450,o),
(881,-412,o),
(994,-344,cs),
(1107,-275,o),
(1168,-180,o),
(1168,-72,cs),
(1168,57,o),
(1094,134,o),
(965,175,c),
(901,198,o),
(830,211,o),
(742,218,cs),
(564,234,ls),
(517,238,o),
(489,245,o),
(474,253,c),
(459,264,o),
(452,273,o),
(452,282,cs),
(452,302,o),
(469,316,o),
(509,325,c),
(530,326,o),
(557,331,o),
(592,328,c),
(526,470,l),
(417,475,o),
(323,446,o),
(250,398,cs),
(178,350,o),
(136,289,o),
(136,220,cs),
(136,138,o),
(180,76,o),
(280,25,c),
(282,70,l),
(166,54,o),
(20,-37,o),
(20,-172,cs),
(20,-257,o),
(71,-326,o),
(159,-375,c),
(251,-424,o),
(373,-450,o),
(530,-450,cs)
);
},
{
closed = 1;
nodes = (
(498,-208,o),
(426,-193,o),
(387,-168,cs),
(368,-155,o),
(358,-139,o),
(358,-122,cs),
(358,-97,o),
(376,-76,o),
(413,-61,cs),
(430,-54,o),
(451,-49,o),
(476,-46,c),
(678,-62,ls),
(775,-70,o),
(810,-85,o),
(810,-126,cs),
(810,-153,o),
(787,-174,o),
(744,-189,cs),
(707,-201,o),
(658,-208,o),
(594,-208,cs)
);
},
{
closed = 1;
nodes = (
(767,320,o),
(909,392,o),
(989,508,cs),
(1029,564,o),
(1048,627,o),
(1048,696,cs),
(1048,837,o),
(965,953,o),
(820,1021,cs),
(748,1054,o),
(670,1070,o),
(574,1070,cs),
(386,1070,o),
(240,999,o),
(160,886,cs),
(117,826,o),
(98,765,o),
(98,696,cs),
(98,551,o),
(179,438,o),
(324,370,cs),
(397,337,o),
(478,320,o),
(574,320,cs)
);
},
{
closed = 1;
nodes = (
(531,580,o),
(497,592,o),
(469,613,cs),
(440,634,o),
(424,661,o),
(424,696,cs),
(424,743,o),
(454,778,o),
(499,797,c),
(520,808,o),
(546,812,o),
(574,812,cs),
(617,812,o),
(652,801,o),
(680,780,c),
(711,759,o),
(724,731,o),
(724,696,cs),
(724,652,o),
(694,615,o),
(649,595,c),
(628,584,o),
(602,580,o),
(574,580,cs)
);
},
{
closed = 1;
nodes = (
(1228,1040,l),
(574,1040,l),
(677,828,l),
(801,793,o),
(902,768,o),
(986,752,cs),
(1069,736,o),
(1135,728,o),
(1188,728,c)
);
}
);
width = 1250;
},
{
layerId = "C851E168-A0F3-4A98-BB70-DDAB26A4D58F";
shapes = (
{
closed = 1;
nodes = (
(731,-450,o),
(875,-413,o),
(978,-349,cs),
(1082,-283,o),
(1139,-193,o),
(1139,-92,cs),
(1139,30,o),
(1071,106,o),
(947,147,c),
(886,170,o),
(814,182,o),
(726,189,cs),
(550,204,ls),
(501,208,o),
(466,217,o),
(441,225,c),
(416,237,o),
(403,252,o),
(403,272,cs),
(403,306,o),
(434,329,o),
(490,343,c),
(520,348,o),
(553,353,o),
(595,351,c),
(542,458,l),
(438,455,o),
(351,427,o),
(285,385,cs),
(221,342,o),
(184,290,o),
(184,228,cs),
(184,150,o),
(233,94,o),
(338,47,c),
(340,95,l),
(184,71,o),
(55,-46,o),
(55,-162,cs),
(55,-250,o),
(103,-321,o),
(190,-372,cs),
(278,-423,o),
(399,-450,o),
(554,-450,cs)
);
},
{
closed = 1;
nodes = (
(463,-278,o),
(375,-252,o),
(326,-208,cs),
(302,-186,o),
(290,-160,o),
(290,-131,cs),
(290,-82,o),
(320,-44,o),
(381,-20,cs),
(410,-9,o),
(443,-1,o),
(485,2,c),
(676,-12,ls),
(828,-23,o),
(895,-58,o),
(895,-128,cs),
(895,-173,o),
(866,-209,o),
(809,-237,cs),
(754,-264,o),
(681,-278,o),
(585,-278,cs)
);
},
{
closed = 1;
nodes = (
(752,336,o),
(890,407,o),
(970,520,c),
(1010,573,o),
(1028,636,o),
(1028,704,cs),
(1028,842,o),
(945,956,o),
(807,1022,cs),
(739,1055,o),
(664,1070,o),
(575,1070,cs),
(401,1070,o),
(262,1002,o),
(182,890,cs),
(140,833,o),
(121,772,o),
(121,704,cs),
(121,563,o),
(203,452,o),
(341,386,cs),
(412,353,o),
(487,336,o),
(575,336,cs)
);
},
{
closed = 1;
nodes = (
(509,523,o),
(456,542,o),
(415,574,cs),
(372,607,o),
(350,650,o),
(350,704,cs),
(350,776,o),
(392,831,o),
(459,861,c),
(492,877,o),
(531,884,o),
(575,884,cs),
(643,884,o),
(696,868,o),
(737,834,c),
(780,802,o),
(800,758,o),
(800,704,cs),
(800,633,o),
(759,577,o),
(691,546,cs),
(659,531,o),
(621,523,o),
(575,523,cs)
);
},
{
closed = 1;
nodes = (
(1172,829,l),
(1204,1039,l),
(636,1039,l),
(698,905,l),
(800,878,o),
(884,859,o),
(955,847,cs),
(1026,835,o),
(1086,829,o),
(1141,829,cs)
);
}
);
width = 1236;
},
{
layerId = "95DC38C8-633C-4490-9AF5-01E2DA151EE8";
shapes = (
{
closed = 1;
nodes = (
(735,-450,o),
(868,-413,o),
(962,-353,c),
(1056,-290,o),
(1110,-205,o),
(1110,-112,cs),
(1110,2,o),
(1048,77,o),
(929,119,c),
(870,141,o),
(798,153,o),
(709,160,cs),
(535,173,ls),
(484,177,o),
(442,188,o),
(407,197,c),
(372,210,o),
(354,231,o),
(354,261,cs),
(354,309,o),
(399,341,o),
(471,361,c),
(509,369,o),
(549,374,o),
(597,373,c),
(557,445,l),
(458,434,o),
(379,408,o),
(320,371,c),
(264,334,o),
(231,291,o),
(231,236,cs),
(231,163,o),
(287,111,o),
(397,70,c),
(398,119,l),
(264,98,o),
(90,3,o),
(90,-152,cs),
(90,-242,o),
(135,-315,o),
(220,-368,cs),
(305,-421,o),
(425,-450,o),
(578,-450,cs)
);
},
{
closed = 1;
nodes = (
(427,-347,o),
(323,-311,o),
(264,-247,cs),
(236,-217,o),
(221,-181,o),
(221,-140,cs),
(221,-67,o),
(263,-12,o),
(348,21,cs),
(389,37,o),
(434,47,o),
(493,50,c),
(673,38,ls),
(880,24,o),
(979,-31,o),
(979,-129,cs),
(979,-192,o),
(945,-244,o),
(873,-285,cs),
(801,-327,o),
(703,-347,o),
(576,-347,cs)
);
},
{
closed = 1;
nodes = (
(737,352,o),
(870,421,o),
(950,531,c),
(991,582,o),
(1008,644,o),
(1008,711,cs),
(1008,847,o),
(925,958,o),
(793,1023,cs),
(729,1055,o),
(657,1070,o),
(576,1070,cs),
(415,1070,o),
(283,1004,o),
(203,894,cs),
(162,839,o),
(143,779,o),
(143,711,cs),
(143,575,o),
(226,465,o),
(358,401,cs),
(426,368,o),
(495,352,o),
(576,352,cs)
);
},
{
closed = 1;
nodes = (
(486,466,o),
(414,492,o),
(360,535,cs),
(304,580,o),
(276,638,o),
(276,711,cs),
(276,809,o),
(330,884,o),
(419,925,cs),
(463,945,o),
(515,956,o),
(576,956,cs),
(668,956,o),
(739,934,o),
(793,888,c),
(849,845,o),
(875,784,o),
(875,711,cs),
(875,614,o),
(823,538,o),
(733,497,cs),
(690,477,o),
(639,466,o),
(576,466,cs)
);
},
{
closed = 1;
nodes = (
(1156,929,l),
(1179,1038,l),
(698,1038,l),
(719,981,l),
(799,963,o),
(865,950,o),
(924,941,cs),
(983,933,o),
(1037,929,o),
(1093,929,cs)
);
}
);
width = 1221;
}
);
leftKerningGroup = _g2;
rightKerningGroup = _g;
unicode = 103;
},
{
glyphname = h;
layers = (
{
layerId = "754C31AE-F388-4929-9E05-D72B02926026";
shapes = (
{
closed = 1;
nodes = (
(128,0,l),
(528,0,l),
(528,534,ls),
(528,610,o),
(552,663,o),
(597,690,cs),
(621,705,o),
(650,713,o),
(686,710,c),
(739,710,o),
(778,693,o),
(807,661,c),
(834,629,o),
(848,586,o),
(848,534,cs),
(848,0,l),
(1248,0,l),
(1248,646,ls),
(1248,722,o),
(1233,793,o),
(1200,857,cs),
(1165,921,o),
(1117,975,o),
(1052,1012,cs),
(984,1052,o),
(904,1070,o),
(804,1070,cs),
(728,1070,o),
(661,1056,o),
(601,1021,c),
(540,989,o),
(488,948,o),
(444,896,c),
(528,794,l),
(528,1440,l),
(128,1440,l)
);
}
);
width = 1366;
},
{
layerId = "C851E168-A0F3-4A98-BB70-DDAB26A4D58F";
shapes = (
{
closed = 1;
nodes = (
(156,0,l),
(417,0,l),
(417,598,ls),
(417,705,o),
(461,783,o),
(535,823,c),
(573,846,o),
(615,857,o),
(664,855,c),
(739,855,o),
(794,833,o),
(839,790,c),
(881,747,o),
(902,690,o),
(902,620,cs),
(902,0,l),
(1163,0,l),
(1163,695,ls),
(1163,763,o),
(1148,827,o),
(1116,888,c),
(1082,948,o),
(1036,1000,o),
(973,1036,c),
(908,1075,o),
(829,1093,o),
(734,1093,cs),
(661,1093,o),
(594,1080,o),
(529,1045,c),
(464,1014,o),
(409,968,o),
(363,904,c),
(417,844,l),
(417,1440,l),
(156,1440,l)
);
}
);
width = 1308;
},
{
layerId = "95DC38C8-633C-4490-9AF5-01E2DA151EE8";
shapes = (
{
closed = 1;
nodes = (
(184,0,l),
(305,0,l),
(305,661,ls),
(305,799,o),
(369,902,o),
(473,955,c),
(524,986,o),
(580,1000,o),
(641,999,c),
(738,1000,o),
(810,973,o),
(871,918,cs),
(927,864,o),
(955,794,o),
(955,706,cs),
(955,0,l),
(1077,0,l),
(1077,743,ls),
(1077,804,o),
(1063,861,o),
(1032,918,c),
(999,975,o),
(954,1024,o),
(893,1059,c),
(832,1098,o),
(754,1116,o),
(663,1116,cs),
(593,1116,o),
(526,1103,o),
(457,1069,c),
(387,1039,o),
(329,987,o),
(282,912,c),
(305,893,l),
(305,1440,l),
(184,1440,l)
);
}
);
width = 1250;
}
);
leftKerningGroup = _b2;
rightKerningGroup = _a;
unicode = 104;
},
{
glyphname = k;
layers = (
{
layerId = "754C31AE-F388-4929-9E05-D72B02926026";
shapes = (
{
closed = 1;
nodes = (
(128,0,l),
(528,0,l),
(528,276,l),
(588,344,l),
(788,0,l),
(1258,0,l),
(878,606,l),
(1240,1040,l),
(780,1040,l),
(528,744,l),
(528,1440,l),
(128,1440,l)
);
}
);
width = 1272;
},
{
layerId = "C851E168-A0F3-4A98-BB70-DDAB26A4D58F";
shapes = (
{
closed = 1;
nodes = (
(156,0,l),
(417,0,l),
(417,331,l),
(549,466,l),
(842,0,l),
(1152,0,l),
(738,636,l),
(1104,1040,l),
(799,1040,l),
(417,640,l),
(417,1440,l),
(156,1440,l)
);
}
);
width = 1192;
},
{
layerId = "95DC38C8-633C-4490-9AF5-01E2DA151EE8";
shapes = (
{
closed = 1;
nodes = (
(184,0,l),
(305,0,l),
(305,386,l),
(509,587,l),
(895,0,l),
(1046,0,l),
(598,665,l),
(968,1040,l),
(817,1040,l),
(305,535,l),
(305,1440,l),
(184,1440,l)
);
}
);
width = 1111;
}
);
leftKerningGroup = _b2;
rightKerningGroup = _k;
unicode = 107;
},
{
glyphname = l;
layers = (
{
layerId = "754C31AE-F388-4929-9E05-D72B02926026";
shapes = (
{
closed = 1;
nodes = (
(584,-28,o),
(664,-15,o),
(748,8,c),
(700,322,l),
(671,314,o),
(643,306,o),
(618,306,cs),
(591,306,o),
(569,314,o),
(552,333,c),
(537,353,o),
(528,383,o),
(528,426,cs),
(528,1440,l),
(128,1440,l),
(128,384,ls),
(128,191,o),
(191,76,o),
(311,16,c),
(367,-15,o),
(436,-28,o),
(512,-28,cs)
);
}
);
width = 770;
},
{
layerId = "C851E168-A0F3-4A98-BB70-DDAB26A4D58F";
shapes = (
{
closed = 1;
nodes = (
(508,-28,o),
(576,-14,o),
(642,7,c),
(602,214,l),
(569,203,o),
(538,193,o),
(509,193,cs),
(474,193,o),
(448,203,o),
(430,226,c),
(415,250,o),
(405,287,o),
(405,341,cs),
(405,1440,l),
(149,1440,l),
(149,282,ls),
(149,138,o),
(200,50,o),
(294,5,c),
(337,-18,o),
(390,-28,o),
(448,-28,cs)
);
}
);
width = 679;
},
{
layerId = "95DC38C8-633C-4490-9AF5-01E2DA151EE8";
shapes = (
{
closed = 1;
nodes = (
(432,-28,o),
(488,-13,o),
(536,6,c),
(504,106,l),
(467,91,o),
(432,80,o),
(400,80,cs),
(356,80,o),
(327,92,o),
(308,119,c),
(292,146,o),
(282,191,o),
(282,256,cs),
(282,1440,l),
(170,1440,l),
(170,180,ls),
(170,84,o),
(208,23,o),
(276,-6,c),
(307,-21,o),
(344,-28,o),
(384,-28,cs)
);
}
);
width = 587;
}
);
leftKerningGroup = _b2;
rightKerningGroup = _d;
unicode = 108;
},
{
glyphname = m;
layers = (
{
layerId = "754C31AE-F388-4929-9E05-D72B02926026";
shapes = (
{
closed = 1;
nodes = (
(128,0,l),
(528,0,l),
(528,586,ls),
(528,631,o),
(552,670,o),
(596,693,c),
(619,704,o),
(644,710,o),
(672,710,cs),
(720,710,o),
(754,696,o),
(781,667,c),
(805,638,o),
(818,599,o),
(818,548,cs),
(818,0,l),
(1218,0,l),
(1218,586,ls),
(1218,631,o),
(1242,670,o),
(1286,693,c),
(1309,704,o),
(1334,710,o),
(1362,710,cs),
(1410,710,o),
(1444,696,o),
(1471,667,c),
(1495,638,o),
(1508,599,o),
(1508,548,cs),
(1508,0,l),
(1908,0,l),
(1908,662,ls),
(1908,735,o),
(1895,800,o),
(1874,861,c),
(1849,925,o),
(1810,975,o),
(1750,1012,c),
(1690,1052,o),
(1612,1070,o),
(1508,1070,cs),
(1427,1070,o),
(1351,1053,o),
(1282,1024,c),
(1213,991,o),
(1163,947,o),
(1128,886,c),
(1109,946,o),
(1075,990,o),
(1019,1022,cs),
(963,1054,o),
(902,1070,o),
(830,1070,cs),
(754,1070,o),
(676,1046,o),
(612,1003,c),
(579,979,o),
(552,952,o),
(528,920,c),
(528,1040,l),
(128,1040,l)
);
}
);
width = 2026;
},
{
layerId = "C851E168-A0F3-4A98-BB70-DDAB26A4D58F";
shapes = (
{
closed = 1;
nodes = (
(156,0,l),
(417,0,l),
(417,602,ls),
(417,694,o),
(460,764,o),
(534,803,cs),
(572,823,o),
(613,832,o),
(657,832,cs),
(729,832,o),
(781,814,o),
(820,771,c),
(856,729,o),
(874,675,o),
(874,606,cs),
(874,0,l),
(1135,0,l),
(1135,602,ls),
(1135,694,o),
(1178,764,o),
(1252,803,cs),
(1290,823,o),
(1330,832,o),
(1375,832,cs),
(1447,832,o),
(1498,814,o),
(1537,771,c),
(1573,729,o),
(1592,675,o),
(1592,606,cs),
(1592,0,l),
(1852,0,l),
(1852,681,ls),
(1852,748,o),
(1839,809,o),
(1816,868,c),
(1789,930,o),
(1750,978,o),
(1691,1014,c),
(1632,1054,o),
(1556,1070,o),
(1458,1070,cs),
(1388,1070,o),
(1317,1056,o),
(1248,1030,c),
(1179,998,o),
(1122,950,o),
(1072,875,c),
(1050,934,o),
(1013,982,o),
(956,1017,cs),
(899,1053,o),
(831,1070,o),
(747,1070,cs),
(665,1070,o),
(584,1047,o),
(513,999,c),
(477,972,o),
(446,940,o),
(417,901,c),
(417,1040,l),
(156,1040,l)
);
}
);
width = 1998;
},
{
layerId = "95DC38C8-633C-4490-9AF5-01E2DA151EE8";
shapes = (
{
closed = 1;
nodes = (
(184,0,l),
(305,0,l),
(305,617,ls),
(305,756,o),
(368,858,o),
(472,913,c),
(524,942,o),
(581,953,o),
(641,953,cs),
(738,953,o),
(807,931,o),
(858,875,c),
(906,820,o),
(929,751,o),
(929,663,cs),
(929,0,l),
(1051,0,l),
(1051,617,ls),
(1051,756,o),
(1114,858,o),
(1218,913,c),
(1270,942,o),
(1326,953,o),
(1387,953,cs),
(1483,953,o),
(1552,931,o),
(1603,875,c),
(1651,820,o),
(1675,751,o),
(1675,663,cs),
(1675,0,l),
(1796,0,l),
(1796,700,ls),
(1796,760,o),
(1783,818,o),
(1758,874,c),
(1729,935,o),
(1689,980,o),
(1631,1016,c),
(1574,1055,o),
(1500,1070,o),
(1408,1070,cs),
(1348,1070,o),
(1283,1059,o),
(1213,1035,c),
(1144,1005,o),
(1081,952,o),
(1016,864,c),
(990,922,o),
(950,973,o),
(893,1012,cs),
(835,1052,o),
(759,1070,o),
(663,1070,cs),
(575,1070,o),
(491,1048,o),
(413,994,c),
(374,964,o),
(339,928,o),
(305,882,c),
(305,1040,l),
(184,1040,l)
);
}
);
width = 1969;
}
);
leftKerningGroup = _m;
rightKerningGroup = _a;
unicode = 109;
},
{
glyphname = n;
layers = (
{
layerId = "754C31AE-F388-4929-9E05-D72B02926026";
shapes = (
{
closed = 1;
nodes = (
(128,0,l),
(528,0,l),
(528,536,ls),
(528,605,o),
(555,658,o),
(602,689,c),
(627,702,o),
(657,710,o),
(690,710,cs),
(746,710,o),
(784,697,o),
(811,665,cs),
(835,636,o),
(848,592,o),
(848,536,cs),
(848,0,l),
(1248,0,l),
(1248,662,ls),
(1248,735,o),
(1235,800,o),
(1204,861,cs),
(1172,925,o),
(1127,975,o),
(1062,1012,c),
(998,1052,o),
(917,1070,o),
(816,1070,cs),
(760,1070,o),
(708,1060,o),
(657,1040,cs),
(606,1019,o),
(564,987,o),
(528,944,c),
(528,1040,l),
(128,1040,l)
);
}
);
width = 1366;
},
{
layerId = "C851E168-A0F3-4A98-BB70-DDAB26A4D58F";
shapes = (
{
closed = 1;
nodes = (
(156,0,l),
(417,0,l),
(417,577,ls),
(417,681,o),
(464,758,o),
(537,802,c),
(576,822,o),
(619,832,o),
(666,832,cs),
(742,832,o),
(799,814,o),
(841,770,cs),
(881,729,o),
(902,671,o),
(902,600,cs),
(902,0,l),
(1163,0,l),
(1163,681,ls),
(1163,748,o),
(1149,809,o),
(1118,868,cs),
(1086,930,o),
(1043,978,o),
(978,1014,c),
(915,1054,o),
(838,1070,o),
(740,1070,cs),
(679,1070,o),
(622,1059,o),
(565,1035,cs),
(507,1010,o),
(459,970,o),
(417,914,c),
(417,1040,l),
(156,1040,l)
);
}
);
width = 1308;
},
{
layerId = "95DC38C8-633C-4490-9AF5-01E2DA151EE8";
shapes = (
{
closed = 1;
nodes = (
(184,0,l),
(305,0,l),
(305,617,ls),
(305,756,o),
(372,857,o),
(472,914,c),
(524,941,o),
(581,953,o),
(641,953,cs),
(738,953,o),
(814,931,o),
(871,874,cs),
(927,821,o),
(955,750,o),
(955,663,cs),
(955,0,l),
(1077,0,l),
(1077,700,ls),
(1077,760,o),
(1063,818,o),
(1032,874,cs),
(999,935,o),
(958,980,o),
(893,1016,c),
(832,1055,o),
(758,1070,o),
(663,1070,cs),
(598,1070,o),
(536,1058,o),
(472,1029,cs),
(407,1000,o),
(353,952,o),
(305,884,c),
(305,1040,l),
(184,1040,l)
);
}
);
width = 1250;
}
);
leftKerningGroup = _m;
rightKerningGroup = _a;
unicode = 110;
},
{
glyphname = o;
layers = (
{
layerId = "754C31AE-F388-4929-9E05-D72B02926026";
shapes = (
{
closed = 1;
nodes = (
(817,-30,o),
(959,33,o),
(1064,137,cs),
(1168,242,o),
(1226,375,o),
(1226,520,cs),
(1226,621,o),
(1201,711,o),
(1152,795,cs),
(1103,880,o),
(1034,946,o),
(946,995,cs),
(854,1047,o),
(758,1070,o),
(638,1070,cs),
(462,1070,o),
(319,1008,o),
(215,904,cs),
(110,799,o),
(50,665,o),
(50,520,cs),
(50,420,o),
(74,330,o),
(126,245,c),
(175,161,o),
(241,95,o),
(333,46,c),
(421,-6,o),
(521,-30,o),
(638,-30,cs)
);
},
{
closed = 1;
nodes = (
(562,310,o),
(501,344,o),
(466,409,c),
(446,440,o),
(438,477,o),
(438,520,cs),
(438,608,o),
(475,672,o),
(536,705,cs),
(568,722,o),
(599,730,o),
(638,730,cs),
(715,730,o),
(778,697,o),
(813,632,c),
(830,603,o),
(838,563,o),
(838,520,cs),
(838,432,o),
(801,371,o),
(740,336,cs),
(711,319,o),
(677,310,o),
(638,310,cs)
);
}
);
width = 1276;
},
{
layerId = "C851E168-A0F3-4A98-BB70-DDAB26A4D58F";
shapes = (
{
closed = 1;
nodes = (
(806,-30,o),
(944,32,o),
(1046,134,cs),
(1148,239,o),
(1205,371,o),
(1205,520,cs),
(1205,623,o),
(1180,713,o),
(1132,796,cs),
(1084,882,o),
(1017,948,o),
(932,997,cs),
(843,1049,o),
(751,1070,o),
(637,1070,cs),
(470,1070,o),
(332,1010,o),
(230,908,cs),
(128,803,o),
(69,669,o),
(69,520,cs),
(69,420,o),
(92,330,o),
(143,245,cs),
(191,161,o),
(255,94,o),
(344,45,c),
(430,-7,o),
(526,-30,o),
(637,-30,cs)
);
},
{
closed = 1;
nodes = (
(516,198,o),
(424,250,o),
(369,350,c),
(340,398,o),
(328,453,o),
(328,520,cs),
(328,655,o),
(383,753,o),
(477,804,cs),
(526,830,o),
(576,842,o),
(637,842,cs),
(758,842,o),
(853,792,o),
(907,692,c),
(934,645,o),
(946,587,o),
(946,520,cs),
(946,386,o),
(891,292,o),
(796,238,cs),
(751,211,o),
(698,198,o),
(637,198,cs)
);
}
);
width = 1273;
},
{
layerId = "95DC38C8-633C-4490-9AF5-01E2DA151EE8";
shapes = (
{
closed = 1;
nodes = (
(795,-30,o),
(928,30,o),
(1028,131,cs),
(1128,235,o),
(1183,367,o),
(1183,520,cs),
(1183,624,o),
(1159,714,o),
(1111,796,c),
(1065,883,o),
(1000,949,o),
(918,998,cs),
(831,1050,o),
(743,1070,o),
(635,1070,cs),
(478,1070,o),
(344,1012,o),
(245,911,cs),
(145,807,o),
(87,673,o),
(87,520,cs),
(87,420,o),
(110,330,o),
(159,244,cs),
(207,161,o),
(269,93,o),
(355,44,c),
(438,-8,o),
(531,-30,o),
(635,-30,cs)
);
},
{
closed = 1;
nodes = (
(470,86,o),
(346,156,o),
(272,290,c),
(234,355,o),
(217,429,o),
(217,520,cs),
(217,701,o),
(291,833,o),
(418,902,cs),
(483,938,o),
(552,953,o),
(635,953,cs),
(801,953,o),
(927,886,o),
(1001,752,cs),
(1037,687,o),
(1053,611,o),
(1053,520,cs),
(1053,339,o),
(981,212,o),
(851,139,cs),
(790,103,o),
(718,86,o),
(635,86,cs)
);
}
);
width = 1270;
}
);
leftKerningGroup = _c2;
rightKerningGroup = _b;
unicode = 111;
},
{
glyphname = p;
layers = (
{
layerId = "754C31AE-F388-4929-9E05-D72B02926026";
shapes = (
{
closed = 1;
nodes = (
(128,-400,l),
(526,-400,l),
(526,52,l),
(566,25,o),
(608,4,o),
(653,-9,cs),
(697,-22,o),
(745,-30,o),
(792,-30,cs),
(945,-30,o),
(1072,29,o),
(1168,129,c),
(1260,229,o),
(1314,363,o),
(1314,520,cs),
(1314,636,o),
(1294,730,o),
(1247,815,c),
(1203,899,o),
(1143,958,o),
(1063,1005,c),
(983,1049,o),
(897,1070,o),
(800,1070,cs),
(728,1070,o),
(666,1059,o),
(610,1036,cs),
(550,1012,o),
(505,981,o),
(468,938,c),
(468,1040,l),
(128,1040,l)
);
},
{
closed = 1;
nodes = (
(650,310,o),
(587,344,o),
(552,409,cs),
(535,440,o),
(526,477,o),
(526,520,cs),
(526,608,o),
(565,672,o),
(626,705,c),
(655,722,o),
(690,730,o),
(726,730,cs),
(803,730,o),
(864,697,o),
(901,632,cs),
(918,603,o),
(926,563,o),
(926,520,cs),
(926,432,o),
(890,371,o),
(830,336,c),
(798,319,o),
(765,310,o),
(726,310,cs)
);
}
);
width = 1364;
},
{
layerId = "C851E168-A0F3-4A98-BB70-DDAB26A4D58F";
shapes = (
{
closed = 1;
nodes = (
(156,-440,l),
(416,-440,l),
(416,117,l),
(459,73,o),
(509,35,o),
(568,10,cs),
(627,-16,o),
(695,-30,o),
(769,-30,cs),
(924,-30,o),
(1052,29,o),
(1148,131,cs),
(1241,233,o),
(1293,366,o),
(1293,520,cs),
(1293,630,o),
(1273,721,o),
(1227,806,cs),
(1183,890,o),
(1123,953,o),
(1043,1002,cs),
(962,1050,o),
(874,1070,o),
(773,1070,cs),
(681,1070,o),
(607,1057,o),
(544,1026,cs),
(479,993,o),
(429,954,o),
(387,901,c),
(387,1040,l),
(156,1040,l)
);
},
{
closed = 1;
nodes = (
(605,198,o),
(510,250,o),
(456,350,cs),
(430,398,o),
(416,453,o),
(416,520,cs),
(416,655,o),
(473,753,o),
(567,804,cs),
(613,830,o),
(666,842,o),
(725,842,cs),
(846,842,o),
(940,792,o),
(996,692,cs),
(1022,645,o),
(1034,587,o),
(1034,520,cs),
(1034,386,o),
(979,292,o),
(886,238,c),
(837,211,o),
(786,198,o),
(725,198,cs)
);
}
);
width = 1361;
},
{
layerId = "95DC38C8-633C-4490-9AF5-01E2DA151EE8";
shapes = (
{
closed = 1;
nodes = (
(184,-440,l),
(305,-440,l),
(305,182,l),
(352,120,o),
(409,66,o),
(483,28,cs),
(557,-10,o),
(645,-30,o),
(745,-30,cs),
(902,-30,o),
(1031,28,o),
(1127,132,cs),
(1222,236,o),
(1272,368,o),
(1272,520,cs),
(1272,624,o),
(1252,711,o),
(1206,797,cs),
(1162,881,o),
(1102,947,o),
(1023,999,c),
(940,1050,o),
(850,1070,o),
(745,1070,cs),
(633,1070,o),
(547,1054,o),
(478,1015,c),
(408,973,o),
(353,926,o),
(305,864,c),
(305,1040,l),
(184,1040,l)
);
},
{
closed = 1;
nodes = (
(559,86,o),
(433,156,o),
(360,290,cs),
(324,355,o),
(305,429,o),
(305,520,cs),
(305,701,o),
(381,833,o),
(508,902,c),
(570,938,o),
(641,953,o),
(724,953,cs),
(889,953,o),
(1016,886,o),
(1090,752,cs),
(1126,687,o),
(1142,611,o),
(1142,520,cs),
(1142,339,o),
(1068,212,o),
(941,139,c),
(876,103,o),
(806,86,o),
(724,86,cs)
);
}
);
width = 1358;
}
);
leftKerningGroup = _m;
rightKerningGroup = _b;
unicode = 112;
},
{
glyphname = q;
layers = (
{
layerId = "754C31AE-F388-4929-9E05-D72B02926026";
shapes = (
{
closed = 1;
nodes = (
(838,-400,l),
(1236,-400,l),
(1236,1040,l),
(896,1040,l),
(896,758,l),
(950,848,l),
(917,937,o),
(841,1005,o),
(736,1044,cs),
(683,1063,o),
(628,1070,o),
(564,1070,cs),
(419,1070,o),
(291,1020,o),
(199,924,cs),
(103,827,o),
(50,693,o),
(50,520,cs),
(50,416,o),
(73,324,o),
(117,239,c),
(164,155,o),
(222,91,o),
(302,42,c),
(383,-5,o),
(472,-30,o),
(572,-30,cs),
(644,-30,o),
(708,-16,o),
(769,11,c),
(829,39,o),
(882,80,o),
(930,140,c),
(838,232,l)
);
},
{
closed = 1;
nodes = (
(562,310,o),
(499,344,o),
(464,409,cs),
(447,440,o),
(438,477,o),
(438,520,cs),
(438,608,o),
(477,672,o),
(538,705,c),
(567,722,o),
(602,730,o),
(638,730,cs),
(715,730,o),
(776,697,o),
(813,632,cs),
(830,603,o),
(838,563,o),
(838,520,cs),
(838,432,o),
(802,371,o),
(742,336,c),
(710,319,o),
(677,310,o),
(638,310,cs)
);
}
);
width = 1364;
},
{
layerId = "C851E168-A0F3-4A98-BB70-DDAB26A4D58F";
shapes = (
{
closed = 1;
nodes = (
(946,-400,l),
(1205,-400,l),
(1205,1040,l),
(975,1040,l),
(975,784,l),
(1011,843,l),
(964,932,o),
(888,1003,o),
(777,1044,cs),
(721,1064,o),
(660,1070,o),
(589,1070,cs),
(438,1070,o),
(310,1016,o),
(217,918,cs),
(121,817,o),
(69,683,o),
(69,520,cs),
(69,418,o),
(91,327,o),
(135,242,c),
(182,158,o),
(241,93,o),
(320,43,c),
(402,-5,o),
(491,-30,o),
(593,-30,cs),
(685,-30,o),
(763,-14,o),
(831,24,cs),
(898,61,o),
(954,110,o),
(1001,175,c),
(946,234,l)
);
},
{
closed = 1;
nodes = (
(516,198,o),
(422,250,o),
(368,350,cs),
(341,398,o),
(328,453,o),
(328,520,cs),
(328,655,o),
(385,753,o),
(479,804,c),
(524,830,o),
(577,842,o),
(637,842,cs),
(758,842,o),
(852,792,o),
(907,692,cs),
(934,645,o),
(946,587,o),
(946,520,cs),
(946,386,o),
(891,292,o),
(798,238,c),
(749,211,o),
(697,198,o),
(637,198,cs)
);
}
);
width = 1361;
},
{
layerId = "95DC38C8-633C-4490-9AF5-01E2DA151EE8";
shapes = (
{
closed = 1;
nodes = (
(1053,-400,l),
(1174,-400,l),
(1174,1040,l),
(1053,1040,l),
(1053,810,l),
(1072,838,l),
(1011,926,o),
(934,1000,o),
(817,1043,cs),
(759,1064,o),
(692,1070,o),
(613,1070,cs),
(456,1070,o),
(329,1012,o),
(234,911,cs),
(139,807,o),
(87,673,o),
(87,520,cs),
(87,420,o),
(109,330,o),
(153,244,c),
(199,161,o),
(260,95,o),
(338,43,c),
(420,-5,o),
(509,-30,o),
(613,-30,cs),
(726,-30,o),
(818,-11,o),
(893,36,cs),
(966,82,o),
(1026,140,o),
(1072,210,c),
(1053,236,l)
);
},
{
closed = 1;
nodes = (
(470,86,o),
(344,156,o),
(271,290,cs),
(235,355,o),
(217,429,o),
(217,520,cs),
(217,701,o),
(292,833,o),
(419,902,c),
(481,938,o),
(552,953,o),
(635,953,cs),
(801,953,o),
(927,886,o),
(1001,752,cs),
(1037,687,o),
(1053,611,o),
(1053,520,cs),
(1053,339,o),
(979,212,o),
(853,139,c),
(788,103,o),
(717,86,o),
(635,86,cs)
);
}
);
width = 1358;
}
);
leftKerningGroup = _c2;
unicode = 113;
},
{
glyphname = r;
layers = (
{
layerId = "754C31AE-F388-4929-9E05-D72B02926026";
shapes = (
{
closed = 1;
nodes = (
(128,0,l),
(528,0,l),
(528,506,ls),
(528,566,o),
(546,611,o),
(579,638,cs),
(615,666,o),
(656,678,o),
(708,678,cs),
(764,678,o),
(823,669,o),
(872,648,c),
(918,1058,l),
(882,1066,o),
(850,1070,o),
(802,1070,cs),
(741,1070,o),
(691,1060,o),
(640,1039,c),
(592,1015,o),
(556,979,o),
(528,932,c),
(528,1040,l),
(128,1040,l)
);
}
);
width = 936;
},
{
layerId = "C851E168-A0F3-4A98-BB70-DDAB26A4D58F";
shapes = (
{
closed = 1;
nodes = (
(156,0,l),
(417,0,l),
(417,555,ls),
(417,637,o),
(442,701,o),
(491,745,cs),
(542,791,o),
(602,812,o),
(678,812,cs),
(723,812,o),
(771,807,o),
(813,791,c),
(848,1060,l),
(811,1069,o),
(774,1070,o),
(732,1070,cs),
(666,1070,o),
(611,1059,o),
(554,1035,c),
(500,1008,o),
(455,965,o),
(417,903,c),
(417,1040,l),
(156,1040,l)
);
}
);
width = 878;
},
{
layerId = "95DC38C8-633C-4490-9AF5-01E2DA151EE8";
shapes = (
{
closed = 1;
nodes = (
(184,0,l),
(305,0,l),
(305,604,ls),
(305,708,o),
(337,790,o),
(402,851,cs),
(468,916,o),
(548,945,o),
(648,945,cs),
(682,945,o),
(718,944,o),
(754,934,c),
(777,1062,l),
(739,1071,o),
(698,1070,o),
(662,1070,cs),
(591,1070,o),
(530,1058,o),
(468,1031,c),
(407,1001,o),
(354,951,o),
(305,873,c),
(305,1040,l),
(184,1040,l)
);
}
);
width = 819;
}
);
leftKerningGroup = _m;
rightKerningGroup = _r;
unicode = 114;
},
{
glyphname = s;
layers = (
{
layerId = "754C31AE-F388-4929-9E05-D72B02926026";
shapes = (
{
closed = 1;
nodes = (
(731,-30,o),
(874,34,o),
(954,142,cs),
(993,194,o),
(1013,258,o),
(1013,329,cs),
(1013,425,o),
(982,496,o),
(918,547,c),
(850,597,o),
(744,640,o),
(588,669,c),
(524,684,o),
(481,693,o),
(465,700,c),
(446,707,o),
(437,718,o),
(437,732,cs),
(437,747,o),
(450,760,o),
(471,768,cs),
(495,776,o),
(522,780,o),
(560,780,cs),
(633,780,o),
(711,762,o),
(787,731,cs),
(823,716,o),
(857,700,o),
(886,677,c),
(997,943,l),
(941,982,o),
(876,1015,o),
(796,1037,cs),
(716,1059,o),
(634,1070,o),
(546,1070,cs),
(365,1070,o),
(227,1009,o),
(147,905,cs),
(108,853,o),
(88,792,o),
(88,721,cs),
(88,621,o),
(119,543,o),
(191,487,c),
(258,428,o),
(365,390,o),
(509,369,c),
(573,361,o),
(613,353,o),
(636,346,c),
(657,341,o),
(665,328,o),
(665,314,cs),
(665,279,o),
(625,260,o),
(536,260,cs),
(481,260,o),
(421,270,o),
(354,291,c),
(286,314,o),
(222,338,o),
(161,373,c),
(46,107,l),
(110,62,o),
(180,30,o),
(263,7,cs),
(348,-17,o),
(437,-30,o),
(540,-30,cs)
);
}
);
width = 1088;
},
{
layerId = "C851E168-A0F3-4A98-BB70-DDAB26A4D58F";
shapes = (
{
closed = 1;
nodes = (
(689,-30,o),
(819,31,o),
(891,129,cs),
(926,177,o),
(945,236,o),
(945,303,cs),
(945,391,o),
(916,459,o),
(858,507,cs),
(797,556,o),
(701,596,o),
(563,624,c),
(482,644,o),
(425,661,o),
(396,678,c),
(363,695,o),
(347,720,o),
(347,757,cs),
(347,792,o),
(366,822,o),
(398,841,c),
(433,860,o),
(474,870,o),
(530,870,cs),
(607,870,o),
(684,852,o),
(753,818,cs),
(787,802,o),
(818,783,o),
(842,759,c),
(929,945,l),
(878,986,o),
(822,1016,o),
(749,1039,c),
(680,1058,o),
(605,1070,o),
(525,1070,cs),
(363,1070,o),
(237,1013,o),
(166,916,cs),
(130,867,o),
(114,813,o),
(114,748,cs),
(114,658,o),
(143,589,o),
(205,539,c),
(265,485,o),
(360,448,o),
(493,422,cs),
(578,405,o),
(634,386,o),
(667,369,cs),
(696,353,o),
(711,325,o),
(711,291,cs),
(711,215,o),
(641,171,o),
(513,171,cs),
(455,171,o),
(397,180,o),
(336,202,cs),
(274,224,o),
(217,252,o),
(167,290,c),
(76,105,l),
(130,62,o),
(192,32,o),
(269,8,cs),
(346,-17,o),
(425,-30,o),
(514,-30,cs)
);
}
);
width = 1049;
},
{
layerId = "95DC38C8-633C-4490-9AF5-01E2DA151EE8";
shapes = (
{
closed = 1;
nodes = (
(646,-30,o),
(764,25,o),
(828,115,cs),
(860,159,o),
(875,214,o),
(875,275,cs),
(875,357,o),
(850,423,o),
(798,466,cs),
(742,513,o),
(658,552,o),
(538,579,c),
(440,604,o),
(369,629,o),
(325,655,cs),
(280,682,o),
(256,722,o),
(256,782,cs),
(256,837,o),
(281,883,o),
(324,912,cs),
(371,944,o),
(427,960,o),
(499,960,cs),
(581,960,o),
(655,940,o),
(719,904,cs),
(749,887,o),
(777,866,o),
(799,841,c),
(861,947,l),
(814,989,o),
(766,1018,o),
(702,1040,c),
(642,1058,o),
(577,1070,o),
(503,1070,cs),
(361,1070,o),
(249,1016,o),
(185,927,cs),
(153,881,o),
(139,833,o),
(139,775,cs),
(139,694,o),
(165,633,o),
(218,589,c),
(271,542,o),
(355,504,o),
(476,474,cs),
(584,447,o),
(655,418,o),
(697,391,c),
(736,364,o),
(756,322,o),
(756,267,cs),
(756,152,o),
(656,80,o),
(489,80,cs),
(429,80,o),
(372,92,o),
(317,114,cs),
(261,137,o),
(211,166,o),
(173,205,c),
(106,102,l),
(149,62,o),
(204,33,o),
(274,8,cs),
(343,-17,o),
(413,-30,o),
(487,-30,cs)
);
}
);
width = 1010;
}
);
leftKerningGroup = _s2;
rightKerningGroup = _s;
unicode = 115;
},
{
glyphname = t;
layers = (
{
layerId = "754C31AE-F388-4929-9E05-D72B02926026";
shapes = (
{
closed = 1;
nodes = (
(711,-30,o),
(813,4,o),
(878,40,c),
(834,350,l),
(799,331,o),
(756,320,o),
(719,320,cs),
(688,320,o),
(662,329,o),
(639,348,cs),
(615,367,o),
(604,397,o),
(604,440,cs),
(604,728,l),
(820,728,l),
(820,1040,l),
(604,1040,l),
(604,1334,l),
(204,1334,l),
(204,378,ls),
(204,245,o),
(240,143,o),
(309,74,cs),
(378,5,o),
(473,-30,o),
(598,-30,cs)
);
},
{
closed = 1;
nodes = (
(20,728,l),
(236,728,l),
(236,1040,l),
(20,1040,l)
);
}
);
width = 930;
},
{
layerId = "C851E168-A0F3-4A98-BB70-DDAB26A4D58F";
shapes = (
{
closed = 1;
nodes = (
(688,-30,o),
(772,-6,o),
(832,26,c),
(791,234,l),
(757,216,o),
(711,205,o),
(666,205,cs),
(618,205,o),
(583,218,o),
(556,246,cs),
(527,275,o),
(515,321,o),
(515,388,cs),
(515,828,l),
(790,828,l),
(790,1040,l),
(515,1040,l),
(515,1334,l),
(254,1334,l),
(254,335,ls),
(254,213,o),
(287,120,o),
(349,60,cs),
(411,-1,o),
(493,-30,o),
(599,-30,cs)
);
},
{
closed = 1;
nodes = (
(33,828,l),
(284,828,l),
(284,1040,l),
(33,1040,l)
);
}
);
width = 909;
},
{
layerId = "95DC38C8-633C-4490-9AF5-01E2DA151EE8";
shapes = (
{
closed = 1;
nodes = (
(665,-30,o),
(730,-15,o),
(786,11,c),
(747,117,l),
(714,101,o),
(666,89,o),
(613,89,cs),
(548,89,o),
(503,106,o),
(472,144,c),
(439,182,o),
(425,245,o),
(425,336,cs),
(425,927,l),
(760,927,l),
(760,1040,l),
(425,1040,l),
(425,1334,l),
(303,1334,l),
(303,292,ls),
(303,180,o),
(333,97,o),
(388,45,cs),
(443,-6,o),
(513,-30,o),
(600,-30,cs)
);
},
{
closed = 1;
nodes = (
(45,927,l),
(331,927,l),
(331,1040,l),
(45,1040,l)
);
}
);
width = 888;
}
);
leftKerningGroup = _t2;
rightKerningGroup = _t;
unicode = 116;
},
{
glyphname = u;
layers = (
{
layerId = "754C31AE-F388-4929-9E05-D72B02926026";
shapes = (
{
closed = 1;
nodes = (
(629,-30,o),
(696,-15,o),
(743,14,cs),
(791,43,o),
(829,73,o),
(858,102,c),
(858,0,l),
(1198,0,l),
(1198,1040,l),
(798,1040,l),
(798,482,ls),
(798,422,o),
(775,376,o),
(734,351,cs),
(711,338,o),
(688,330,o),
(656,330,cs),
(611,330,o),
(576,344,o),
(552,371,c),
(531,398,o),
(518,434,o),
(518,482,cs),
(518,1040,l),
(118,1040,l),
(118,428,ls),
(118,332,o),
(133,252,o),
(165,184,c),
(194,115,o),
(239,62,o),
(303,25,cs),
(367,-11,o),
(444,-30,o),
(540,-30,cs)
);
}
);
width = 1326;
},
{
layerId = "C851E168-A0F3-4A98-BB70-DDAB26A4D58F";
shapes = (
{
closed = 1;
nodes = (
(637,-30,o),
(702,-17,o),
(756,11,cs),
(810,39,o),
(856,75,o),
(895,119,c),
(895,0,l),
(1126,0,l),
(1126,1040,l),
(865,1040,l),
(865,452,ls),
(865,355,o),
(822,280,o),
(751,240,cs),
(714,219,o),
(675,208,o),
(628,208,cs),
(558,208,o),
(505,228,o),
(465,269,c),
(428,310,o),
(407,362,o),
(407,430,cs),
(407,1040,l),
(146,1040,l),
(146,384,ls),
(146,308,o),
(161,238,o),
(192,176,c),
(220,113,o),
(265,63,o),
(328,25,cs),
(391,-12,o),
(466,-30,o),
(559,-30,cs)
);
}
);
width = 1282;
},
{
layerId = "95DC38C8-633C-4490-9AF5-01E2DA151EE8";
shapes = (
{
closed = 1;
nodes = (
(645,-30,o),
(707,-18,o),
(768,8,cs),
(829,34,o),
(883,76,o),
(932,136,c),
(932,0,l),
(1053,0,l),
(1053,1040,l),
(932,1040,l),
(932,422,ls),
(932,287,o),
(868,183,o),
(768,128,cs),
(716,99,o),
(662,86,o),
(600,86,cs),
(505,86,o),
(433,112,o),
(377,167,c),
(324,222,o),
(295,290,o),
(295,377,cs),
(295,1040,l),
(173,1040,l),
(173,340,ls),
(173,283,o),
(188,224,o),
(219,168,c),
(246,110,o),
(291,63,o),
(352,25,cs),
(414,-13,o),
(487,-30,o),
(578,-30,cs)
);
}
);
width = 1237;
}
);
leftKerningGroup = _u2;
rightKerningGroup = _u;
unicode = 117;
},
{
glyphname = v;
layers = (
{
layerId = "754C31AE-F388-4929-9E05-D72B02926026";
shapes = (
{
closed = 1;
nodes = (
(364,0,l),
(832,0,l),
(1168,1040,l),
(752,1040,l),
(578,346,l),
(616,346,l),
(436,1040,l),
(10,1040,l)
);
}
);
width = 1178;
},
{
layerId = "C851E168-A0F3-4A98-BB70-DDAB26A4D58F";
shapes = (
{
closed = 1;
nodes = (
(411,0,l),
(711,0,l),
(1085,1040,l),
(808,1040,l),
(545,224,l),
(580,224,l),
(311,1040,l),
(28,1040,l)
);
}
);
width = 1112;
},
{
layerId = "95DC38C8-633C-4490-9AF5-01E2DA151EE8";
shapes = (
{
closed = 1;
nodes = (
(457,0,l),
(589,0,l),
(1001,1040,l),
(864,1040,l),
(511,102,l),
(544,102,l),
(186,1040,l),
(45,1040,l)
);
}
);
width = 1046;
}
);
leftKerningGroup = _v2;
rightKerningGroup = _v;
unicode = 118;
},
{
glyphname = w;
layers = (
{
layerId = "754C31AE-F388-4929-9E05-D72B02926026";
shapes = (
{
closed = 1;
nodes = (
(312,0,l),
(704,0,l),
(862,558,l),
(1012,0,l),
(1404,0,l),
(1706,1040,l),
(1336,1040,l),
(1208,458,l),
(1048,1040,l),
(688,1040,l),
(526,458,l),
(392,1040,l),
(10,1040,l)
);
}
);
width = 1716;
},
{
layerId = "C851E168-A0F3-4A98-BB70-DDAB26A4D58F";
shapes = (
{
closed = 1;
nodes = (
(350,0,l),
(615,0,l),
(840,714,l),
(1054,0,l),
(1320,0,l),
(1642,1040,l),
(1396,1040,l),
(1187,301,l),
(971,1040,l),
(721,1040,l),
(492,301,l),
(285,1040,l),
(28,1040,l)
);
}
);
width = 1670;
},
{
layerId = "95DC38C8-633C-4490-9AF5-01E2DA151EE8";
shapes = (
{
closed = 1;
nodes = (
(388,0,l),
(526,0,l),
(817,869,l),
(1096,0,l),
(1235,0,l),
(1577,1040,l),
(1456,1040,l),
(1166,143,l),
(893,1040,l),
(754,1040,l),
(457,143,l),
(178,1040,l),
(45,1040,l)
);
}
);
width = 1623;
}
);
leftKerningGroup = _v2;
rightKerningGroup = _v;
unicode = 119;
},
{
glyphname = x;
layers = (
{
layerId = "754C31AE-F388-4929-9E05-D72B02926026";
shapes = (
{
closed = 1;
nodes = (
(20,-4,l),
(512,4,l),
(660,248,l),
(808,0,l),
(1320,0,l),
(952,512,l),
(1298,1040,l),
(802,1040,l),
(674,776,l),
(542,1040,l),
(38,1040,l),
(392,506,l)
);
}
);
width = 1340;
},
{
layerId = "C851E168-A0F3-4A98-BB70-DDAB26A4D58F";
shapes = (
{
closed = 1;
nodes = (
(31,-2,l),
(350,2,l),
(577,345,l),
(801,0,l),
(1135,0,l),
(762,526,l),
(1106,1040,l),
(786,1040,l),
(586,703,l),
(381,1040,l),
(52,1040,l),
(406,520,l)
);
}
);
width = 1165;
},
{
layerId = "95DC38C8-633C-4490-9AF5-01E2DA151EE8";
shapes = (
{
closed = 1;
nodes = (
(41,0,l),
(188,0,l),
(494,442,l),
(793,0,l),
(949,0,l),
(572,539,l),
(914,1040,l),
(769,1040,l),
(498,630,l),
(219,1040,l),
(65,1040,l),
(420,533,l)
);
}
);
width = 990;
}
);
leftKerningGroup = _x2;
rightKerningGroup = _x;
unicode = 120;
},
{
glyphname = y;
layers = (
{
layerId = "754C31AE-F388-4929-9E05-D72B02926026";
shapes = (
{
closed = 1;
nodes = (
(457,-446,o),
(582,-400,o),
(686,-292,c),
(735,-236,o),
(779,-166,o),
(816,-74,c),
(1236,1040,l),
(814,1040,l),
(626,386,l),
(432,1040,l),
(0,1040,l),
(400,4,l),
(396,-12,ls),
(389,-40,o),
(373,-61,o),
(348,-72,c),
(323,-81,o),
(296,-88,o),
(264,-88,cs),
(215,-88,o),
(157,-73,o),
(112,-52,c),
(30,-384,l),
(111,-424,o),
(216,-446,o),
(324,-446,cs)
);
}
);
width = 1236;
},
{
layerId = "C851E168-A0F3-4A98-BB70-DDAB26A4D58F";
shapes = (
{
closed = 1;
nodes = (
(389,-446,o),
(489,-410,o),
(576,-315,c),
(616,-267,o),
(654,-201,o),
(687,-116,cs),
(1123,1040,l),
(847,1040,l),
(583,260,l),
(312,1040,l),
(27,1040,l),
(435,-13,l),
(414,-79,ls),
(401,-122,o),
(379,-157,o),
(351,-178,cs),
(324,-197,o),
(287,-209,o),
(241,-209,cs),
(198,-209,o),
(142,-194,o),
(97,-168,c),
(41,-389,l),
(114,-429,o),
(191,-446,o),
(272,-446,cs)
);
}
);
width = 1140;
},
{
layerId = "95DC38C8-633C-4490-9AF5-01E2DA151EE8";
shapes = (
{
closed = 1;
nodes = (
(320,-446,o),
(395,-419,o),
(465,-337,c),
(496,-297,o),
(528,-236,o),
(557,-158,cs),
(1010,1040,l),
(880,1040,l),
(539,134,l),
(191,1040,l),
(54,1040,l),
(470,-30,l),
(431,-145,ls),
(412,-203,o),
(385,-252,o),
(354,-284,c),
(324,-313,o),
(278,-329,o),
(217,-329,cs),
(181,-329,o),
(127,-315,o),
(82,-284,c),
(51,-394,l),
(116,-433,o),
(166,-446,o),
(219,-446,cs)
);
}
);
width = 1044;
}
);
leftKerningGroup = _y;
rightKerningGroup = _v;
unicode = 121;
},
{
glyphname = z;
layers = (
{
layerId = "754C31AE-F388-4929-9E05-D72B02926026";
shapes = (
{
closed = 1;
nodes = (
(80,0,l),
(990,0,l),
(990,350,l),
(606,350,l),
(982,780,l),
(982,1040,l),
(98,1040,l),
(98,690,l),
(486,690,l),
(80,260,l)
);
}
);
width = 1070;
},
{
layerId = "C851E168-A0F3-4A98-BB70-DDAB26A4D58F";
shapes = (
{
closed = 1;
nodes = (
(94,0,l),
(940,0,l),
(940,232,l),
(431,232,l),
(932,858,l),
(932,1040,l),
(107,1040,l),
(107,809,l),
(610,809,l),
(94,182,l)
);
}
);
width = 1035;
},
{
layerId = "95DC38C8-633C-4490-9AF5-01E2DA151EE8";
shapes = (
{
closed = 1;
nodes = (
(108,0,l),
(890,0,l),
(890,113,l),
(256,113,l),
(882,936,l),
(882,1040,l),
(115,1040,l),
(115,927,l),
(734,927,l),
(108,104,l)
);
}
);
width = 999;
}
);
leftKerningGroup = _z2;
rightKerningGroup = _z;
unicode = 122;
},
{
glyphname = braceleft;
layers = (
{
layerId = "754C31AE-F388-4929-9E05-D72B02926026";
shapes = (
{
closed = 1;
nodes = (
(666,40,l),
(602,39,o),
(562,46,o),
(537,67,cs),
(512,88,o),
(503,120,o),
(512,164,cs),
(566,442,ls),
(578,506,o),
(570,561,o),
(541,606,cs),
(512,649,o),
(463,677,o),
(394,690,c),
(394,692,l),
(526,715,o),
(586,810,o),
(562,938,cs),
(512,1216,l),
(497,1312,o),
(543,1349,o),
(666,1340,c),
(666,1606,l),
(478,1622,o),
(351,1594,o),
(271,1526,cs),
(191,1458,o),
(167,1349,o),
(196,1188,cs),
(240,948,ls),
(252,888,o),
(238,853,o),
(182,837,c),
(155,828,o),
(117,824,o),
(66,824,c),
(66,558,l),
(167,558,o),
(219,544,o),
(236,507,cs),
(245,488,o),
(247,465,o),
(240,434,c),
(196,190,ls),
(169,33,o),
(193,-77,o),
(273,-145,c),
(350,-213,o),
(478,-239,o),
(666,-226,c)
);
}
);
width = 732;
},
{
layerId = "C851E168-A0F3-4A98-BB70-DDAB26A4D58F";
shapes = (
{
closed = 1;
nodes = (
(599,-44,l),
(531,-47,o),
(487,-41,o),
(462,-20,cs),
(437,2,o),
(426,37,o),
(434,85,c),
(488,452,ls),
(499,520,o),
(494,575,o),
(470,615,cs),
(446,653,o),
(403,678,o),
(340,690,c),
(340,692,l),
(461,714,o),
(508,794,o),
(486,929,c),
(434,1295,ls),
(421,1397,o),
(466,1437,o),
(599,1424,c),
(599,1605,l),
(455,1622,o),
(354,1601,o),
(288,1546,cs),
(223,1492,o),
(200,1407,o),
(220,1284,cs),
(272,926,l),
(285,850,o),
(273,812,o),
(219,796,c),
(192,786,o),
(154,782,o),
(100,782,c),
(100,601,l),
(207,601,o),
(256,588,o),
(271,545,cs),
(279,524,o),
(280,495,o),
(272,456,c),
(219,93,ls),
(201,-26,o),
(223,-111,o),
(289,-166,cs),
(352,-220,o),
(453,-239,o),
(599,-225,c)
);
}
);
width = 699;
},
{
layerId = "95DC38C8-633C-4490-9AF5-01E2DA151EE8";
shapes = (
{
closed = 1;
nodes = (
(532,-128,l),
(459,-133,o),
(411,-128,o),
(386,-107,c),
(361,-84,o),
(349,-47,o),
(356,6,cs),
(410,462,ls),
(419,534,o),
(417,588,o),
(398,623,cs),
(379,656,o),
(343,679,o),
(286,690,c),
(286,692,l),
(395,712,o),
(429,777,o),
(410,920,cs),
(356,1374,ls),
(345,1482,o),
(389,1524,o),
(532,1508,c),
(532,1604,l),
(431,1621,o),
(356,1607,o),
(305,1566,cs),
(254,1525,o),
(233,1464,o),
(244,1380,cs),
(304,904,ls),
(317,812,o),
(308,770,o),
(256,754,c),
(229,743,o),
(190,740,o),
(134,740,c),
(134,644,l),
(246,644,o),
(293,632,o),
(305,583,c),
(312,559,o),
(312,525,o),
(304,478,c),
(242,-4,ls),
(233,-84,o),
(253,-145,o),
(304,-186,cs),
(353,-227,o),
(428,-239,o),
(532,-224,c)
);
}
);
width = 666;
}
);
rightKerningGroup = _parenleft;
unicode = 123;
},
{
glyphname = bar;
layers = (
{
layerId = "754C31AE-F388-4929-9E05-D72B02926026";
shapes = (
{
closed = 1;
nodes = (
(200,-220,l),
(520,-220,l),
(520,1600,l),
(200,1600,l)
);
}
);
width = 720;
},
{
layerId = "C851E168-A0F3-4A98-BB70-DDAB26A4D58F";
shapes = (
{
closed = 1;
nodes = (
(200,-220,l),
(410,-220,l),
(410,1600,l),
(200,1600,l)
);
}
);
width = 610;
},
{
layerId = "95DC38C8-633C-4490-9AF5-01E2DA151EE8";
shapes = (
{
closed = 1;
nodes = (
(200,-220,l),
(300,-220,l),
(300,1600,l),
(200,1600,l)
);
}
);
width = 500;
}
);
leftKerningGroup = _bar2;
rightKerningGroup = _bar;
unicode = 124;
},
{
glyphname = braceright;
layers = (
{
layerId = "754C31AE-F388-4929-9E05-D72B02926026";
shapes = (
{
closed = 1;
nodes = (
(66,-226,l),
(254,-239,o),
(382,-213,o),
(462,-145,c),
(539,-77,o),
(565,33,o),
(536,190,cs),
(492,434,l),
(483,498,o),
(498,531,o),
(551,546,cs),
(578,554,o),
(615,558,o),
(666,558,c),
(666,824,l),
(566,824,o),
(515,840,o),
(498,875,cs),
(489,895,o),
(488,919,o),
(492,948,c),
(536,1188,ls),
(565,1349,o),
(542,1458,o),
(462,1526,cs),
(382,1594,o),
(254,1622,o),
(66,1606,c),
(66,1340,l),
(191,1349,o),
(237,1312,o),
(220,1216,cs),
(170,938,ls),
(147,810,o),
(209,715,o),
(338,692,c),
(338,690,l),
(270,677,o),
(222,649,o),
(193,606,cs),
(164,561,o),
(154,506,o),
(166,442,cs),
(220,164,ls),
(229,120,o),
(223,88,o),
(198,67,cs),
(173,46,o),
(130,39,o),
(66,40,c)
);
}
);
width = 732;
},
{
layerId = "C851E168-A0F3-4A98-BB70-DDAB26A4D58F";
shapes = (
{
closed = 1;
nodes = (
(100,-225,l),
(246,-239,o),
(348,-220,o),
(414,-166,c),
(477,-111,o),
(501,-26,o),
(480,93,c),
(427,456,l),
(417,535,o),
(429,574,o),
(481,589,cs),
(508,597,o),
(546,601,o),
(599,601,c),
(599,782,l),
(495,782,o),
(445,797,o),
(431,838,cs),
(423,860,o),
(423,890,o),
(427,926,c),
(479,1284,ls),
(499,1407,o),
(478,1492,o),
(412,1546,cs),
(347,1601,o),
(245,1622,o),
(100,1605,c),
(100,1424,l),
(235,1437,o),
(280,1397,o),
(265,1295,cs),
(213,929,ls),
(194,794,o),
(241,714,o),
(359,692,c),
(359,690,l),
(297,678,o),
(257,653,o),
(233,615,cs),
(209,575,o),
(201,520,o),
(211,452,cs),
(265,85,l),
(273,37,o),
(266,2,o),
(241,-20,cs),
(216,-41,o),
(169,-47,o),
(100,-44,c)
);
}
);
width = 699;
},
{
layerId = "95DC38C8-633C-4490-9AF5-01E2DA151EE8";
shapes = (
{
closed = 1;
nodes = (
(134,-224,l),
(238,-239,o),
(313,-227,o),
(365,-186,c),
(414,-145,o),
(436,-84,o),
(424,-4,c),
(362,478,ls),
(351,571,o),
(359,616,o),
(411,632,cs),
(438,640,o),
(476,644,o),
(532,644,c),
(532,740,l),
(424,740,o),
(375,754,o),
(363,801,c),
(356,825,o),
(357,860,o),
(362,904,cs),
(422,1380,ls),
(433,1464,o),
(413,1525,o),
(362,1566,cs),
(311,1607,o),
(235,1621,o),
(134,1604,c),
(134,1508,l),
(279,1524,o),
(323,1482,o),
(310,1374,cs),
(256,920,ls),
(240,777,o),
(272,712,o),
(380,692,c),
(380,690,l),
(324,679,o),
(291,656,o),
(272,623,cs),
(253,588,o),
(247,534,o),
(256,462,cs),
(310,6,ls),
(317,-47,o),
(308,-84,o),
(283,-107,c),
(258,-128,o),
(207,-133,o),
(134,-128,c)
);
}
);
width = 666;
}
);
leftKerningGroup = _parenright;
unicode = 125;
},
{
glyphname = asciitilde;
layers = (
{
layerId = "754C31AE-F388-4929-9E05-D72B02926026";
shapes = (
{
closed = 1;
nodes = (
(1022,460,o),
(1144,527,o),
(1236,656,c),
(1100,874,l),
(1036,778,o),
(959,732,o),
(874,732,cs),
(818,732,o),
(748,767,o),
(664,806,cs),
(580,845,o),
(494,880,o),
(410,880,cs),
(277,880,o),
(156,817,o),
(60,684,c),
(196,466,l),
(260,562,o),
(338,608,o),
(422,608,cs),
(479,608,o),
(549,573,o),
(633,534,cs),
(718,495,o),
(802,460,o),
(886,460,cs)
);
}
);
width = 1296;
},
{
layerId = "C851E168-A0F3-4A98-BB70-DDAB26A4D58F";
shapes = (
{
closed = 1;
nodes = (
(993,500,o),
(1100,557,o),
(1182,675,c),
(1086,823,l),
(1028,731,o),
(951,684,o),
(872,684,cs),
(814,684,o),
(745,719,o),
(665,758,cs),
(585,797,o),
(501,832,o),
(418,832,cs),
(304,832,o),
(197,777,o),
(113,656,c),
(210,513,l),
(270,601,o),
(346,648,o),
(424,648,cs),
(483,648,o),
(553,613,o),
(633,574,cs),
(716,535,o),
(796,500,o),
(878,500,cs)
);
}
);
width = 1296;
},
{
layerId = "95DC38C8-633C-4490-9AF5-01E2DA151EE8";
shapes = (
{
closed = 1;
nodes = (
(963,540,o),
(1056,586,o),
(1128,694,c),
(1072,772,l),
(1020,684,o),
(943,636,o),
(870,636,cs),
(810,636,o),
(741,671,o),
(665,710,cs),
(589,749,o),
(507,784,o),
(426,784,cs),
(330,784,o),
(238,736,o),
(166,628,c),
(224,560,l),
(280,640,o),
(354,688,o),
(426,688,cs),
(487,688,o),
(557,653,o),
(633,614,c),
(713,575,o),
(790,540,o),
(870,540,cs)
);
}
);
width = 1296;
}
);
leftKerningGroup = _plus2;
rightKerningGroup = _plus;
unicode = 126;
},
{
glyphname = exclamdown;
layers = (
{
layerId = "754C31AE-F388-4929-9E05-D72B02926026";
shapes = (
{
closed = 1;
nodes = (
(114,-400,l),
(606,-400,l),
(542,504,l),
(178,504,l)
);
},
{
closed = 1;
nodes = (
(495,624,o),
(594,714,o),
(594,848,cs),
(594,985,o),
(493,1070,o),
(360,1070,cs),
(228,1070,o),
(126,981,o),
(126,848,cs),
(126,714,o),
(229,624,o),
(360,624,cs)
);
}
);
width = 720;
},
{
layerId = "C851E168-A0F3-4A98-BB70-DDAB26A4D58F";
shapes = (
{
closed = 1;
nodes = (
(178,-400,l),
(493,-400,l),
(451,552,l),
(220,552,l)
);
},
{
closed = 1;
nodes = (
(433,743,o),
(507,810,o),
(507,907,cs),
(507,1008,o),
(433,1070,o),
(335,1070,cs),
(239,1070,o),
(163,1003,o),
(163,907,cs),
(163,810,o),
(241,743,o),
(335,743,cs)
);
}
);
width = 680;
},
{
layerId = "95DC38C8-633C-4490-9AF5-01E2DA151EE8";
shapes = (
{
closed = 1;
nodes = (
(241,-400,l),
(379,-400,l),
(359,600,l),
(261,600,l)
);
},
{
closed = 1;
nodes = (
(371,862,o),
(420,905,o),
(420,966,cs),
(420,1031,o),
(373,1070,o),
(310,1070,cs),
(250,1070,o),
(200,1026,o),
(200,966,cs),
(200,906,o),
(252,862,o),
(310,862,cs)
);
}
);
width = 640;
}
);
leftKerningGroup = _colon2;
rightKerningGroup = _colon;
unicode = 161;
},
{
glyphname = cent;
layers = (
{
layerId = "754C31AE-F388-4929-9E05-D72B02926026";
shapes = (
{
closed = 1;
nodes = (
(531,-160,l),
(783,-160,l),
(783,10,l),
(778,10,l),
(870,26,o),
(947,51,o),
(1010,99,c),
(925,387,l),
(872,355,o),
(826,339,o),
(778,331,c),
(778,711,l),
(815,707,o),
(859,691,o),
(898,666,c),
(1022,923,l),
(958,981,o),
(860,1019,o),
(778,1030,c),
(783,1030,l),
(783,1200,l),
(531,1200,l),
(531,1028,l),
(537,1028,l),
(302,983,o),
(145,775,o),
(145,520,cs),
(145,262,o),
(304,54,o),
(537,12,c),
(531,12,l)
);
},
{
closed = 1;
nodes = (
(537,342,l),
(465,363,o),
(434,446,o),
(434,520,cs),
(434,588,o),
(462,692,o),
(537,701,c)
);
}
);
width = 1200;
},
{
layerId = "C851E168-A0F3-4A98-BB70-DDAB26A4D58F";
shapes = (
{
closed = 1;
nodes = (
(562,-167,l),
(745,-167,l),
(745,6,l),
(740,6,l),
(845,20,o),
(928,54,o),
(1003,117,c),
(920,300,l),
(872,259,o),
(810,230,o),
(743,220,c),
(743,823,l),
(798,818,o),
(854,795,o),
(900,760,c),
(1000,930,l),
(926,994,o),
(833,1029,o),
(739,1035,c),
(745,1035,l),
(745,1207,l),
(562,1207,l),
(562,1031,l),
(568,1031,l),
(324,990,o),
(158,786,o),
(158,520,cs),
(158,250,o),
(326,46,o),
(568,8,c),
(562,8,l)
);
},
{
closed = 1;
nodes = (
(565,227,l),
(426,257,o),
(361,373,o),
(361,521,cs),
(361,670,o),
(426,793,o),
(565,816,c)
);
}
);
width = 1200;
},
{
layerId = "95DC38C8-633C-4490-9AF5-01E2DA151EE8";
shapes = (
{
closed = 1;
nodes = (
(593,-173,l),
(707,-173,l),
(707,2,l),
(701,2,l),
(819,13,o),
(909,56,o),
(996,134,c),
(914,212,l),
(871,162,o),
(793,121,o),
(707,109,c),
(707,934,l),
(781,928,o),
(849,898,o),
(902,854,c),
(977,936,l),
(894,1006,o),
(806,1038,o),
(700,1040,c),
(707,1040,l),
(707,1213,l),
(593,1213,l),
(593,1033,l),
(599,1033,l),
(346,997,o),
(171,796,o),
(171,520,cs),
(171,237,o),
(348,37,o),
(599,4,c),
(593,4,l)
);
},
{
closed = 1;
nodes = (
(593,112,l),
(387,151,o),
(288,299,o),
(288,522,cs),
(288,752,o),
(389,894,o),
(593,931,c)
);
}
);
width = 1200;
}
);
unicode = 162;
},
{
glyphname = sterling;
layers = (
{
layerId = "754C31AE-F388-4929-9E05-D72B02926026";
shapes = (
{
closed = 1;
nodes = (
(111,0,l),
(1172,0,l),
(1172,306,l),
(601,306,l),
(644,372,o),
(665,440,o),
(665,520,cs),
(665,585,o),
(641,669,o),
(625,759,cs),
(612,832,o),
(588,904,o),
(588,981,cs),
(588,1038,o),
(602,1086,o),
(632,1117,cs),
(657,1144,o),
(693,1160,o),
(740,1160,cs),
(823,1160,o),
(910,1131,o),
(1011,1030,c),
(1147,1291,l),
(1068,1402,o),
(868,1470,o),
(732,1470,cs),
(530,1470,o),
(374,1391,o),
(289,1251,cs),
(246,1180,o),
(223,1105,o),
(223,1020,cs),
(223,967,o),
(237,914,o),
(251,864,cs),
(263,813,o),
(279,764,o),
(294,714,cs),
(311,656,o),
(341,577,o),
(341,516,cs),
(341,410,o),
(313,357,o),
(247,328,c),
(213,315,o),
(167,300,o),
(111,293,c)
);
},
{
closed = 1;
nodes = (
(93,576,l),
(971,576,l),
(971,833,l),
(93,833,l)
);
}
);
width = 1234;
},
{
layerId = "C851E168-A0F3-4A98-BB70-DDAB26A4D58F";
shapes = (
{
closed = 1;
nodes = (
(150,0,l),
(1137,0,l),
(1137,207,l),
(495,207,l),
(575,279,o),
(617,358,o),
(617,474,cs),
(617,558,o),
(589,655,o),
(562,757,cs),
(538,848,o),
(510,939,o),
(510,1029,cs),
(510,1100,o),
(527,1155,o),
(566,1200,cs),
(602,1240,o),
(656,1260,o),
(727,1260,cs),
(824,1260,o),
(915,1229,o),
(1008,1140,c),
(1106,1318,l),
(1019,1417,o),
(856,1470,o),
(725,1470,cs),
(544,1470,o),
(402,1400,o),
(326,1272,cs),
(286,1207,o),
(265,1137,o),
(265,1056,cs),
(265,977,o),
(292,885,o),
(319,812,c),
(334,760,o),
(352,707,o),
(366,658,cs),
(382,602,o),
(401,536,o),
(401,477,cs),
(401,373,o),
(370,311,o),
(311,271,c),
(270,241,o),
(215,217,o),
(150,199,c)
);
},
{
closed = 1;
nodes = (
(131,616,l),
(972,616,l),
(972,796,l),
(131,796,l)
);
}
);
width = 1234;
},
{
layerId = "95DC38C8-633C-4490-9AF5-01E2DA151EE8";
shapes = (
{
closed = 1;
nodes = (
(188,0,l),
(1102,0,l),
(1102,107,l),
(389,107,l),
(505,185,o),
(568,276,o),
(568,428,cs),
(568,530,o),
(537,640,o),
(499,754,cs),
(464,864,o),
(431,974,o),
(431,1077,cs),
(431,1161,o),
(452,1224,o),
(501,1281,cs),
(547,1335,o),
(618,1361,o),
(713,1361,cs),
(824,1361,o),
(920,1328,o),
(1006,1249,c),
(1064,1344,l),
(969,1430,o),
(844,1470,o),
(718,1470,cs),
(556,1470,o),
(430,1408,o),
(362,1292,c),
(326,1234,o),
(307,1169,o),
(307,1092,cs),
(307,986,o),
(345,856,o),
(386,760,c),
(404,706,o),
(424,651,o),
(438,600,cs),
(453,548,o),
(460,493,o),
(460,438,cs),
(460,336,o),
(428,266,o),
(376,215,cs),
(328,167,o),
(262,133,o),
(188,105,c)
);
},
{
closed = 1;
nodes = (
(168,656,l),
(974,656,l),
(974,759,l),
(168,759,l)
);
}
);
width = 1234;
}
);
unicode = 163;
},
{
glyphname = currency;
layers = (
{
layerId = "754C31AE-F388-4929-9E05-D72B02926026";
shapes = (
{
closed = 1;
nodes = (
(271,61,l),
(412,217,l),
(470,188,o),
(535,170,o),
(600,170,cs),
(669,170,o),
(731,186,o),
(788,217,c),
(930,61,l),
(1118,264,l),
(976,414,l),
(1009,480,o),
(1026,553,o),
(1026,620,cs),
(1026,691,o),
(1009,764,o),
(976,826,c),
(1118,980,l),
(930,1183,l),
(788,1027,l),
(731,1059,o),
(665,1074,o),
(600,1074,cs),
(535,1074,o),
(470,1060,o),
(412,1027,c),
(271,1183,l),
(82,980,l),
(223,826,l),
(194,764,o),
(174,691,o),
(174,620,cs),
(174,553,o),
(194,479,o),
(223,414,c),
(82,264,l)
);
},
{
closed = 1;
nodes = (
(509,456,o),
(454,536,o),
(454,620,cs),
(454,717,o),
(512,786,o),
(600,786,cs),
(693,786,o),
(746,715,o),
(746,620,cs),
(746,530,o),
(693,456,o),
(600,456,cs)
);
}
);
width = 1200;
},
{
layerId = "C851E168-A0F3-4A98-BB70-DDAB26A4D58F";
shapes = (
{
closed = 1;
nodes = (
(256,106,l),
(397,261,l),
(459,219,o),
(526,198,o),
(600,198,cs),
(674,198,o),
(742,217,o),
(803,261,c),
(945,106,l),
(1076,247,l),
(935,399,l),
(978,468,o),
(999,545,o),
(999,620,cs),
(999,699,o),
(978,777,o),
(935,843,c),
(1076,995,l),
(945,1137,l),
(803,983,l),
(744,1026,o),
(674,1045,o),
(600,1045,cs),
(529,1045,o),
(459,1029,o),
(397,983,c),
(256,1137,l),
(125,995,l),
(265,843,l),
(226,777,o),
(203,699,o),
(203,620,cs),
(203,545,o),
(224,468,o),
(265,399,c),
(125,247,l)
);
},
{
closed = 1;
nodes = (
(504,391,o),
(435,459,o),
(412,546,c),
(399,616,o),
(423,675,o),
(467,703,c),
(514,789,o),
(595,816,o),
(673,768,c),
(852,723,o),
(823,391,o),
(600,391,cs)
);
}
);
width = 1200;
},
{
layerId = "95DC38C8-633C-4490-9AF5-01E2DA151EE8";
shapes = (
{
closed = 1;
nodes = (
(241,151,l),
(382,304,l),
(447,250,o),
(517,226,o),
(600,226,cs),
(678,226,o),
(753,248,o),
(818,304,c),
(959,151,l),
(1033,230,l),
(894,384,l),
(946,455,o),
(971,537,o),
(971,620,cs),
(971,707,o),
(946,789,o),
(894,860,c),
(1033,1010,l),
(959,1091,l),
(818,938,l),
(757,993,o),
(683,1016,o),
(600,1016,cs),
(522,1016,o),
(447,998,o),
(382,938,c),
(241,1091,l),
(167,1010,l),
(307,860,l),
(258,790,o),
(231,707,o),
(231,620,cs),
(231,537,o),
(254,457,o),
(307,384,c),
(167,230,l)
);
},
{
closed = 1;
nodes = (
(499,326,o),
(415,382,o),
(370,471,c),
(344,514,o),
(334,563,o),
(334,620,cs),
(334,791,o),
(444,916,o),
(600,916,cs),
(957,916,o),
(953,326,o),
(600,326,cs)
);
}
);
width = 1200;
}
);
unicode = 164;
},
{
glyphname = yen;
layers = (
{
layerId = "754C31AE-F388-4929-9E05-D72B02926026";
shapes = (
{
closed = 1;
nodes = (
(429,0,l),
(791,0,l),
(791,253,l),
(1129,253,l),
(1129,485,l),
(791,485,l),
(791,601,l),
(1129,601,l),
(1129,833,l),
(882,833,l),
(1250,1440,l),
(869,1440,l),
(615,969,l),
(378,1440,l),
(-14,1440,l),
(339,833,l),
(93,833,l),
(93,601,l),
(429,601,l),
(429,485,l),
(93,485,l),
(93,253,l),
(429,253,l)
);
}
);
width = 1234;
},
{
layerId = "C851E168-A0F3-4A98-BB70-DDAB26A4D58F";
shapes = (
{
closed = 1;
nodes = (
(494,0,l),
(734,0,l),
(734,290,l),
(1090,290,l),
(1090,458,l),
(734,458,l),
(734,622,l),
(1090,622,l),
(1090,790,l),
(814,790,l),
(1195,1440,l),
(941,1440,l),
(615,864,l),
(303,1440,l),
(40,1440,l),
(417,790,l),
(139,790,l),
(139,622,l),
(494,622,l),
(494,458,l),
(139,458,l),
(139,290,l),
(494,290,l)
);
}
);
width = 1234;
},
{
layerId = "95DC38C8-633C-4490-9AF5-01E2DA151EE8";
shapes = (
{
closed = 1;
nodes = (
(557,0,l),
(677,0,l),
(677,327,l),
(1050,327,l),
(1050,430,l),
(677,430,l),
(677,644,l),
(1050,644,l),
(1050,747,l),
(744,747,l),
(1140,1440,l),
(1013,1440,l),
(615,758,l),
(227,1440,l),
(95,1440,l),
(493,747,l),
(185,747,l),
(185,644,l),
(557,644,l),
(557,430,l),
(185,430,l),
(185,327,l),
(557,327,l)
);
}
);
width = 1234;
}
);
unicode = 165;
},
{
glyphname = brokenbar;
layers = (
{
layerId = "754C31AE-F388-4929-9E05-D72B02926026";
shapes = (
{
closed = 1;
nodes = (
(200,810,l),
(520,810,l),
(520,1480,l),
(200,1480,l)
);
},
{
closed = 1;
nodes = (
(200,-100,l),
(520,-100,l),
(520,570,l),
(200,570,l)
);
}
);
width = 720;
},
{
layerId = "C851E168-A0F3-4A98-BB70-DDAB26A4D58F";
shapes = (
{
closed = 1;
nodes = (
(200,810,l),
(410,810,l),
(410,1480,l),
(200,1480,l)
);
},
{
closed = 1;
nodes = (
(200,-100,l),
(410,-100,l),
(410,570,l),
(200,570,l)
);
}
);
width = 610;
},
{
layerId = "95DC38C8-633C-4490-9AF5-01E2DA151EE8";
shapes = (
{
closed = 1;
nodes = (
(200,810,l),
(300,810,l),
(300,1480,l),
(200,1480,l)
);
},
{
closed = 1;
nodes = (
(200,-100,l),
(300,-100,l),
(300,570,l),
(200,570,l)
);
}
);
width = 500;
}
);
leftKerningGroup = _bar2;
rightKerningGroup = _bar;
unicode = 166;
},
{
glyphname = section;
layers = (
{
layerId = "754C31AE-F388-4929-9E05-D72B02926026";
shapes = (
{
closed = 1;
nodes = (
(873,-463,o),
(1037,-394,o),
(1133,-269,c),
(1178,-207,o),
(1203,-134,o),
(1203,-51,cs),
(1203,68,o),
(1168,154,o),
(1093,217,c),
(1019,283,o),
(904,328,o),
(738,360,cs),
(639,379,o),
(572,401,o),
(522,427,cs),
(476,450,o),
(450,484,o),
(450,528,cs),
(450,599,o),
(495,646,o),
(570,669,c),
(605,678,o),
(643,686,o),
(685,685,c),
(683,898,l),
(514,902,o),
(372,859,o),
(265,790,c),
(158,715,o),
(97,618,o),
(97,502,cs),
(97,344,o),
(174,248,o),
(342,181,cs),
(426,148,o),
(529,120,o),
(658,93,c),
(769,72,o),
(828,48,o),
(849,16,c),
(861,0,o),
(868,-20,o),
(868,-41,cs),
(868,-71,o),
(849,-99,o),
(813,-116,c),
(777,-137,o),
(730,-146,o),
(672,-146,cs),
(601,-146,o),
(527,-134,o),
(453,-109,cs),
(375,-83,o),
(313,-50,o),
(255,-8,c),
(130,-300,l),
(192,-346,o),
(270,-388,o),
(365,-416,c),
(460,-448,o),
(553,-463,o),
(660,-463,cs)
);
},
{
closed = 1;
nodes = (
(695,115,l),
(806,115,o),
(904,132,o),
(994,166,cs),
(1085,199,o),
(1151,244,o),
(1204,305,cs),
(1257,367,o),
(1283,436,o),
(1283,518,cs),
(1283,630,o),
(1237,713,o),
(1146,776,c),
(1056,835,o),
(918,884,o),
(728,921,cs),
(609,946,o),
(551,967,o),
(529,996,cs),
(518,1013,o),
(512,1031,o),
(512,1053,cs),
(512,1082,o),
(529,1106,o),
(562,1127,c),
(598,1144,o),
(639,1153,o),
(697,1153,cs),
(780,1153,o),
(879,1131,o),
(970,1089,c),
(1017,1069,o),
(1058,1044,o),
(1094,1016,c),
(1219,1308,l),
(1149,1361,o),
(1074,1403,o),
(984,1429,cs),
(892,1457,o),
(800,1470,o),
(705,1470,cs),
(495,1470,o),
(337,1402,o),
(247,1279,cs),
(200,1216,o),
(179,1148,o),
(179,1065,cs),
(179,949,o),
(213,862,o),
(287,797,c),
(358,731,o),
(474,684,o),
(635,654,cs),
(771,629,o),
(856,604,o),
(897,564,cs),
(918,545,o),
(929,519,o),
(929,491,cs),
(929,413,o),
(881,366,o),
(807,342,c),
(771,333,o),
(731,325,o),
(691,325,c)
);
}
);
width = 1357;
},
{
layerId = "C851E168-A0F3-4A98-BB70-DDAB26A4D58F";
shapes = (
{
closed = 1;
nodes = (
(832,-463,o),
(982,-397,o),
(1067,-281,c),
(1107,-221,o),
(1130,-154,o),
(1130,-76,cs),
(1130,34,o),
(1097,114,o),
(1026,171,c),
(956,230,o),
(852,273,o),
(703,306,cs),
(594,331,o),
(518,360,o),
(461,393,cs),
(407,424,o),
(378,470,o),
(378,533,cs),
(378,618,o),
(431,681,o),
(519,713,c),
(561,728,o),
(608,737,o),
(660,735,c),
(664,887,l),
(517,891,o),
(392,853,o),
(297,787,c),
(203,719,o),
(148,628,o),
(148,518,cs),
(148,373,o),
(213,280,o),
(359,211,cs),
(430,178,o),
(518,149,o),
(630,120,cs),
(772,85,o),
(849,53,o),
(880,8,cs),
(897,-16,o),
(906,-44,o),
(906,-78,cs),
(906,-131,o),
(882,-175,o),
(833,-205,c),
(784,-236,o),
(723,-251,o),
(645,-251,cs),
(576,-251,o),
(507,-238,o),
(437,-214,cs),
(364,-188,o),
(304,-153,o),
(253,-107,c),
(154,-302,l),
(208,-346,o),
(278,-387,o),
(364,-416,c),
(450,-448,o),
(538,-463,o),
(636,-463,cs)
);
},
{
closed = 1;
nodes = (
(670,126,l),
(771,126,o),
(858,143,o),
(940,176,cs),
(1020,210,o),
(1080,254,o),
(1127,314,cs),
(1174,374,o),
(1198,442,o),
(1198,522,cs),
(1198,628,o),
(1157,704,o),
(1075,765,c),
(995,820,o),
(878,867,o),
(719,902,c),
(580,935,o),
(500,962,o),
(464,1007,cs),
(444,1032,o),
(435,1062,o),
(435,1098,cs),
(435,1148,o),
(456,1186,o),
(500,1217,c),
(547,1245,o),
(601,1259,o),
(673,1259,cs),
(761,1259,o),
(853,1238,o),
(937,1195,c),
(979,1175,o),
(1017,1149,o),
(1050,1118,c),
(1144,1316,l),
(1082,1367,o),
(1017,1406,o),
(937,1431,cs),
(855,1458,o),
(773,1470,o),
(685,1470,cs),
(498,1470,o),
(357,1405,o),
(277,1292,cs),
(234,1234,o),
(216,1173,o),
(216,1098,cs),
(216,995,o),
(247,916,o),
(315,857,c),
(379,798,o),
(486,750,o),
(635,717,cs),
(792,680,o),
(885,649,o),
(928,599,cs),
(951,575,o),
(962,542,o),
(962,505,cs),
(962,406,o),
(906,339,o),
(817,303,c),
(773,288,o),
(722,277,o),
(669,277,c)
);
}
);
width = 1309;
},
{
layerId = "95DC38C8-633C-4490-9AF5-01E2DA151EE8";
shapes = (
{
closed = 1;
nodes = (
(790,-463,o),
(925,-400,o),
(1000,-292,c),
(1036,-234,o),
(1056,-175,o),
(1056,-101,cs),
(1056,-1,o),
(1025,74,o),
(959,124,c),
(893,178,o),
(800,219,o),
(667,253,cs),
(548,283,o),
(465,318,o),
(399,358,cs),
(337,396,o),
(305,454,o),
(305,537,cs),
(305,635,o),
(365,714,o),
(468,757,cs),
(517,776,o),
(572,788,o),
(634,785,c),
(645,876,l),
(520,880,o),
(411,846,o),
(329,784,cs),
(247,722,o),
(198,637,o),
(198,535,cs),
(198,402,o),
(251,310,o),
(374,241,cs),
(433,207,o),
(507,177,o),
(601,148,c),
(775,99,o),
(871,58,o),
(911,-1,cs),
(932,-33,o),
(943,-69,o),
(943,-115,cs),
(943,-190,o),
(914,-251,o),
(852,-292,c),
(791,-336,o),
(714,-356,o),
(616,-356,cs),
(550,-356,o),
(485,-343,o),
(419,-319,cs),
(353,-293,o),
(296,-256,o),
(250,-206,c),
(178,-304,l),
(222,-346,o),
(284,-386,o),
(362,-415,c),
(440,-448,o),
(521,-463,o),
(612,-463,cs)
);
},
{
closed = 1;
nodes = (
(645,138,l),
(735,138,o),
(813,154,o),
(884,186,c),
(954,219,o),
(1008,263,o),
(1050,322,cs),
(1091,380,o),
(1111,448,o),
(1111,526,cs),
(1111,625,o),
(1075,695,o),
(1004,752,c),
(933,805,o),
(837,849,o),
(708,882,cs),
(551,924,o),
(447,957,o),
(397,1019,c),
(369,1051,o),
(357,1093,o),
(357,1143,cs),
(357,1213,o),
(383,1265,o),
(437,1307,c),
(494,1345,o),
(562,1365,o),
(649,1365,cs),
(740,1365,o),
(828,1345,o),
(903,1300,c),
(941,1280,o),
(975,1254,o),
(1004,1221,c),
(1068,1324,l),
(1015,1373,o),
(958,1408,o),
(888,1433,cs),
(818,1458,o),
(745,1470,o),
(663,1470,cs),
(499,1470,o),
(375,1407,o),
(305,1305,cs),
(268,1251,o),
(252,1197,o),
(252,1131,cs),
(252,1040,o),
(280,969,o),
(341,917,c),
(400,865,o),
(498,817,o),
(634,779,cs),
(811,730,o),
(913,692,o),
(959,633,cs),
(983,603,o),
(994,564,o),
(994,518,cs),
(994,398,o),
(930,313,o),
(827,264,c),
(774,243,o),
(712,228,o),
(647,228,c)
);
}
);
width = 1259;
}
);
unicode = 167;
},
{
glyphname = copyright;
layers = (
{
layerId = "754C31AE-F388-4929-9E05-D72B02926026";
shapes = (
{
closed = 1;
nodes = (
(1077,-49,o),
(1260,30,o),
(1401,167,cs),
(1541,303,o),
(1620,486,o),
(1620,701,cs),
(1620,914,o),
(1541,1097,o),
(1401,1234,cs),
(1260,1370,o),
(1078,1452,o),
(861,1452,cs),
(645,1452,o),
(463,1373,o),
(322,1237,cs),
(181,1100,o),
(103,918,o),
(103,701,cs),
(103,487,o),
(182,304,o),
(323,168,cs),
(464,31,o),
(646,-49,o),
(862,-49,cs)
);
},
{
closed = 1;
nodes = (
(700,115,o),
(561,173,o),
(454,277,cs),
(346,379,o),
(286,521,o),
(286,701,cs),
(286,882,o),
(347,1023,o),
(454,1127,cs),
(562,1229,o),
(701,1285,o),
(862,1285,cs),
(1024,1285,o),
(1162,1229,o),
(1270,1127,cs),
(1376,1023,o),
(1437,882,o),
(1437,701,cs),
(1437,521,o),
(1378,379,o),
(1270,277,cs),
(1163,173,o),
(1023,115,o),
(861,115,cs)
);
},
{
closed = 1;
nodes = (
(1035,282,o),
(1139,323,o),
(1213,376,c),
(1118,551,l),
(1053,506,o),
(979,483,o),
(905,483,cs),
(830,483,o),
(772,502,o),
(730,543,c),
(685,581,o),
(664,634,o),
(664,701,cs),
(664,771,o),
(685,820,o),
(729,861,cs),
(770,900,o),
(829,919,o),
(903,919,cs),
(986,919,o),
(1048,896,o),
(1092,851,c),
(1195,1022,l),
(1117,1087,o),
(1028,1121,o),
(888,1121,cs),
(715,1121,o),
(582,1048,o),
(504,919,c),
(467,853,o),
(446,781,o),
(446,699,cs),
(446,525,o),
(525,401,o),
(658,334,c),
(724,298,o),
(800,282,o),
(886,282,cs)
);
}
);
width = 1723;
},
{
layerId = "C851E168-A0F3-4A98-BB70-DDAB26A4D58F";
shapes = (
{
closed = 1;
nodes = (
(1080,-40,o),
(1262,39,o),
(1403,176,cs),
(1541,313,o),
(1620,495,o),
(1620,710,cs),
(1620,924,o),
(1541,1107,o),
(1403,1244,cs),
(1262,1381,o),
(1080,1461,o),
(861,1461,cs),
(644,1461,o),
(460,1384,o),
(321,1247,cs),
(182,1110,o),
(103,928,o),
(103,710,cs),
(103,498,o),
(183,315,o),
(322,178,cs),
(461,41,o),
(645,-40,o),
(862,-40,cs)
);
},
{
closed = 1;
nodes = (
(693,86,o),
(544,147,o),
(429,259,c),
(310,368,o),
(243,520,o),
(243,710,cs),
(243,904,o),
(313,1053,o),
(428,1165,c),
(546,1274,o),
(694,1333,o),
(862,1333,cs),
(1032,1333,o),
(1179,1274,o),
(1297,1165,c),
(1412,1053,o),
(1480,904,o),
(1480,710,cs),
(1480,520,o),
(1415,368,o),
(1296,259,c),
(1181,147,o),
(1031,86,o),
(861,86,cs)
);
},
{
closed = 1;
nodes = (
(1025,291,o),
(1124,327,o),
(1202,384,c),
(1130,517,l),
(1060,466,o),
(982,443,o),
(904,443,cs),
(815,443,o),
(746,466,o),
(695,516,c),
(640,562,o),
(616,628,o),
(616,710,cs),
(616,796,o),
(640,857,o),
(694,908,cs),
(743,955,o),
(812,978,o),
(898,978,cs),
(984,978,o),
(1052,956,o),
(1100,909,c),
(1180,1038,l),
(1109,1098,o),
(1020,1130,o),
(887,1130,cs),
(717,1130,o),
(584,1057,o),
(508,928,c),
(472,862,o),
(451,792,o),
(451,709,cs),
(451,537,o),
(528,412,o),
(659,344,c),
(725,307,o),
(800,291,o),
(886,291,cs)
);
}
);
width = 1723;
},
{
layerId = "95DC38C8-633C-4490-9AF5-01E2DA151EE8";
shapes = (
{
closed = 1;
nodes = (
(1082,-31,o),
(1263,48,o),
(1404,185,cs),
(1541,322,o),
(1620,505,o),
(1620,720,cs),
(1620,933,o),
(1541,1116,o),
(1404,1253,cs),
(1263,1390,o),
(1082,1470,o),
(861,1470,cs),
(643,1470,o),
(456,1393,o),
(320,1256,cs),
(183,1119,o),
(103,938,o),
(103,720,cs),
(103,507,o),
(183,324,o),
(320,187,cs),
(456,50,o),
(643,-31,o),
(861,-31,cs)
);
},
{
closed = 1;
nodes = (
(685,58,o),
(526,120,o),
(402,241,c),
(274,357,o),
(199,518,o),
(199,720,cs),
(199,924,o),
(277,1081,o),
(401,1202,c),
(528,1318,o),
(686,1382,o),
(861,1382,cs),
(1039,1382,o),
(1197,1318,o),
(1324,1202,c),
(1448,1081,o),
(1523,924,o),
(1523,720,cs),
(1523,518,o),
(1451,357,o),
(1323,241,c),
(1199,120,o),
(1038,58,o),
(861,58,cs)
);
},
{
closed = 1;
nodes = (
(1014,300,o),
(1108,331,o),
(1190,393,c),
(1141,483,l),
(1067,426,o),
(985,403,o),
(903,403,cs),
(800,403,o),
(721,430,o),
(659,488,c),
(596,543,o),
(567,621,o),
(567,720,cs),
(567,819,o),
(596,894,o),
(658,953,cs),
(717,1011,o),
(796,1036,o),
(894,1036,cs),
(982,1036,o),
(1055,1016,o),
(1108,966,c),
(1166,1055,l),
(1101,1108,o),
(1011,1139,o),
(886,1139,cs),
(718,1139,o),
(586,1065,o),
(512,937,c),
(476,871,o),
(456,802,o),
(456,720,cs),
(456,548,o),
(531,424,o),
(660,354,cs),
(726,317,o),
(800,300,o),
(886,300,cs)
);
}
);
width = 1723;
}
);
rightKerningGroup = _at;
unicode = 169;
},
{
glyphname = ordfeminine;
layers = (
{
hints = (
{
horizontal = 1;
place = (942,216);
type = Stem;
},
{
horizontal = 1;
place = (1242,175);
type = Stem;
},
{
horizontal = 1;
place = (1464,231);
type = Stem;
}
);
layerId = "754C31AE-F388-4929-9E05-D72B02926026";
shapes = (
{
closed = 1;
nodes = (
(417,717,o),
(523,756,o),
(570,822,c),
(613,761,o),
(682,717,o),
(778,717,cs),
(793,717,o),
(805,718,o),
(833,721,c),
(855,921,l),
(847,918,o),
(834,917,o),
(827,917,cs),
(788,917,o),
(776,946,o),
(776,986,cs),
(776,1168,ls),
(776,1384,o),
(616,1470,o),
(415,1470,cs),
(294,1470,o),
(176,1438,o),
(77,1372,c),
(153,1201,l),
(211,1225,o),
(288,1239,o),
(361,1239,cs),
(396,1239,o),
(515,1236,o),
(515,1184,cs),
(515,1181,l),
(545,1186,l),
(508,1191,o),
(473,1191,o),
(473,1191,cs),
(271,1191,o),
(39,1152,o),
(39,948,cs),
(39,801,o),
(158,717,o),
(313,717,cs)
);
},
{
closed = 1;
nodes = (
(351,932,o),
(319,944,o),
(319,969,cs),
(319,1011,o),
(399,1017,o),
(448,1017,cs),
(476,1017,o),
(512,1015,o),
(548,1007,c),
(517,1017,l),
(517,1003,ls),
(517,954,o),
(465,932,o),
(399,932,cs)
);
}
);
width = 856;
},
{
layerId = "C851E168-A0F3-4A98-BB70-DDAB26A4D58F";
shapes = (
{
closed = 1;
nodes = (
(430,717,o),
(531,758,o),
(581,832,c),
(608,774,o),
(662,717,o),
(749,717,cs),
(764,717,o),
(782,719,o),
(803,722,c),
(819,862,l),
(812,859,o),
(799,857,o),
(791,857,cs),
(747,857,o),
(730,898,o),
(730,937,cs),
(730,1189,ls),
(730,1391,o),
(588,1470,o),
(401,1470,cs),
(298,1470,o),
(191,1445,o),
(99,1382,c),
(154,1255,l),
(220,1293,o),
(295,1310,o),
(368,1310,cs),
(448,1310,o),
(553,1281,o),
(553,1196,cs),
(553,1160,l),
(585,1170,l),
(535,1176,o),
(488,1178,o),
(462,1178,cs),
(287,1178,o),
(57,1142,o),
(57,938,cs),
(57,792,o),
(174,717,o),
(321,717,cs)
);
},
{
closed = 1;
nodes = (
(293,870,o),
(244,898,o),
(244,951,cs),
(244,1038,o),
(377,1051,o),
(451,1051,cs),
(489,1051,o),
(536,1048,o),
(587,1039,c),
(554,1061,l),
(554,999,ls),
(554,909,o),
(461,870,o),
(370,870,cs)
);
}
);
width = 829;
},
{
hints = (
{
horizontal = 1;
place = (942,89);
type = Stem;
},
{
horizontal = 1;
place = (1309,81);
type = Stem;
},
{
horizontal = 1;
place = (1605,90);
type = Stem;
},
{
place = (74,95);
type = Stem;
},
{
place = (590,94);
type = Stem;
}
);
layerId = "95DC38C8-633C-4490-9AF5-01E2DA151EE8";
shapes = (
{
closed = 1;
nodes = (
(442,717,o),
(540,760,o),
(592,840,c),
(601,787,o),
(641,717,o),
(721,717,cs),
(734,717,o),
(759,719,o),
(772,723,c),
(783,804,l),
(776,800,o),
(763,798,o),
(754,798,cs),
(706,798,o),
(684,850,o),
(684,887,cs),
(684,1210,ls),
(684,1398,o),
(559,1470,o),
(387,1470,cs),
(301,1470,o),
(207,1453,o),
(119,1391,c),
(154,1310,l),
(229,1361,o),
(301,1380,o),
(374,1380,cs),
(500,1380,o),
(590,1325,o),
(590,1206,cs),
(590,1137,l),
(624,1152,l),
(560,1161,o),
(503,1165,o),
(450,1165,cs),
(301,1165,o),
(74,1131,o),
(74,927,cs),
(74,782,o),
(189,717,o),
(329,717,cs)
);
},
{
closed = 1;
nodes = (
(234,806,o),
(169,853,o),
(169,932,cs),
(169,1066,o),
(355,1084,o),
(453,1084,cs),
(502,1084,o),
(559,1079,o),
(625,1070,c),
(590,1105,l),
(590,994,ls),
(590,864,o),
(456,806,o),
(340,806,cs)
);
}
);
width = 800;
}
);
leftKerningGroup = _degree2;
rightKerningGroup = _degree;
unicode = 170;
},
{
glyphname = guillemotleft;
layers = (
{
layerId = "754C31AE-F388-4929-9E05-D72B02926026";
shapes = (
{
closed = 1;
nodes = (
(843,60,l),
(1112,221,l),
(928,528,l),
(1112,837,l),
(843,998,l),
(560,528,l)
);
},
{
closed = 1;
nodes = (
(323,60,l),
(592,221,l),
(408,528,l),
(592,837,l),
(323,998,l),
(40,528,l)
);
}
);
width = 1230;
},
{
layerId = "C851E168-A0F3-4A98-BB70-DDAB26A4D58F";
shapes = (
{
closed = 1;
nodes = (
(812,86,l),
(981,195,l),
(746,513,l),
(980,832,l),
(812,942,l),
(500,513,l)
);
},
{
closed = 1;
nodes = (
(362,86,l),
(531,195,l),
(296,513,l),
(530,832,l),
(362,942,l),
(50,513,l)
);
}
);
width = 1093;
},
{
layerId = "95DC38C8-633C-4490-9AF5-01E2DA151EE8";
shapes = (
{
closed = 1;
nodes = (
(781,111,l),
(849,169,l),
(564,498,l),
(848,827,l),
(781,886,l),
(440,498,l)
);
},
{
closed = 1;
nodes = (
(401,111,l),
(469,169,l),
(184,498,l),
(468,827,l),
(401,886,l),
(60,498,l)
);
}
);
width = 956;
}
);
unicode = 171;
},
{
glyphname = logicalnot;
layers = (
{
layerId = "754C31AE-F388-4929-9E05-D72B02926026";
shapes = (
{
closed = 1;
nodes = (
(944,290,l),
(1228,290,l),
(1228,1050,l),
(68,1050,l),
(68,782,l),
(944,782,l)
);
}
);
width = 1296;
},
{
layerId = "C851E168-A0F3-4A98-BB70-DDAB26A4D58F";
shapes = (
{
closed = 1;
nodes = (
(980,374,l),
(1172,374,l),
(1172,960,l),
(124,960,l),
(124,778,l),
(980,778,l)
);
}
);
width = 1296;
},
{
layerId = "95DC38C8-633C-4490-9AF5-01E2DA151EE8";
shapes = (
{
closed = 1;
nodes = (
(1016,458,l),
(1116,458,l),
(1116,870,l),
(180,870,l),
(180,774,l),
(1016,774,l)
);
}
);
width = 1296;
}
);
leftKerningGroup = _plus2;
rightKerningGroup = _plus;
unicode = 172;
},
{
glyphname = softhyphen;
layers = (
{
layerId = "754C31AE-F388-4929-9E05-D72B02926026";
shapes = (
{
closed = 1;
nodes = (
(90,392,l),
(710,392,l),
(710,742,l),
(90,742,l)
);
}
);
width = 800;
},
{
layerId = "C851E168-A0F3-4A98-BB70-DDAB26A4D58F";
shapes = (
{
closed = 1;
nodes = (
(113,452,l),
(669,452,l),
(669,675,l),
(113,675,l)
);
}
);
width = 782;
},
{
layerId = "95DC38C8-633C-4490-9AF5-01E2DA151EE8";
shapes = (
{
closed = 1;
nodes = (
(136,512,l),
(628,512,l),
(628,608,l),
(136,608,l)
);
}
);
width = 764;
}
);
leftKerningGroup = _hyphen2;
rightKerningGroup = _hyphen;
unicode = 173;
},
{
glyphname = registered;
layers = (
{
layerId = "754C31AE-F388-4929-9E05-D72B02926026";
shapes = (
{
closed = 1;
nodes = (
(706,470,o),
(792,493,o),
(872,538,cs),
(952,583,o),
(1014,644,o),
(1061,721,cs),
(1108,798,o),
(1130,885,o),
(1130,982,cs),
(1130,1078,o),
(1108,1163,o),
(1061,1240,cs),
(1014,1317,o),
(952,1377,o),
(872,1424,cs),
(792,1469,o),
(706,1492,o),
(606,1492,cs),
(506,1492,o),
(421,1470,o),
(341,1425,cs),
(261,1380,o),
(200,1320,o),
(153,1244,cs),
(106,1167,o),
(82,1079,o),
(82,982,cs),
(82,885,o),
(107,798,o),
(152,721,cs),
(199,644,o),
(260,583,o),
(340,538,cs),
(420,493,o),
(506,470,o),
(606,470,cs)
);
},
{
closed = 1;
nodes = (
(530,566,o),
(462,583,o),
(398,618,cs),
(334,653,o),
(284,700,o),
(247,765,cs),
(210,829,o),
(190,898,o),
(190,982,cs),
(190,1066,o),
(208,1135,o),
(248,1199,cs),
(287,1263,o),
(335,1308,o),
(399,1343,cs),
(463,1378,o),
(531,1394,o),
(607,1394,cs),
(683,1394,o),
(750,1378,o),
(815,1343,cs),
(879,1308,o),
(928,1263,o),
(965,1199,cs),
(1004,1135,o),
(1022,1066,o),
(1022,982,cs),
(1022,898,o),
(1004,829,o),
(967,765,c),
(927,700,o),
(879,653,o),
(815,618,cs),
(751,583,o),
(682,566,o),
(606,566,cs)
);
},
{
closed = 1;
nodes = (
(410,706,l),
(532,706,l),
(532,912,l),
(592,912,l),
(730,706,l),
(876,706,l),
(716,936,l),
(792,956,o),
(846,1008,o),
(846,1088,cs),
(846,1141,o),
(827,1184,o),
(790,1213,c),
(750,1242,o),
(702,1256,o),
(638,1256,cs),
(410,1256,l)
);
},
{
closed = 1;
nodes = (
(532,1010,l),
(532,1156,l),
(628,1156,ls),
(689,1156,o),
(722,1131,o),
(722,1082,cs),
(722,1035,o),
(686,1010,o),
(622,1010,cs)
);
}
);
width = 1212;
},
{
layerId = "C851E168-A0F3-4A98-BB70-DDAB26A4D58F";
shapes = (
{
closed = 1;
nodes = (
(710,474,o),
(797,497,o),
(877,542,cs),
(957,587,o),
(1018,648,o),
(1065,725,cs),
(1112,802,o),
(1134,888,o),
(1134,985,cs),
(1134,1081,o),
(1112,1166,o),
(1065,1244,cs),
(1018,1321,o),
(956,1381,o),
(876,1428,cs),
(798,1473,o),
(711,1496,o),
(610,1496,cs),
(510,1496,o),
(425,1474,o),
(345,1429,cs),
(265,1384,o),
(204,1324,o),
(157,1248,cs),
(110,1171,o),
(86,1082,o),
(86,985,cs),
(86,888,o),
(111,802,o),
(155,725,c),
(202,648,o),
(263,587,o),
(343,542,cs),
(423,497,o),
(510,474,o),
(610,474,cs)
);
},
{
closed = 1;
nodes = (
(532,555,o),
(462,573,o),
(395,609,cs),
(329,645,o),
(277,694,o),
(237,761,cs),
(198,827,o),
(177,899,o),
(177,985,cs),
(177,1072,o),
(196,1145,o),
(238,1212,cs),
(279,1278,o),
(330,1325,o),
(396,1361,cs),
(463,1397,o),
(533,1414,o),
(611,1414,cs),
(689,1414,o),
(759,1397,o),
(826,1361,cs),
(892,1325,o),
(944,1278,o),
(983,1211,c),
(1025,1145,o),
(1043,1072,o),
(1043,985,cs),
(1043,899,o),
(1025,827,o),
(985,761,cs),
(943,694,o),
(892,645,o),
(825,609,cs),
(759,573,o),
(689,555,o),
(610,555,cs)
);
},
{
closed = 1;
nodes = (
(421,710,l),
(522,710,l),
(522,925,l),
(595,925,l),
(748,710,l),
(870,710,l),
(701,943,l),
(785,961,o),
(842,1014,o),
(842,1094,cs),
(842,1146,o),
(824,1188,o),
(788,1217,cs),
(751,1246,o),
(703,1259,o),
(642,1259,cs),
(421,1259,l)
);
},
{
closed = 1;
nodes = (
(522,1008,l),
(522,1175,l),
(633,1175,ls),
(704,1175,o),
(738,1145,o),
(738,1090,cs),
(738,1039,o),
(698,1008,o),
(626,1008,cs)
);
}
);
width = 1220;
},
{
layerId = "95DC38C8-633C-4490-9AF5-01E2DA151EE8";
shapes = (
{
closed = 1;
nodes = (
(714,478,o),
(802,501,o),
(882,546,cs),
(962,591,o),
(1022,652,o),
(1069,729,cs),
(1116,806,o),
(1138,891,o),
(1138,988,cs),
(1138,1084,o),
(1116,1168,o),
(1069,1248,cs),
(1022,1325,o),
(960,1385,o),
(880,1432,cs),
(803,1477,o),
(715,1500,o),
(614,1500,cs),
(514,1500,o),
(428,1478,o),
(348,1433,cs),
(268,1388,o),
(207,1328,o),
(160,1251,cs),
(113,1174,o),
(90,1085,o),
(90,988,cs),
(90,891,o),
(114,806,o),
(158,729,c),
(205,652,o),
(266,591,o),
(346,546,cs),
(426,501,o),
(514,478,o),
(614,478,cs)
);
},
{
closed = 1;
nodes = (
(534,544,o),
(461,563,o),
(392,600,cs),
(324,637,o),
(270,687,o),
(227,756,cs),
(186,824,o),
(164,899,o),
(164,988,cs),
(164,1077,o),
(183,1155,o),
(227,1224,cs),
(271,1292,o),
(324,1342,o),
(393,1379,cs),
(462,1416,o),
(534,1434,o),
(614,1434,cs),
(695,1434,o),
(767,1416,o),
(836,1379,cs),
(905,1342,o),
(960,1292,o),
(1001,1223,c),
(1045,1155,o),
(1064,1077,o),
(1064,988,cs),
(1064,899,o),
(1045,824,o),
(1002,756,cs),
(958,687,o),
(904,637,o),
(835,600,cs),
(767,563,o),
(695,544,o),
(614,544,cs)
);
},
{
closed = 1;
nodes = (
(432,714,l),
(512,714,l),
(512,938,l),
(598,938,l),
(766,714,l),
(864,714,l),
(686,950,l),
(778,965,o),
(838,1020,o),
(838,1100,cs),
(838,1151,o),
(821,1191,o),
(786,1220,cs),
(751,1249,o),
(703,1262,o),
(646,1262,cs),
(432,1262,l)
);
},
{
closed = 1;
nodes = (
(512,1006,l),
(512,1194,l),
(638,1194,ls),
(719,1194,o),
(754,1159,o),
(754,1098,cs),
(754,1042,o),
(710,1006,o),
(630,1006,cs)
);
}
);
width = 1228;
}
);
leftKerningGroup = _degree2;
rightKerningGroup = _degree;
unicode = 174;
},
{
glyphname = degree;
layers = (
{
layerId = "754C31AE-F388-4929-9E05-D72B02926026";
shapes = (
{
closed = 1;
nodes = (
(603,606,o),
(732,681,o),
(805,809,c),
(844,869,o),
(860,938,o),
(860,1014,cs),
(860,1090,o),
(844,1160,o),
(805,1220,c),
(769,1281,o),
(721,1330,o),
(657,1366,cs),
(593,1403,o),
(526,1420,o),
(446,1420,cs),
(366,1420,o),
(300,1403,o),
(236,1366,c),
(172,1331,o),
(125,1281,o),
(86,1220,c),
(50,1160,o),
(30,1090,o),
(30,1014,cs),
(30,938,o),
(50,871,o),
(86,807,cs),
(123,743,o),
(172,697,o),
(236,660,c),
(300,625,o),
(366,606,o),
(446,606,cs)
);
},
{
closed = 1;
nodes = (
(399,852,o),
(363,866,o),
(334,897,c),
(303,928,o),
(288,967,o),
(288,1014,cs),
(288,1078,o),
(317,1127,o),
(365,1155,cs),
(388,1168,o),
(415,1174,o),
(446,1174,cs),
(493,1174,o),
(529,1161,o),
(560,1130,c),
(589,1099,o),
(604,1061,o),
(604,1014,cs),
(604,953,o),
(576,902,o),
(528,875,cs),
(503,860,o),
(477,852,o),
(446,852,cs)
);
}
);
width = 890;
},
{
layerId = "C851E168-A0F3-4A98-BB70-DDAB26A4D58F";
shapes = (
{
closed = 1;
nodes = (
(600,658,o),
(722,730,o),
(791,849,c),
(828,905,o),
(843,970,o),
(843,1040,cs),
(843,1111,o),
(828,1176,o),
(791,1232,c),
(757,1289,o),
(712,1336,o),
(652,1369,cs),
(592,1404,o),
(529,1420,o),
(455,1420,cs),
(381,1420,o),
(320,1404,o),
(260,1369,c),
(200,1336,o),
(155,1289,o),
(118,1232,c),
(84,1176,o),
(65,1111,o),
(65,1041,cs),
(65,970,o),
(84,908,o),
(118,848,cs),
(153,788,o),
(200,744,o),
(260,710,cs),
(320,676,o),
(381,658,o),
(455,658,cs)
);
},
{
closed = 1;
nodes = (
(392,829,o),
(343,848,o),
(305,888,cs),
(265,928,o),
(244,979,o),
(244,1040,cs),
(244,1123,o),
(283,1188,o),
(347,1224,cs),
(378,1241,o),
(414,1249,o),
(455,1249,cs),
(519,1249,o),
(568,1232,o),
(608,1193,c),
(645,1154,o),
(665,1104,o),
(665,1040,cs),
(665,958,o),
(630,892,o),
(566,858,c),
(533,839,o),
(497,829,o),
(455,829,cs)
);
}
);
width = 908;
},
{
layerId = "95DC38C8-633C-4490-9AF5-01E2DA151EE8";
shapes = (
{
closed = 1;
nodes = (
(597,710,o),
(712,779,o),
(777,888,c),
(812,941,o),
(826,1001,o),
(826,1066,cs),
(826,1131,o),
(812,1191,o),
(777,1244,c),
(745,1297,o),
(703,1341,o),
(647,1372,c),
(591,1405,o),
(532,1420,o),
(464,1420,cs),
(396,1420,o),
(339,1405,o),
(283,1372,c),
(227,1341,o),
(185,1297,o),
(150,1244,c),
(118,1191,o),
(100,1131,o),
(100,1067,cs),
(100,1002,o),
(118,944,o),
(150,888,cs),
(182,832,o),
(227,791,o),
(283,759,cs),
(339,727,o),
(396,710,o),
(464,710,cs)
);
},
{
closed = 1;
nodes = (
(384,806,o),
(323,830,o),
(275,879,cs),
(226,928,o),
(200,990,o),
(200,1066,cs),
(200,1167,o),
(248,1248,o),
(328,1292,cs),
(367,1313,o),
(412,1324,o),
(464,1324,cs),
(544,1324,o),
(607,1302,o),
(656,1255,c),
(701,1208,o),
(726,1146,o),
(726,1066,cs),
(726,962,o),
(683,881,o),
(603,840,c),
(563,817,o),
(516,806,o),
(464,806,cs)
);
}
);
width = 926;
}
);
leftKerningGroup = _degree2;
rightKerningGroup = _degree;
unicode = 176;
},
{
glyphname = twosuperior;
layers = (
{
layerId = "754C31AE-F388-4929-9E05-D72B02926026";
shapes = (
{
closed = 1;
nodes = (
(474,1443,o),
(509,1415,o),
(509,1347,cs),
(509,1229,o),
(167,987,o),
(66,921,c),
(66,721,l),
(756,721,l),
(756,940,l),
(456,940,l),
(593,1018,o),
(764,1176,o),
(764,1344,cs),
(764,1551,o),
(603,1656,o),
(409,1656,cs),
(235,1656,o),
(74,1538,o),
(26,1369,c),
(234,1267,l),
(260,1335,o),
(327,1443,o),
(409,1443,cs)
);
}
);
width = 854;
},
{
layerId = "C851E168-A0F3-4A98-BB70-DDAB26A4D58F";
shapes = (
{
closed = 1;
nodes = (
(509,1495,o),
(554,1458,o),
(554,1369,cs),
(554,1202,o),
(223,952,o),
(90,858,c),
(90,714,l),
(731,714,l),
(731,875,l),
(375,875,l),
(523,972,o),
(738,1176,o),
(738,1363,cs),
(738,1550,o),
(605,1649,o),
(414,1649,cs),
(258,1649,o),
(112,1545,o),
(68,1393,c),
(222,1321,l),
(249,1401,o),
(323,1495,o),
(414,1495,cs)
);
}
);
width = 855;
},
{
layerId = "95DC38C8-633C-4490-9AF5-01E2DA151EE8";
shapes = (
{
closed = 1;
nodes = (
(544,1547,o),
(599,1500,o),
(599,1391,cs),
(599,1174,o),
(278,916,o),
(113,795,c),
(113,707,l),
(705,707,l),
(705,809,l),
(294,809,l),
(452,926,o),
(711,1176,o),
(711,1382,cs),
(711,1549,o),
(606,1642,o),
(418,1642,cs),
(280,1642,o),
(150,1551,o),
(109,1417,c),
(209,1374,l),
(237,1466,o),
(318,1547,o),
(418,1547,cs)
);
}
);
width = 856;
}
);
unicode = 178;
},
{
glyphname = threesuperior;
layers = (
{
layerId = "754C31AE-F388-4929-9E05-D72B02926026";
shapes = (
{
closed = 1;
nodes = (
(520,702,o),
(629,756,o),
(693,844,c),
(722,889,o),
(738,938,o),
(738,994,cs),
(738,1103,o),
(687,1176,o),
(614,1221,cs),
(578,1242,o),
(542,1255,o),
(502,1260,c),
(698,1440,l),
(698,1632,l),
(74,1632,l),
(74,1422,l),
(408,1422,l),
(190,1258,l),
(258,1096,l),
(302,1109,o),
(338,1112,o),
(366,1112,cs),
(405,1112,o),
(436,1104,o),
(463,1087,c),
(487,1070,o),
(498,1045,o),
(498,1014,cs),
(498,986,o),
(485,963,o),
(458,947,c),
(431,928,o),
(398,920,o),
(358,920,cs),
(315,920,o),
(275,929,o),
(234,946,cs),
(191,963,o),
(159,986,o),
(136,1014,c),
(61,810,l),
(88,779,o),
(130,757,o),
(190,734,c),
(250,714,o),
(311,702,o),
(376,702,cs)
);
}
);
width = 826;
},
{
layerId = "C851E168-A0F3-4A98-BB70-DDAB26A4D58F";
shapes = (
{
closed = 1;
nodes = (
(513,702,o),
(619,755,o),
(680,841,c),
(708,886,o),
(723,935,o),
(723,991,cs),
(723,1110,o),
(662,1185,o),
(571,1227,c),
(525,1247,o),
(480,1256,o),
(427,1257,c),
(682,1494,l),
(682,1632,l),
(81,1632,l),
(81,1481,l),
(470,1481,l),
(199,1249,l),
(250,1132,l),
(292,1143,o),
(330,1146,o),
(360,1146,cs),
(418,1146,o),
(463,1134,o),
(500,1109,c),
(534,1084,o),
(550,1049,o),
(550,1003,cs),
(550,959,o),
(533,924,o),
(498,900,c),
(463,872,o),
(418,859,o),
(362,859,cs),
(319,859,o),
(278,867,o),
(236,883,cs),
(191,899,o),
(156,920,o),
(129,946,c),
(73,800,l),
(101,772,o),
(142,752,o),
(198,731,c),
(254,713,o),
(312,702,o),
(374,702,cs)
);
}
);
width = 821;
},
{
layerId = "95DC38C8-633C-4490-9AF5-01E2DA151EE8";
shapes = (
{
closed = 1;
nodes = (
(505,702,o),
(609,753,o),
(666,838,c),
(694,882,o),
(708,932,o),
(708,988,cs),
(708,1116,o),
(637,1193,o),
(528,1232,cs),
(472,1251,o),
(417,1257,o),
(352,1254,c),
(666,1548,l),
(666,1632,l),
(88,1632,l),
(88,1540,l),
(532,1540,l),
(208,1240,l),
(242,1168,l),
(282,1177,o),
(321,1180,o),
(354,1180,cs),
(430,1180,o),
(489,1164,o),
(536,1131,cs),
(581,1098,o),
(602,1052,o),
(602,992,cs),
(602,932,o),
(581,885,o),
(538,852,c),
(495,816,o),
(438,798,o),
(366,798,cs),
(323,798,o),
(281,805,o),
(237,820,cs),
(190,835,o),
(153,854,o),
(122,878,c),
(84,790,l),
(113,765,o),
(154,747,o),
(206,728,c),
(258,712,o),
(312,702,o),
(372,702,cs)
);
}
);
width = 816;
}
);
leftKerningGroup = _degree2;
rightKerningGroup = _degree;
unicode = 179;
},
{
glyphname = mu;
layers = (
{
layerId = "754C31AE-F388-4929-9E05-D72B02926026";
shapes = (
{
closed = 1;
nodes = (
(128,-400,l),
(496,-400,l),
(496,-4,l),
(543,-20,o),
(590,-30,o),
(634,-30,cs),
(726,-30,o),
(812,10,o),
(872,102,c),
(872,0,l),
(1212,0,l),
(1212,1040,l),
(812,1040,l),
(812,482,ls),
(812,422,o),
(791,376,o),
(747,351,c),
(726,338,o),
(702,330,o),
(670,330,cs),
(626,330,o),
(591,343,o),
(567,374,c),
(540,402,o),
(528,438,o),
(528,482,cs),
(528,1040,l),
(128,1040,l)
);
}
);
width = 1340;
},
{
layerId = "C851E168-A0F3-4A98-BB70-DDAB26A4D58F";
shapes = (
{
closed = 1;
nodes = (
(156,-400,l),
(401,-400,l),
(401,51,l),
(457,-8,o),
(535,-30,o),
(623,-30,cs),
(734,-30,o),
(835,17,o),
(913,119,c),
(913,0,l),
(1144,0,l),
(1144,1040,l),
(883,1040,l),
(883,452,ls),
(883,355,o),
(840,280,o),
(768,240,c),
(733,219,o),
(695,208,o),
(650,208,cs),
(583,208,o),
(527,227,o),
(484,270,c),
(438,311,o),
(417,368,o),
(417,442,cs),
(417,1040,l),
(156,1040,l)
);
}
);
width = 1258;
},
{
layerId = "95DC38C8-633C-4490-9AF5-01E2DA151EE8";
shapes = (
{
closed = 1;
nodes = (
(184,-400,l),
(305,-400,l),
(305,106,l),
(370,5,o),
(480,-30,o),
(611,-30,cs),
(742,-30,o),
(858,24,o),
(953,136,c),
(953,0,l),
(1075,0,l),
(1075,1040,l),
(953,1040,l),
(953,422,ls),
(953,287,o),
(888,183,o),
(788,128,c),
(739,99,o),
(687,86,o),
(630,86,cs),
(539,86,o),
(463,110,o),
(401,166,c),
(336,219,o),
(305,297,o),
(305,401,cs),
(305,1040,l),
(184,1040,l)
);
}
);
width = 1176;
}
);
unicode = (181,956);
},
{
glyphname = paragraph;
layers = (
{
layerId = "754C31AE-F388-4929-9E05-D72B02926026";
shapes = (
{
closed = 1;
nodes = (
(574,-411,l),
(841,-411,l),
(841,1220,l),
(977,1220,l),
(977,-411,l),
(1244,-411,l),
(1244,1220,l),
(1454,1220,l),
(1454,1440,l),
(627,1440,ls),
(394,1440,o),
(214,1362,o),
(115,1214,cs),
(67,1143,o),
(41,1058,o),
(41,959,cs),
(41,761,o),
(142,616,o),
(323,537,c),
(409,497,o),
(511,477,o),
(627,477,c),
(574,525,l)
);
}
);
width = 1485;
},
{
layerId = "C851E168-A0F3-4A98-BB70-DDAB26A4D58F";
shapes = (
{
closed = 1;
nodes = (
(539,-411,l),
(726,-411,l),
(726,1278,l),
(900,1278,l),
(900,-411,l),
(1087,-411,l),
(1087,1278,l),
(1306,1278,l),
(1306,1440,l),
(577,1440,ls),
(369,1440,o),
(215,1369,o),
(130,1238,cs),
(88,1177,o),
(67,1103,o),
(67,1017,cs),
(67,849,o),
(152,721,o),
(310,648,cs),
(386,612,o),
(474,594,o),
(577,594,c),
(539,638,l)
);
}
);
width = 1358;
},
{
layerId = "95DC38C8-633C-4490-9AF5-01E2DA151EE8";
shapes = (
{
closed = 1;
nodes = (
(504,-411,l),
(611,-411,l),
(611,1337,l),
(823,1337,l),
(823,-411,l),
(930,-411,l),
(930,1337,l),
(1158,1337,l),
(1158,1440,l),
(527,1440,ls),
(345,1440,o),
(215,1375,o),
(144,1263,cs),
(110,1210,o),
(93,1147,o),
(93,1076,cs),
(93,935,o),
(163,825,o),
(295,759,cs),
(361,727,o),
(436,712,o),
(527,712,c),
(504,751,l)
);
}
);
width = 1230;
}
);
unicode = 182;
},
{
glyphname = onesuperior;
layers = (
{
layerId = "754C31AE-F388-4929-9E05-D72B02926026";
shapes = (
{
closed = 1;
nodes = (
(300,722,l),
(540,722,l),
(540,1632,l),
(456,1632,l),
(36,1486,l),
(104,1282,l),
(300,1344,l)
);
}
);
width = 666;
},
{
layerId = "C851E168-A0F3-4A98-BB70-DDAB26A4D58F";
shapes = (
{
closed = 1;
nodes = (
(319,722,l),
(488,722,l),
(488,1632,l),
(417,1632,l),
(42,1499,l),
(90,1357,l),
(319,1435,l)
);
}
);
width = 641;
},
{
layerId = "95DC38C8-633C-4490-9AF5-01E2DA151EE8";
shapes = (
{
closed = 1;
nodes = (
(338,722,l),
(436,722,l),
(436,1632,l),
(377,1632,l),
(48,1512,l),
(76,1432,l),
(338,1526,l)
);
}
);
width = 616;
}
);
leftKerningGroup = _degree2;
rightKerningGroup = _degree;
unicode = 185;
},
{
glyphname = ordmasculine;
layers = (
{
hints = (
{
horizontal = 1;
place = (942,262);
type = Stem;
},
{
horizontal = 1;
place = (1433,262);
type = Stem;
},
{
place = (34,299);
type = Stem;
},
{
place = (608,299);
type = Stem;
}
);
layerId = "754C31AE-F388-4929-9E05-D72B02926026";
shapes = (
{
closed = 1;
nodes = (
(693,717,o),
(907,858,o),
(907,1093,cs),
(907,1335,o),
(690,1470,o),
(471,1470,cs),
(257,1470,o),
(34,1330,o),
(34,1097,cs),
(34,870,o),
(267,717,o),
(476,717,cs)
);
},
{
closed = 1;
nodes = (
(402,979,o),
(333,1019,o),
(333,1093,cs),
(333,1160,o),
(387,1208,o),
(471,1208,cs),
(559,1208,o),
(608,1159,o),
(608,1093,cs),
(608,1027,o),
(554,979,o),
(471,979,cs)
);
}
);
width = 941;
},
{
hints = (
{
place = (47,200);
type = Stem;
},
{
place = (670,200);
type = Stem;
}
);
layerId = "C851E168-A0F3-4A98-BB70-DDAB26A4D58F";
shapes = (
{
closed = 1;
nodes = (
(681,717,o),
(871,870,o),
(871,1093,cs),
(871,1325,o),
(675,1470,o),
(460,1470,cs),
(244,1470,o),
(47,1319,o),
(47,1097,cs),
(47,880,o),
(258,717,o),
(464,717,cs)
);
},
{
closed = 1;
nodes = (
(336,892,o),
(248,974,o),
(248,1093,cs),
(248,1213,o),
(329,1294,o),
(460,1294,cs),
(595,1294,o),
(670,1210,o),
(670,1093,cs),
(670,972,o),
(586,892,o),
(460,892,cs)
);
}
);
width = 917;
},
{
hints = (
{
horizontal = 1;
place = (942,89);
type = Stem;
},
{
horizontal = 1;
place = (1605,90);
type = Stem;
},
{
place = (60,101);
type = Stem;
},
{
place = (733,101);
type = Stem;
}
);
layerId = "95DC38C8-633C-4490-9AF5-01E2DA151EE8";
shapes = (
{
closed = 1;
nodes = (
(667,717,o),
(834,880,o),
(834,1093,cs),
(834,1315,o),
(661,1470,o),
(447,1470,cs),
(228,1470,o),
(60,1307,o),
(60,1097,cs),
(60,889,o),
(247,717,o),
(450,717,cs)
);
},
{
closed = 1;
nodes = (
(268,806,o),
(160,928,o),
(160,1093,cs),
(160,1266,o),
(270,1380,o),
(447,1380,cs),
(631,1380,o),
(733,1260,o),
(733,1093,cs),
(733,918,o),
(617,806,o),
(447,806,cs)
);
}
);
width = 893;
}
);
leftKerningGroup = _degree2;
rightKerningGroup = _degree;
unicode = 186;
},
{
glyphname = guillemotright;
layers = (
{
layerId = "754C31AE-F388-4929-9E05-D72B02926026";
shapes = (
{
closed = 1;
nodes = (
(907,1000,l),
(640,837,l),
(822,530,l),
(638,221,l),
(907,60,l),
(1190,530,l)
);
},
{
closed = 1;
nodes = (
(387,1000,l),
(120,837,l),
(302,530,l),
(118,221,l),
(387,60,l),
(670,530,l)
);
}
);
width = 1230;
},
{
layerId = "C851E168-A0F3-4A98-BB70-DDAB26A4D58F";
shapes = (
{
closed = 1;
nodes = (
(731,944,l),
(565,832,l),
(797,514,l),
(563,195,l),
(731,85,l),
(1043,514,l)
);
},
{
closed = 1;
nodes = (
(281,944,l),
(115,832,l),
(347,514,l),
(113,195,l),
(281,85,l),
(593,514,l)
);
}
);
width = 1093;
},
{
layerId = "95DC38C8-633C-4490-9AF5-01E2DA151EE8";
shapes = (
{
closed = 1;
nodes = (
(555,887,l),
(489,827,l),
(772,498,l),
(488,169,l),
(555,110,l),
(896,498,l)
);
},
{
closed = 1;
nodes = (
(175,887,l),
(109,827,l),
(392,498,l),
(108,169,l),
(175,110,l),
(516,498,l)
);
}
);
width = 956;
}
);
unicode = 187;
},
{
glyphname = onequarter;
layers = (
{
layerId = "754C31AE-F388-4929-9E05-D72B02926026";
shapes = (
{
closed = 1;
nodes = (
(308,504,l),
(555,504,l),
(555,1439,l),
(470,1438,l),
(37,1289,l),
(107,1079,l),
(308,1143,l)
);
},
{
closed = 1;
nodes = (
(1552,0,l),
(1772,0,l),
(1772,164,l),
(1894,164,l),
(1894,376,l),
(1772,376,l),
(1772,543,l),
(1552,543,l),
(1552,376,l),
(1380,376,l),
(1651,935,l),
(1390,935,l),
(1106,354,l),
(1106,164,l),
(1552,164,l)
);
},
{
closed = 1;
nodes = (
(598,-41,l),
(1384,1363,l),
(1178,1480,l),
(393,80,l)
);
}
);
width = 1943;
},
{
layerId = "C851E168-A0F3-4A98-BB70-DDAB26A4D58F";
shapes = (
{
closed = 1;
nodes = (
(328,504,l),
(502,504,l),
(502,1439,l),
(430,1440,l),
(43,1302,l),
(93,1157,l),
(328,1237,l)
);
},
{
closed = 1;
nodes = (
(1536,0,l),
(1695,0,l),
(1695,183,l),
(1835,183,l),
(1835,336,l),
(1695,336,l),
(1695,530,l),
(1536,530,l),
(1536,336,l),
(1261,336,l),
(1581,935,l),
(1393,935,l),
(1066,321,l),
(1066,183,l),
(1536,183,l)
);
},
{
closed = 1;
nodes = (
(534,-36,l),
(1332,1396,l),
(1190,1475,l),
(392,48,l)
);
}
);
width = 1894;
},
{
layerId = "95DC38C8-633C-4490-9AF5-01E2DA151EE8";
shapes = (
{
closed = 1;
nodes = (
(347,504,l),
(448,504,l),
(448,1439,l),
(389,1441,l),
(49,1316,l),
(78,1234,l),
(347,1330,l)
);
},
{
closed = 1;
nodes = (
(1519,0,l),
(1618,0,l),
(1618,201,l),
(1776,201,l),
(1776,296,l),
(1618,296,l),
(1618,518,l),
(1519,518,l),
(1519,296,l),
(1143,296,l),
(1511,935,l),
(1396,935,l),
(1026,288,l),
(1026,201,l),
(1519,201,l)
);
},
{
closed = 1;
nodes = (
(469,-31,l),
(1281,1429,l),
(1203,1470,l),
(391,16,l)
);
}
);
width = 1844;
}
);
leftKerningGroup = _onehalf;
unicode = 188;
},
{
glyphname = onehalf;
layers = (
{
layerId = "754C31AE-F388-4929-9E05-D72B02926026";
shapes = (
{
closed = 1;
nodes = (
(308,504,l),
(555,504,l),
(555,1439,l),
(470,1438,l),
(37,1289,l),
(107,1079,l),
(308,1143,l)
);
},
{
closed = 1;
nodes = (
(598,-41,l),
(1384,1363,l),
(1178,1480,l),
(393,80,l)
);
},
{
alignment = -1;
pos = (1090,-740);
ref = twosuperior;
}
);
width = 1959;
},
{
layerId = "C851E168-A0F3-4A98-BB70-DDAB26A4D58F";
shapes = (
{
closed = 1;
nodes = (
(328,504,l),
(502,504,l),
(502,1439,l),
(430,1440,l),
(43,1302,l),
(93,1157,l),
(328,1237,l)
);
},
{
closed = 1;
nodes = (
(534,-36,l),
(1332,1396,l),
(1190,1475,l),
(392,48,l)
);
},
{
alignment = -1;
pos = (1064,-733);
ref = twosuperior;
}
);
width = 1922;
},
{
layerId = "95DC38C8-633C-4490-9AF5-01E2DA151EE8";
shapes = (
{
closed = 1;
nodes = (
(347,504,l),
(448,504,l),
(448,1439,l),
(389,1441,l),
(49,1316,l),
(78,1234,l),
(347,1330,l)
);
},
{
closed = 1;
nodes = (
(469,-31,l),
(1281,1429,l),
(1203,1470,l),
(391,16,l)
);
},
{
alignment = -1;
pos = (1037,-726);
ref = twosuperior;
}
);
width = 1885;
}
);
leftKerningGroup = _onehalf;
unicode = 189;
},
{
glyphname = threequarters;
layers = (
{
layerId = "754C31AE-F388-4929-9E05-D72B02926026";
shapes = (
{
closed = 1;
nodes = (
(535,483,o),
(647,539,o),
(712,629,c),
(742,675,o),
(759,726,o),
(759,783,cs),
(759,895,o),
(706,970,o),
(631,1017,cs),
(594,1038,o),
(557,1052,o),
(516,1057,c),
(718,1242,l),
(718,1439,l),
(76,1439,l),
(76,1223,l),
(419,1223,l),
(195,1055,l),
(265,888,l),
(310,902,o),
(347,905,o),
(376,905,cs),
(416,905,o),
(448,896,o),
(476,879,c),
(501,861,o),
(512,836,o),
(512,804,cs),
(512,775,o),
(499,751,o),
(471,735,c),
(443,715,o),
(409,707,o),
(368,707,cs),
(324,707,o),
(283,717,o),
(241,734,cs),
(196,751,o),
(163,775,o),
(140,804,c),
(63,594,l),
(90,562,o),
(134,540,o),
(195,516,c),
(257,495,o),
(320,483,o),
(387,483,cs)
);
},
{
closed = 1;
nodes = (
(1717,0,l),
(1937,0,l),
(1937,164,l),
(2058,164,l),
(2058,376,l),
(1937,376,l),
(1937,543,l),
(1717,543,l),
(1717,376,l),
(1544,376,l),
(1815,935,l),
(1554,935,l),
(1271,354,l),
(1271,164,l),
(1717,164,l)
);
},
{
closed = 1;
nodes = (
(763,-41,l),
(1548,1363,l),
(1343,1480,l),
(557,80,l)
);
}
);
width = 2107;
},
{
layerId = "C851E168-A0F3-4A98-BB70-DDAB26A4D58F";
shapes = (
{
closed = 1;
nodes = (
(527,483,o),
(636,538,o),
(699,626,c),
(728,672,o),
(743,723,o),
(743,780,cs),
(743,903,o),
(681,980,o),
(587,1023,c),
(540,1043,o),
(493,1053,o),
(439,1054,c),
(701,1297,l),
(701,1439,l),
(83,1439,l),
(83,1284,l),
(483,1284,l),
(205,1045,l),
(257,925,l),
(300,937,o),
(339,940,o),
(370,940,cs),
(430,940,o),
(476,927,o),
(514,902,c),
(549,876,o),
(565,840,o),
(565,793,cs),
(565,747,o),
(548,711,o),
(512,687,c),
(476,658,o),
(430,645,o),
(372,645,cs),
(328,645,o),
(286,653,o),
(243,669,cs),
(196,686,o),
(160,707,o),
(133,734,c),
(75,584,l),
(104,555,o),
(146,535,o),
(204,513,c),
(261,494,o),
(321,483,o),
(384,483,cs)
);
},
{
closed = 1;
nodes = (
(1721,0,l),
(1880,0,l),
(1880,183,l),
(2020,183,l),
(2020,336,l),
(1880,336,l),
(1880,530,l),
(1721,530,l),
(1721,336,l),
(1446,336,l),
(1766,935,l),
(1578,935,l),
(1251,321,l),
(1251,183,l),
(1721,183,l)
);
},
{
closed = 1;
nodes = (
(719,-36,l),
(1517,1396,l),
(1375,1475,l),
(577,48,l)
);
}
);
width = 2079;
},
{
layerId = "95DC38C8-633C-4490-9AF5-01E2DA151EE8";
shapes = (
{
closed = 1;
nodes = (
(519,483,o),
(626,536,o),
(685,623,c),
(713,668,o),
(728,720,o),
(728,777,cs),
(728,909,o),
(655,988,o),
(543,1028,cs),
(485,1048,o),
(429,1054,o),
(362,1051,c),
(685,1353,l),
(685,1439,l),
(90,1439,l),
(90,1345,l),
(547,1345,l),
(214,1036,l),
(249,962,l),
(290,971,o),
(330,975,o),
(364,975,cs),
(442,975,o),
(503,958,o),
(551,924,cs),
(597,890,o),
(619,843,o),
(619,781,cs),
(619,720,o),
(597,671,o),
(553,637,c),
(509,600,o),
(450,582,o),
(376,582,cs),
(332,582,o),
(289,589,o),
(244,604,cs),
(195,620,o),
(157,639,o),
(125,664,c),
(86,574,l),
(116,548,o),
(158,529,o),
(212,510,c),
(265,493,o),
(321,483,o),
(382,483,cs)
);
},
{
closed = 1;
nodes = (
(1725,0,l),
(1824,0,l),
(1824,201,l),
(1982,201,l),
(1982,296,l),
(1824,296,l),
(1824,518,l),
(1725,518,l),
(1725,296,l),
(1349,296,l),
(1717,935,l),
(1602,935,l),
(1232,288,l),
(1232,201,l),
(1725,201,l)
);
},
{
closed = 1;
nodes = (
(674,-31,l),
(1486,1429,l),
(1408,1470,l),
(596,16,l)
);
}
);
width = 2050;
}
);
unicode = 190;
},
{
glyphname = questiondown;
layers = (
{
guides = (
{
position = "{0, 1400}";
}
);
layerId = "754C31AE-F388-4929-9E05-D72B02926026";
shapes = (
{
closed = 1;
nodes = (
(379,503,l),
(456,445,o),
(472,419,o),
(472,386,cs),
(472,363,o),
(469,343,o),
(454,333,cs),
(345,261,ls),
(239,191,o),
(86,77,o),
(86,-103,cs),
(86,-343,o),
(353,-450,o),
(551,-450,cs),
(669,-450,o),
(909,-412,o),
(980,-337,c),
(908,-22,l),
(826,-64,o),
(760,-94,o),
(663,-94,cs),
(579,-94,o),
(529,-56,o),
(529,5,cs),
(529,43,o),
(549,75,o),
(589,103,cs),
(665,156,ls),
(734,204,o),
(817,248,o),
(817,360,cs),
(817,429,o),
(788,480,o),
(637,559,c)
);
},
{
closed = 1;
nodes = (
(458,1070,o),
(357,981,o),
(357,851,cs),
(357,722,o),
(456,636,o),
(586,636,cs),
(712,636,o),
(812,719,o),
(812,851,cs),
(812,984,o),
(712,1070,o),
(587,1070,cs)
);
}
);
width = 1052;
},
{
guides = (
{
position = "{0, 1400}";
}
);
layerId = "C851E168-A0F3-4A98-BB70-DDAB26A4D58F";
shapes = (
{
closed = 1;
nodes = (
(412,564,l),
(477,515,o),
(523,475,o),
(523,421,cs),
(523,389,o),
(508,371,o),
(463,342,cs),
(359,275,ls),
(214,182,o),
(92,70,o),
(92,-84,cs),
(92,-315,o),
(332,-450,o),
(539,-450,cs),
(656,-450,o),
(829,-417,o),
(915,-339,c),
(856,-146,l),
(777,-205,o),
(686,-231,o),
(588,-231,cs),
(478,-231,o),
(390,-167,o),
(390,-47,cs),
(390,7,o),
(441,84,o),
(505,125,cs),
(588,179,ls),
(691,246,o),
(761,304,o),
(761,401,cs),
(761,492,o),
(697,551,o),
(592,609,c)
);
},
{
closed = 1;
nodes = (
(466,1070,o),
(396,1009,o),
(396,917,cs),
(396,826,o),
(466,767,o),
(556,767,cs),
(645,767,o),
(715,825,o),
(715,916,cs),
(715,1008,o),
(643,1070,o),
(556,1070,cs)
);
}
);
width = 995;
},
{
layerId = "95DC38C8-633C-4490-9AF5-01E2DA151EE8";
shapes = (
{
closed = 1;
nodes = (
(455,642,l),
(504,604,o),
(589,546,o),
(589,465,cs),
(589,422,o),
(558,387,o),
(475,335,cs),
(377,274,ls),
(182,152,o),
(100,22,o),
(100,-98,cs),
(100,-321,o),
(315,-450,o),
(529,-450,cs),
(646,-450,o),
(767,-420,o),
(864,-341,c),
(815,-247,l),
(738,-320,o),
(629,-342,o),
(529,-342,cs),
(376,-342,o),
(221,-255,o),
(221,-88,cs),
(221,-3,o),
(275,97,o),
(398,170,cs),
(489,224,ls),
(637,312,o),
(688,377,o),
(688,453,cs),
(688,572,o),
(581,642,o),
(533,674,c)
);
},
{
closed = 1;
nodes = (
(473,1070,o),
(426,1030,o),
(426,969,cs),
(426,907,o),
(473,868,o),
(533,868,cs),
(592,868,o),
(640,907,o),
(640,967,cs),
(640,1027,o),
(590,1070,o),
(531,1070,cs)
);
}
);
width = 950;
}
);
unicode = 191;
},
{
glyphname = AE;
layers = (
{
layerId = "754C31AE-F388-4929-9E05-D72B02926026";
shapes = (
{
closed = 1;
nodes = (
(-103,0,l),
(337,0,l),
(442,257,l),
(802,257,l),
(802,0,l),
(1792,0,l),
(1792,362,l),
(1218,362,l),
(1218,566,l),
(1699,566,l),
(1699,895,l),
(1218,895,l),
(1218,1082,l),
(1783,1082,l),
(1783,1440,l),
(520,1440,l)
);
},
{
closed = 1;
nodes = (
(574,582,l),
(802,1146,l),
(802,582,l)
);
}
);
width = 1899;
},
{
layerId = "C851E168-A0F3-4A98-BB70-DDAB26A4D58F";
shapes = (
{
closed = 1;
nodes = (
(-57,0,l),
(228,0,l),
(376,324,l),
(798,324,l),
(798,0,l),
(1715,0,l),
(1715,237,l),
(1066,237,l),
(1066,637,l),
(1629,637,l),
(1629,857,l),
(1066,857,l),
(1066,1205,l),
(1706,1205,l),
(1706,1440,l),
(621,1440,l)
);
},
{
closed = 1;
nodes = (
(466,540,l),
(798,1248,l),
(798,540,l)
);
}
);
width = 1845;
},
{
layerId = "95DC38C8-633C-4490-9AF5-01E2DA151EE8";
shapes = (
{
closed = 1;
nodes = (
(-10,0,l),
(119,0,l),
(311,391,l),
(794,391,l),
(794,0,l),
(1637,0,l),
(1637,111,l),
(913,111,l),
(913,708,l),
(1559,708,l),
(1559,819,l),
(913,819,l),
(913,1329,l),
(1629,1329,l),
(1629,1440,l),
(722,1440,l)
);
},
{
closed = 1;
nodes = (
(358,498,l),
(794,1349,l),
(794,498,l)
);
}
);
width = 1792;
}
);
leftKerningGroup = _AE;
rightKerningGroup = _E;
unicode = 198;
},
